<?xml version="1.0" encoding="UTF-8"?>
<svg xmlns="http://www.w3.org/2000/svg" viewBox="0 0 185.32 233.34">
  <defs>
    <style>
      .cls-1 {
        fill: #00abd3;
      }

      .cls-2 {
        fill: #f2f1e7;
      }

      .cls-3 {
        fill: #f4d9bd;
      }

      .cls-4 {
        fill: #ef8e00;
      }

      .cls-5 {
        fill: #fff;
      }

      .cls-6 {
        fill: #baaa9b;
      }

      .cls-7 {
        fill: #ffa364;
      }

      .cls-8 {
        mix-blend-mode: overlay;
        opacity: .15;
      }

      .cls-9 {
        fill: #ff6d00;
      }

      .cls-10 {
        isolation: isolate;
      }

      .cls-11 {
        fill: #ffde73;
      }

      .cls-12 {
        fill: #b39471;
      }

      .cls-13 {
        fill: #1c1108;
      }

      .cls-14 {
        fill: #875f3a;
      }

      .cls-15 {
        fill: #dfc1a4;
      }

      .cls-16 {
        fill: #ffb103;
      }

      .cls-17 {
        fill: #6d4727;
      }
    </style>
  </defs>
  <g class="cls-10">
    <g id="_Ñëîé_1" data-name="Ñëîé 1">
      <path class="cls-6" d="M36.73,207.92l3.16,6.42h108.65l3.16-6.42c2.67-5.42,7.13-9.88,12.55-12.54l6.42-3.16V44.32l-6.28-3.2c-5.26-2.68-9.58-7.07-12.16-12.36l-3.15-6.45H39.34l-3.16,6.42c-2.6,5.27-6.91,9.65-12.14,12.32l-6.28,3.2v147.96l6.42,3.16c5.42,2.67,9.88,7.12,12.55,12.54Z"/>
      <g>
        <g>
          <ellipse class="cls-13" cx="94.04" cy="176.69" rx="29.1" ry="3.33"/>
          <g>
            <g>
              <g>
                <path class="cls-15" d="M59.66,126.93c-6.29,11.02-6.42,20.9-6.29,23.31.54,9.74,12.04,6.52,12.06,2.55.08-21.71,4.23-33.09,4.89-35.48,0,0-5.21.07-10.65,9.62Z"/>
                <path class="cls-3" d="M51.57,159.5c0,2.56,2.07,4.64,4.64,4.64h6.14c2.56,0,4.64-2.08,4.64-4.64v-6.13c0-2.56-2.08-4.64-4.64-4.64h-6.14c-2.56,0-4.64,2.08-4.64,4.64v6.13Z"/>
              </g>
              <g>
                <path class="cls-15" d="M128.78,126.93c6.29,11.02,6.42,20.9,6.29,23.31-.54,9.74-12.04,6.52-12.06,2.55-.08-21.71-4.23-33.09-4.89-35.48,0,0,5.21.07,10.65,9.62Z"/>
                <path class="cls-3" d="M136.87,159.5c0,2.56-2.07,4.64-4.64,4.64h-6.14c-2.56,0-4.64-2.08-4.64-4.64v-6.13c0-2.56,2.08-4.64,4.64-4.64h6.14c2.56,0,4.64,2.08,4.64,4.64v6.13Z"/>
              </g>
              <g>
                <polygon class="cls-15" points="76.3 176.69 69.33 176.69 69.33 157.68 83.27 157.68 76.3 176.69"/>
                <polygon class="cls-15" points="112.37 176.69 119.34 176.69 119.34 157.68 105.4 157.68 112.37 176.69"/>
              </g>
              <path class="cls-3" d="M70.2,117.31c-3.4,6-5.42,13.31-5.42,21.23s2.01,15.23,5.42,21.23c6.79,3.01,15.06,4.79,24.02,4.79s17.23-1.79,24.02-4.79c3.4-6,5.43-13.32,5.43-21.23s-2.03-15.23-5.43-21.23c-6.79-3.01-15.06-4.79-24.01-4.79s-17.23,1.78-24.02,4.8Z"/>
              <path class="cls-15" d="M94.22,112.52c-8.96,0-17.23,1.78-24.02,4.79-.35.61-.67,1.24-.98,1.88,4.88,2.82,10.53,4.47,16.58,4.47h15.42c6.5,0,12.53-1.9,17.65-5.12-.21-.41-.42-.83-.64-1.22-6.79-3.01-15.06-4.79-24.01-4.79Z"/>
              <g>
                <path class="cls-3" d="M134.47,86.22c0,18.36-14.89,33.25-33.25,33.25h-15.42c-18.37,0-33.26-14.89-33.26-33.25s14.89-33.26,33.26-33.26h15.42c18.37,0,33.25,14.89,33.25,33.26h0Z"/>
                <g>
                  <path class="cls-7" d="M111.39,96.93l.05-.2c0-2.89-2.34-5.23-5.23-5.23v3.76c-1.85,0-3.35,1.5-3.35,3.35s1.5,3.35,3.35,3.35h3.98c1.47,0,2.67-1.19,2.67-2.67,0-1.04-.6-1.93-1.46-2.37Z"/>
                  <path class="cls-3" d="M111.52,99.39c0,.81-.66,1.47-1.47,1.47s-1.47-.66-1.47-1.47.66-1.47,1.47-1.47,1.47.66,1.47,1.47Z"/>
                </g>
                <g>
                  <path class="cls-1" d="M86.35,84.68c-3,0-5.42,2.43-5.42,5.42h10.8c0-3-2.41-5.42-5.38-5.42Z"/>
                  <path class="cls-2" d="M99.09,112.52c2.99,0,5.41-2.43,5.41-5.42h-10.8c0,3,2.41,5.42,5.39,5.42Z"/>
                  <path class="cls-1" d="M125.77,84.68c-3,0-5.41,2.43-5.41,5.42h10.8c0-3-2.42-5.42-5.39-5.42Z"/>
                </g>
              </g>
            </g>
            <path class="cls-9" d="M69.33,168.64h9.92l1.97-5.38c4.09.84,8.45,1.31,12.99,1.31s9.06-.48,13.21-1.36l1.99,5.43h9.92v-10.96c.4-.85.78-1.73,1.15-2.62h-52.53c.42,1.04.87,2.07,1.37,3.05v10.52Z"/>
          </g>
          <g>
            <path class="cls-14" d="M154.68,227.05H33.76c-3.8,0-6.87-3.08-6.88-6.87,0-8.24-6.71-14.94-14.95-14.94-3.8,0-6.88-3.08-6.88-6.88V38.24c0-3.73,2.97-6.78,6.7-6.87,8.15-.21,14.54-6.75,14.56-14.9,0-3.79,3.08-6.86,6.88-6.86h122.07c3.8,0,6.88,3.08,6.88,6.88,0,.04,0,.07,0,.11.05,8.12,6.43,14.63,14.56,14.84,3.73.1,6.7,3.14,6.7,6.87v160.05c0,3.8-3.08,6.88-6.88,6.88-8.24,0-14.95,6.7-14.95,14.94,0,3.8-3.08,6.87-6.88,6.87ZM39.8,213.3h108.85c2.55-10.31,10.69-18.44,20.99-20.98V44.23c-10.15-2.67-17.99-10.67-20.45-20.87H39.23c-2.48,10.16-10.31,18.14-20.43,20.8v148.15c10.31,2.54,18.44,10.68,20.99,20.98Z"/>
            <g>
              <path class="cls-17" d="M176.51,200.65c-8.24,0-14.95,6.7-14.95,14.94,0,3.8-3.08,6.87-6.88,6.87H33.76c-3.8,0-6.87-3.08-6.88-6.87,0-8.24-6.71-14.94-14.95-14.94-3.8,0-6.88-3.08-6.88-6.88v4.58c0,3.8,3.08,6.88,6.88,6.88,8.24,0,14.95,6.7,14.95,14.94,0,3.8,3.08,6.87,6.88,6.87h120.93c3.79,0,6.87-3.08,6.88-6.87,0-8.24,6.71-14.94,14.95-14.94,3.8,0,6.88-3.08,6.88-6.88v-4.58c0,3.8-3.08,6.88-6.88,6.88Z"/>
              <path class="cls-17" d="M149.19,18.78H39.23c-2.48,10.16-10.31,18.14-20.43,20.8v4.58c10.12-2.67,17.95-10.64,20.43-20.8h109.95c2.46,10.19,10.3,18.2,20.45,20.87v-4.58c-10.15-2.67-17.99-10.67-20.45-20.87Z"/>
            </g>
            <path class="cls-12" d="M86.24,16.49h-38.99c-1.81,0-3.3-1.48-3.3-3.3s1.48-3.3,3.3-3.3h38.99c1.81,0,3.3,1.48,3.3,3.3s-1.48,3.3-3.3,3.3Z"/>
          </g>
          <g>
            <g>
              <g>
                <path class="cls-4" d="M179.22,23.25c-2.87,2.87-7.53,2.87-10.4,0-2.87-2.87-2.87-7.53,0-10.4,2.87-2.87,7.53-2.87,10.4,0,2.87,2.87,2.87,7.53,0,10.4Z"/>
                <g>
                  <path class="cls-16" d="M183.04,14.86c-1.25-3.81-4.8-6.57-9.02-6.57s-7.77,2.77-9.02,6.57h18.04Z"/>
                  <path class="cls-16" d="M183.04,20.8h-18.04c1.25,3.81,4.8,6.57,9.02,6.57s7.77-2.77,9.02-6.57Z"/>
                </g>
                <path class="cls-11" d="M170.85,13.14c-.78.78-2.04.78-2.82,0-.78-.78-.78-2.04,0-2.82s2.04-.78,2.82,0c.78.78.78,2.04,0,2.82Z"/>
              </g>
              <g>
                <circle class="cls-4" cx="174.18" cy="219.01" r="7.36"/>
                <g>
                  <path class="cls-16" d="M178.3,210.38c-3.58-1.8-8.04-1.26-11.02,1.73s-3.54,7.45-1.73,11.02l12.76-12.76Z"/>
                  <path class="cls-16" d="M182.5,214.58l-12.76,12.76c3.58,1.8,8.04,1.26,11.02-1.73,2.99-2.99,3.54-7.45,1.73-11.02Z"/>
                </g>
                <path class="cls-11" d="M171.7,214.54c0,1.1-.89,1.99-1.99,1.99s-1.99-.89-1.99-1.99.89-1.99,1.99-1.99,1.99.89,1.99,1.99Z"/>
              </g>
            </g>
            <g>
              <g>
                <circle class="cls-4" cx="11.45" cy="17.96" r="7.36"/>
                <g>
                  <path class="cls-16" d="M15.58,9.33c-3.58-1.8-8.04-1.26-11.02,1.73-2.99,2.99-3.54,7.45-1.73,11.02l12.76-12.76Z"/>
                  <path class="cls-16" d="M19.77,13.52l-12.76,12.76c3.58,1.8,8.04,1.26,11.02-1.73,2.99-2.99,3.54-7.45,1.73-11.02Z"/>
                </g>
                <circle class="cls-11" cx="6.98" cy="13.49" r="1.99"/>
              </g>
              <g>
                <path class="cls-4" d="M16.5,224.25c-2.87,2.87-7.53,2.87-10.4,0-2.87-2.87-2.87-7.53,0-10.4s7.53-2.87,10.4,0,2.87,7.53,0,10.4Z"/>
                <g>
                  <path class="cls-16" d="M20.32,215.86c-1.25-3.81-4.8-6.57-9.02-6.57s-7.77,2.77-9.02,6.57h18.04Z"/>
                  <path class="cls-16" d="M20.32,221.79H2.28c1.25,3.81,4.8,6.57,9.02,6.57s7.77-2.77,9.02-6.57Z"/>
                </g>
                <path class="cls-11" d="M8.12,214.13c-.78.78-2.04.78-2.82,0-.78-.78-.78-2.04,0-2.82.78-.78,2.04-.78,2.82,0,.78.78.78,2.04,0,2.82Z"/>
              </g>
            </g>
          </g>
        </g>
        <g>
          <ellipse class="cls-13" cx="94.04" cy="176.69" rx="29.1" ry="3.33"/>
          <g>
            <g>
              <g>
                <path class="cls-15" d="M59.66,126.93c-6.29,11.02-6.42,20.9-6.29,23.31.54,9.74,12.04,6.52,12.06,2.55.08-21.71,4.23-33.09,4.89-35.48,0,0-5.21.07-10.65,9.62Z"/>
                <path class="cls-3" d="M51.57,159.5c0,2.56,2.07,4.64,4.64,4.64h6.14c2.56,0,4.64-2.08,4.64-4.64v-6.13c0-2.56-2.08-4.64-4.64-4.64h-6.14c-2.56,0-4.64,2.08-4.64,4.64v6.13Z"/>
              </g>
              <g>
                <path class="cls-15" d="M128.78,126.93c6.29,11.02,6.42,20.9,6.29,23.31-.54,9.74-12.04,6.52-12.06,2.55-.08-21.71-4.23-33.09-4.89-35.48,0,0,5.21.07,10.65,9.62Z"/>
                <path class="cls-3" d="M136.87,159.5c0,2.56-2.07,4.64-4.64,4.64h-6.14c-2.56,0-4.64-2.08-4.64-4.64v-6.13c0-2.56,2.08-4.64,4.64-4.64h6.14c2.56,0,4.64,2.08,4.64,4.64v6.13Z"/>
              </g>
              <g>
                <polygon class="cls-15" points="76.3 176.69 69.33 176.69 69.33 157.68 83.27 157.68 76.3 176.69"/>
                <polygon class="cls-15" points="112.37 176.69 119.34 176.69 119.34 157.68 105.4 157.68 112.37 176.69"/>
              </g>
              <path class="cls-3" d="M70.2,117.31c-3.4,6-5.42,13.31-5.42,21.23s2.01,15.23,5.42,21.23c6.79,3.01,15.06,4.79,24.02,4.79s17.23-1.79,24.02-4.79c3.4-6,5.43-13.32,5.43-21.23s-2.03-15.23-5.43-21.23c-6.79-3.01-15.06-4.79-24.01-4.79s-17.23,1.78-24.02,4.8Z"/>
              <path class="cls-15" d="M94.22,112.52c-8.96,0-17.23,1.78-24.02,4.79-.35.61-.67,1.24-.98,1.88,4.88,2.82,10.53,4.47,16.58,4.47h15.42c6.5,0,12.53-1.9,17.65-5.12-.21-.41-.42-.83-.64-1.22-6.79-3.01-15.06-4.79-24.01-4.79Z"/>
              <g>
                <path class="cls-3" d="M134.47,86.22c0,18.36-14.89,33.25-33.25,33.25h-15.42c-18.37,0-33.26-14.89-33.26-33.25s14.89-33.26,33.26-33.26h15.42c18.37,0,33.25,14.89,33.25,33.26h0Z"/>
                <g>
                  <path class="cls-7" d="M111.39,96.93l.05-.2c0-2.89-2.34-5.23-5.23-5.23v3.76c-1.85,0-3.35,1.5-3.35,3.35s1.5,3.35,3.35,3.35h3.98c1.47,0,2.67-1.19,2.67-2.67,0-1.04-.6-1.93-1.46-2.37Z"/>
                  <path class="cls-3" d="M111.52,99.39c0,.81-.66,1.47-1.47,1.47s-1.47-.66-1.47-1.47.66-1.47,1.47-1.47,1.47.66,1.47,1.47Z"/>
                </g>
                <g>
                  <path class="cls-1" d="M86.35,84.68c-3,0-5.42,2.43-5.42,5.42h10.8c0-3-2.41-5.42-5.38-5.42Z"/>
                  <path class="cls-2" d="M99.09,112.52c2.99,0,5.41-2.43,5.41-5.42h-10.8c0,3,2.41,5.42,5.39,5.42Z"/>
                  <path class="cls-1" d="M125.77,84.68c-3,0-5.41,2.43-5.41,5.42h10.8c0-3-2.42-5.42-5.39-5.42Z"/>
                </g>
              </g>
            </g>
            <path class="cls-9" d="M69.33,168.64h9.92l1.97-5.38c4.09.84,8.45,1.31,12.99,1.31s9.06-.48,13.21-1.36l1.99,5.43h9.92v-10.96c.4-.85.78-1.73,1.15-2.62h-52.53c.42,1.04.87,2.07,1.37,3.05v10.52Z"/>
          </g>
          <g>
            <path class="cls-14" d="M154.68,227.05H33.76c-3.8,0-6.87-3.08-6.88-6.87,0-8.24-6.71-14.94-14.95-14.94-3.8,0-6.88-3.08-6.88-6.88V38.24c0-3.73,2.97-6.78,6.7-6.87,8.15-.21,14.54-6.75,14.56-14.9,0-3.79,3.08-6.86,6.88-6.86h122.07c3.8,0,6.88,3.08,6.88,6.88,0,.04,0,.07,0,.11.05,8.12,6.43,14.63,14.56,14.84,3.73.1,6.7,3.14,6.7,6.87v160.05c0,3.8-3.08,6.88-6.88,6.88-8.24,0-14.95,6.7-14.95,14.94,0,3.8-3.08,6.87-6.88,6.87ZM39.8,213.3h108.85c2.55-10.31,10.69-18.44,20.99-20.98V44.23c-10.15-2.67-17.99-10.67-20.45-20.87H39.23c-2.48,10.16-10.31,18.14-20.43,20.8v148.15c10.31,2.54,18.44,10.68,20.99,20.98Z"/>
            <g>
              <path class="cls-17" d="M176.51,200.65c-8.24,0-14.95,6.7-14.95,14.94,0,3.8-3.08,6.87-6.88,6.87H33.76c-3.8,0-6.87-3.08-6.88-6.87,0-8.24-6.71-14.94-14.95-14.94-3.8,0-6.88-3.08-6.88-6.88v4.58c0,3.8,3.08,6.88,6.88,6.88,8.24,0,14.95,6.7,14.95,14.94,0,3.8,3.08,6.87,6.88,6.87h120.93c3.79,0,6.87-3.08,6.88-6.87,0-8.24,6.71-14.94,14.95-14.94,3.8,0,6.88-3.08,6.88-6.88v-4.58c0,3.8-3.08,6.88-6.88,6.88Z"/>
              <path class="cls-17" d="M149.19,18.78H39.23c-2.48,10.16-10.31,18.14-20.43,20.8v4.58c10.12-2.67,17.95-10.64,20.43-20.8h109.95c2.46,10.19,10.3,18.2,20.45,20.87v-4.58c-10.15-2.67-17.99-10.67-20.45-20.87Z"/>
            </g>
            <path class="cls-12" d="M86.24,16.49h-38.99c-1.81,0-3.3-1.48-3.3-3.3s1.48-3.3,3.3-3.3h38.99c1.81,0,3.3,1.48,3.3,3.3s-1.48,3.3-3.3,3.3Z"/>
          </g>
          <g>
            <g>
              <g>
                <path class="cls-4" d="M179.22,23.25c-2.87,2.87-7.53,2.87-10.4,0-2.87-2.87-2.87-7.53,0-10.4,2.87-2.87,7.53-2.87,10.4,0,2.87,2.87,2.87,7.53,0,10.4Z"/>
                <g>
                  <path class="cls-16" d="M183.04,14.86c-1.25-3.81-4.8-6.57-9.02-6.57s-7.77,2.77-9.02,6.57h18.04Z"/>
                  <path class="cls-16" d="M183.04,20.8h-18.04c1.25,3.81,4.8,6.57,9.02,6.57s7.77-2.77,9.02-6.57Z"/>
                </g>
                <path class="cls-11" d="M170.85,13.14c-.78.78-2.04.78-2.82,0-.78-.78-.78-2.04,0-2.82s2.04-.78,2.82,0c.78.78.78,2.04,0,2.82Z"/>
              </g>
              <g>
                <circle class="cls-4" cx="174.18" cy="219.01" r="7.36"/>
                <g>
                  <path class="cls-16" d="M178.3,210.38c-3.58-1.8-8.04-1.26-11.02,1.73s-3.54,7.45-1.73,11.02l12.76-12.76Z"/>
                  <path class="cls-16" d="M182.5,214.58l-12.76,12.76c3.58,1.8,8.04,1.26,11.02-1.73,2.99-2.99,3.54-7.45,1.73-11.02Z"/>
                </g>
                <path class="cls-11" d="M171.7,214.54c0,1.1-.89,1.99-1.99,1.99s-1.99-.89-1.99-1.99.89-1.99,1.99-1.99,1.99.89,1.99,1.99Z"/>
              </g>
            </g>
            <g>
              <g>
                <circle class="cls-4" cx="11.45" cy="17.96" r="7.36"/>
                <g>
                  <path class="cls-16" d="M15.58,9.33c-3.58-1.8-8.04-1.26-11.02,1.73-2.99,2.99-3.54,7.45-1.73,11.02l12.76-12.76Z"/>
                  <path class="cls-16" d="M19.77,13.52l-12.76,12.76c3.58,1.8,8.04,1.26,11.02-1.73,2.99-2.99,3.54-7.45,1.73-11.02Z"/>
                </g>
                <circle class="cls-11" cx="6.98" cy="13.49" r="1.99"/>
              </g>
              <g>
                <path class="cls-4" d="M16.5,224.25c-2.87,2.87-7.53,2.87-10.4,0-2.87-2.87-2.87-7.53,0-10.4s7.53-2.87,10.4,0,2.87,7.53,0,10.4Z"/>
                <g>
                  <path class="cls-16" d="M20.32,215.86c-1.25-3.81-4.8-6.57-9.02-6.57s-7.77,2.77-9.02,6.57h18.04Z"/>
                  <path class="cls-16" d="M20.32,221.79H2.28c1.25,3.81,4.8,6.57,9.02,6.57s7.77-2.77,9.02-6.57Z"/>
                </g>
                <path class="cls-11" d="M8.12,214.13c-.78.78-2.04.78-2.82,0-.78-.78-.78-2.04,0-2.82.78-.78,2.04-.78,2.82,0,.78.78.78,2.04,0,2.82Z"/>
              </g>
            </g>
          </g>
        </g>
        <g class="cls-8">
          <path class="cls-5" d="M169.64,102.56v19.12c4.21-6.15,8.98-11.98,13.75-17.8v-18.91c-4.38,6.02-9.12,11.78-13.75,17.59Z"/>
          <path class="cls-5" d="M98.85,213.3c1.41,4.61,3.01,9.16,4.55,13.75h12.43c-1.49-4.58-3.11-9.15-4.61-13.75h-12.37Z"/>
          <path class="cls-5" d="M58.32,213.3c-6.94,5.11-14.26,9.72-21.87,13.75h32.13c3.29-4.55,6.48-9.15,9.64-13.75h-19.89Z"/>
          <path class="cls-5" d="M150.56,27.55c1.76,4.27,4.52,8.01,8.01,10.93,2.07-4.49,4.14-8.97,6.21-13.46-1.66-2.39-2.63-5.29-2.65-8.44,0-.04,0-.07,0-.11,0-2.63-1.48-4.92-3.66-6.07-.96,2.07-1.92,4.15-2.87,6.22-1.68,3.64-3.36,7.28-5.04,10.92Z"/>
          <path class="cls-5" d="M18.8,145.37c-1.32-.37-2.83-.2-4.38.79-3.06,1.98-6.19,3.85-9.38,5.63v14.77c4.58-3.01,9.17-6.03,13.75-9.04v-12.15Z"/>
          <path class="cls-5" d="M78.85,9.61h-14.03c-2.89,4.57-5.76,9.16-8.62,13.75h13.95c2.87-4.6,5.76-9.19,8.7-13.75Z"/>
          <path class="cls-5" d="M96.58,23.36h11.56c-.39-4.59-.48-9.18.04-13.75h-11.85c-.36,4.6-.19,9.18.25,13.75Z"/>
          <path class="cls-5" d="M18.8,96.69v-18.37c-1.97,2.45-3.97,4.86-6.03,7.24-2.54,2.94-5.12,5.84-7.72,8.72v17.66c4.17-4.59,8.36-9.19,12.51-13.84.42-.47.83-.95,1.24-1.42Z"/>
          <path class="cls-5" d="M26.4,195.42c-2.8,3.72-5.63,7.41-8.48,11.08,3.79,1.67,6.76,4.87,8.13,8.81,3.08-3.94,6.13-7.9,9.15-11.89-2.34-3.24-5.33-5.97-8.79-8Z"/>
        </g>
      </g>
    </g>
  </g>
</svg>