<?xml version="1.0" encoding="UTF-8"?>
<svg id="Layer_1" data-name="Layer 1" xmlns="http://www.w3.org/2000/svg" viewBox="0 0 242.56 343.05">
  <defs>
    <style>
      .cls-1 {
        fill: #35393b;
      }

      .cls-2 {
        fill: #525e61;
      }

      .cls-3 {
        fill: #0f0d25;
      }

      .cls-4 {
        fill: #5f6d70;
      }

      .cls-5 {
        fill: #fff;
      }

      .cls-6 {
        fill: #12204c;
      }

      .cls-7 {
        fill: #482d7a;
      }

      .cls-8 {
        fill: none;
      }

      .cls-9 {
        fill: #1f3863;
      }

      .cls-10 {
        fill: #a5d5d4;
      }

      .cls-11 {
        fill: #212426;
      }

      .cls-12 {
        fill: #3a6fa5;
      }

      .cls-13 {
        fill: #64c3bc;
      }

      .cls-14 {
        fill: #374447;
      }

      .cls-15 {
        fill: #b9c6c9;
      }

      .cls-16 {
        fill: #1b376e;
      }

      .cls-17 {
        fill: #a9a9a9;
      }

      .cls-18 {
        fill: #172547;
      }

      .cls-19 {
        fill: #141f41;
      }

      .cls-20 {
        fill: #737d80;
      }

      .cls-21 {
        fill: #172c4f;
      }
    </style>
  </defs>
  <g id="_Ñëîé_1" data-name="Ñëîé_1">
    <polygon class="cls-17" points="-568.11 -112.8 282.29 -112.8 282.29 454.13 -568.11 454.13 -568.11 -112.8"/>
    <polygon class="cls-13" points="0 .57 242.56 .57 242.56 343.62 0 343.62 0 .57"/>
    <g id="_1710558144" data-name=" 1710558144">
      <polygon class="cls-10" points="121.32 172.1 212.66 182.29 228.73 184.78 212.58 183.45 121.32 172.1"/>
      <polygon class="cls-10" points="121.32 172.1 211.63 193.21 227.52 197.37 211.54 193.94 121.32 172.1"/>
      <polygon class="cls-10" points="121.32 172.11 209.98 203.56 225.5 209.77 209.76 204.68 121.32 172.11"/>
      <polygon class="cls-10" points="121.32 172.11 207.56 214.07 222.67 221.88 207.37 214.76 121.32 172.11"/>
      <polygon class="cls-10" points="121.32 172.11 204.58 223.86 219.06 233.61 204.21 224.91 121.32 172.11"/>
      <polygon class="cls-10" points="121.31 172.12 200.83 233.64 214.7 244.86 200.56 234.27 121.31 172.12"/>
      <polygon class="cls-10" points="121.31 172.12 196.64 242.57 209.64 255.57 196.14 243.53 121.31 172.12"/>
      <polygon class="cls-10" points="121.31 172.13 191.69 251.33 203.91 265.64 191.35 251.89 121.31 172.13"/>
      <polygon class="cls-10" points="121.31 172.13 186.42 259.16 197.56 275 185.81 259.98 121.31 172.13"/>
      <polygon class="cls-10" points="121.3 172.13 180.43 266.63 190.62 283.58 180.01 267.1 121.3 172.13"/>
      <polygon class="cls-10" points="121.3 172.14 174.23 273.1 183.15 291.31 173.52 273.77 121.3 172.14"/>
      <polygon class="cls-10" points="121.3 172.14 167.36 279.06 175.22 298.14 166.89 279.42 121.3 172.14"/>
      <polygon class="cls-10" points="121.3 172.14 160.43 283.99 166.87 304.01 159.65 284.48 121.3 172.14"/>
      <polygon class="cls-10" points="121.29 172.14 152.9 288.25 158.18 308.88 152.39 288.5 121.29 172.14"/>
      <polygon class="cls-10" points="121.29 172.14 145.43 291.47 149.2 312.7 144.6 291.77 121.29 172.14"/>
      <polygon class="cls-10" points="121.29 172.14 137.47 293.87 140.01 315.43 136.94 294 121.29 172.14"/>
      <polygon class="cls-10" points="121.28 172.14 129.7 295.28 130.68 317.07 128.84 295.38 121.28 172.14"/>
      <polygon class="cls-10" points="121.28 172.14 121.55 295.81 121.28 317.63 121.01 295.81 121.28 172.14"/>
      <polygon class="cls-10" points="121.28 172.14 113.72 295.38 111.88 317.07 112.86 295.28 121.28 172.14"/>
      <polygon class="cls-10" points="121.27 172.14 105.62 294 102.55 315.43 105.09 293.87 121.27 172.14"/>
      <polygon class="cls-10" points="121.27 172.14 97.96 291.77 93.35 312.7 97.12 291.47 121.27 172.14"/>
      <polygon class="cls-10" points="121.27 172.14 90.16 288.5 84.38 308.88 89.66 288.25 121.27 172.14"/>
      <polygon class="cls-10" points="121.26 172.14 82.91 284.48 75.68 304.01 82.13 283.99 121.26 172.14"/>
      <polygon class="cls-10" points="121.26 172.14 75.66 279.42 67.34 298.14 75.19 279.06 121.26 172.14"/>
      <polygon class="cls-10" points="121.26 172.14 69.04 273.77 59.41 291.31 68.33 273.1 121.26 172.14"/>
      <polygon class="cls-10" points="121.25 172.13 62.55 267.1 51.94 283.58 62.13 266.63 121.25 172.13"/>
      <polygon class="cls-10" points="121.25 172.13 56.75 259.98 45 275 56.13 259.16 121.25 172.13"/>
      <polygon class="cls-10" points="121.25 172.13 51.21 251.89 38.65 265.64 50.86 251.33 121.25 172.13"/>
      <polygon class="cls-10" points="121.25 172.12 46.41 243.53 32.92 255.57 45.92 242.57 121.25 172.12"/>
      <polygon class="cls-10" points="121.24 172.12 42 234.27 27.86 244.86 41.73 233.64 121.24 172.12"/>
      <polygon class="cls-10" points="121.24 172.11 38.34 224.91 23.5 233.61 37.98 223.86 121.24 172.11"/>
      <polygon class="cls-10" points="121.24 172.11 35.19 214.76 19.89 221.88 35 214.07 121.24 172.11"/>
      <polygon class="cls-10" points="121.24 172.11 32.8 204.68 17.06 209.77 32.58 203.56 121.24 172.11"/>
      <polygon class="cls-10" points="121.24 172.1 31.02 193.94 15.04 197.37 30.92 193.21 121.24 172.1"/>
      <polygon class="cls-10" points="121.24 172.1 29.97 183.45 13.82 184.78 29.9 182.29 121.24 172.1"/>
      <polygon class="cls-10" points="121.24 172.09 29.58 172.46 13.41 172.09 29.58 171.72 121.24 172.09"/>
      <polygon class="cls-10" points="121.24 172.09 29.9 161.89 13.82 159.41 29.97 160.73 121.24 172.09"/>
      <polygon class="cls-10" points="121.24 172.08 30.92 150.97 15.04 146.82 31.02 150.25 121.24 172.08"/>
      <polygon class="cls-10" points="121.24 172.08 32.58 140.63 17.06 134.42 32.8 139.5 121.24 172.08"/>
      <polygon class="cls-10" points="121.24 172.07 35 130.11 19.89 122.3 35.19 129.42 121.24 172.07"/>
      <polygon class="cls-10" points="121.24 172.07 37.98 120.33 23.5 110.58 38.34 119.27 121.24 172.07"/>
      <polygon class="cls-10" points="121.24 172.06 41.73 110.55 27.86 99.32 42 109.91 121.24 172.06"/>
      <polygon class="cls-10" points="121.25 172.06 45.92 101.61 32.92 88.61 46.41 100.65 121.25 172.06"/>
      <polygon class="cls-10" points="121.25 172.06 50.86 92.85 38.65 78.54 51.21 92.29 121.25 172.06"/>
      <polygon class="cls-10" points="121.25 172.05 56.13 85.02 45 69.18 56.75 84.2 121.25 172.05"/>
      <polygon class="cls-10" points="121.25 172.05 62.13 77.56 51.94 60.6 62.55 77.09 121.25 172.05"/>
      <polygon class="cls-10" points="121.26 172.05 68.33 71.08 59.41 52.87 69.04 70.42 121.26 172.05"/>
      <polygon class="cls-10" points="121.26 172.04 75.19 65.13 67.34 46.04 75.66 64.76 121.26 172.04"/>
      <polygon class="cls-10" points="121.26 172.04 82.13 60.2 75.68 40.17 82.91 59.7 121.26 172.04"/>
      <polygon class="cls-10" points="121.27 172.04 89.66 55.93 84.38 35.3 90.16 55.68 121.27 172.04"/>
      <polygon class="cls-10" points="121.27 172.04 97.12 52.72 93.35 31.48 97.96 52.41 121.27 172.04"/>
      <polygon class="cls-10" points="121.27 172.04 105.09 50.31 102.55 28.75 105.62 50.18 121.27 172.04"/>
      <polygon class="cls-10" points="121.28 172.04 112.86 48.9 111.88 27.11 113.72 48.8 121.28 172.04"/>
      <polygon class="cls-10" points="121.28 172.04 121.01 48.37 121.28 26.55 121.55 48.37 121.28 172.04"/>
      <polygon class="cls-10" points="121.28 172.04 128.84 48.8 130.68 27.11 129.7 48.9 121.28 172.04"/>
      <polygon class="cls-10" points="121.29 172.04 136.94 50.18 140.01 28.75 137.47 50.31 121.29 172.04"/>
      <polygon class="cls-10" points="121.29 172.04 144.6 52.41 149.2 31.48 145.43 52.72 121.29 172.04"/>
      <polygon class="cls-10" points="121.29 172.04 152.39 55.68 158.18 35.3 152.9 55.93 121.29 172.04"/>
      <polygon class="cls-10" points="121.3 172.04 159.65 59.7 166.87 40.17 160.43 60.2 121.3 172.04"/>
      <polygon class="cls-10" points="121.3 172.04 166.89 64.76 175.22 46.04 167.36 65.13 121.3 172.04"/>
      <polygon class="cls-10" points="121.3 172.05 173.52 70.42 183.15 52.87 174.23 71.08 121.3 172.05"/>
      <polygon class="cls-10" points="121.3 172.05 180.01 77.09 190.62 60.6 180.43 77.56 121.3 172.05"/>
      <polygon class="cls-10" points="121.31 172.05 185.81 84.2 197.56 69.18 186.42 85.02 121.31 172.05"/>
      <polygon class="cls-10" points="121.31 172.06 191.35 92.29 203.91 78.54 191.69 92.85 121.31 172.06"/>
      <polygon class="cls-10" points="121.31 172.06 196.14 100.65 209.64 88.61 196.64 101.61 121.31 172.06"/>
      <polygon class="cls-10" points="121.31 172.06 200.56 109.91 214.7 99.32 200.83 110.55 121.31 172.06"/>
      <polygon class="cls-10" points="121.32 172.07 204.21 119.27 219.06 110.58 204.58 120.33 121.32 172.07"/>
      <polygon class="cls-10" points="121.32 172.07 207.37 129.42 222.67 122.3 207.56 130.11 121.32 172.07"/>
      <polygon class="cls-10" points="121.32 172.08 209.76 139.5 225.5 134.42 209.98 140.63 121.32 172.08"/>
      <polygon class="cls-10" points="121.32 172.08 211.54 150.25 227.52 146.82 211.63 150.97 121.32 172.08"/>
      <polygon class="cls-10" points="121.32 172.09 212.58 160.73 228.73 159.41 212.66 161.89 121.32 172.09"/>
      <polygon class="cls-10" points="121.32 172.09 212.98 171.72 229.15 172.09 212.98 172.46 121.32 172.09"/>
    </g>
    <path class="cls-7" d="M0,.57h242.56v343.05H0V.57h0ZM38.93,13.2c0,15.24-12.47,27.7-27.7,27.7v264.91c15.24,0,27.7,12.47,27.7,27.7h163.91c0-15.24,12.47-27.7,27.7-27.7V40.91c-15.24,0-27.7-12.47-27.7-27.7H38.93Z"/>
    <path class="cls-10" d="M42.39,17.65h157.58v.58c0,7.14,2.92,13.63,7.62,18.33,4.71,4.71,11.2,7.63,18.33,7.63h.58v258.34h-.58c-7.14,0-13.63,2.92-18.33,7.63-4.71,4.71-7.62,11.19-7.62,18.33v.58H41.81v-.58c0-7.14-2.92-13.63-7.63-18.33s-11.19-7.63-18.33-7.63h-.58V44.19h.58c7.14,0,13.63-2.92,18.33-7.63s7.63-11.19,7.63-18.33v-.58h.58ZM198.81,18.81H42.96c-.15,7.23-3.17,13.79-7.96,18.57-4.79,4.79-11.34,7.8-18.57,7.96v256.05c7.23.15,13.78,3.17,18.57,7.96,4.79,4.79,7.8,11.34,7.96,18.57h155.86c.15-7.23,3.17-13.79,7.96-18.57,4.79-4.79,11.34-7.8,18.57-7.96V45.34c-7.23-.15-13.78-3.17-18.57-7.96-4.79-4.79-7.8-11.34-7.96-18.57Z"/>
    <path class="cls-10" d="M40.85,9.49v1.69h-2.55c-.03.89-.09,1.8-.2,2.68l-1.68-.22c.14-1.07.2-2.2.2-3.28h.85s0-.88,0-.88h3.39ZM36.17,15.27c-.2,1.08-.46,2.14-.79,3.18l1.61.52c.35-1.1.63-2.25.84-3.39l-1.67-.31ZM34.84,20.01c-.38,1.02-.85,2.03-1.35,2.99l1.5.79c.54-1.02,1.03-2.1,1.44-3.18l-1.58-.6ZM32.68,24.43c-.57.94-1.19,1.84-1.87,2.7l1.33,1.05c.72-.92,1.38-1.87,1.98-2.87l-1.45-.88ZM29.76,28.39c-.72.82-1.5,1.6-2.32,2.33l1.12,1.27c.87-.78,1.69-1.6,2.46-2.47l-1.27-1.12h0ZM26.19,31.78c-.86.68-1.76,1.31-2.69,1.88l.88,1.45c.99-.61,1.95-1.28,2.86-2l-1.05-1.33h0ZM22.07,34.48c-.97.51-1.96.97-2.98,1.37l.6,1.58c1.08-.41,2.15-.91,3.17-1.45l-.79-1.5h0ZM17.54,36.4c-1.05.33-2.09.6-3.18.81l.31,1.66c1.16-.22,2.26-.51,3.38-.86l-.52-1.61ZM12.74,37.46c-1.1.14-2.17.21-3.28.22v1.69c1.18-.01,2.32-.09,3.49-.23l-.2-1.68h0ZM8.41,40.03h1.69v3.39h-1.69v-3.39ZM8.41,45.11h1.69v3.39h-1.69v-3.39ZM8.41,50.19h1.69v3.39h-1.69v-3.39ZM8.41,55.27h1.69v3.39h-1.69v-3.39ZM8.41,60.35h1.69v3.39h-1.69v-3.39ZM8.41,65.43h1.69v3.39h-1.69v-3.39ZM8.41,70.51h1.69v3.39h-1.69v-3.39ZM8.41,75.59h1.69v3.39h-1.69v-3.39ZM8.41,80.67h1.69v3.39h-1.69v-3.39ZM8.41,85.76h1.69v3.39h-1.69v-3.39ZM8.41,90.84h1.69v3.39h-1.69v-3.39ZM8.41,95.92h1.69v3.39h-1.69v-3.39ZM8.41,101h1.69v3.39h-1.69v-3.39ZM8.41,106.08h1.69v3.39h-1.69v-3.39ZM8.41,111.16h1.69v3.39h-1.69v-3.39ZM8.41,116.24h1.69v3.39h-1.69v-3.39ZM8.41,121.32h1.69v3.39h-1.69v-3.39ZM8.41,126.4h1.69v3.39h-1.69v-3.39ZM8.41,131.49h1.69v3.39h-1.69v-3.39ZM8.41,136.57h1.69v3.39h-1.69v-3.39ZM8.41,141.65h1.69v3.39h-1.69v-3.39ZM8.41,146.73h1.69v3.39h-1.69v-3.39ZM8.41,151.81h1.69v3.39h-1.69v-3.39ZM8.41,156.89h1.69v3.39h-1.69v-3.39ZM8.41,161.97h1.69v3.39h-1.69v-3.39ZM8.41,167.05h1.69v3.39h-1.69v-3.39ZM8.41,172.13h1.69v3.39h-1.69v-3.39ZM8.41,177.21h1.69v3.39h-1.69v-3.39ZM8.41,182.3h1.69v3.39h-1.69v-3.39ZM8.41,187.38h1.69v3.39h-1.69v-3.39ZM8.41,192.46h1.69v3.39h-1.69v-3.39ZM8.41,197.54h1.69v3.39h-1.69v-3.39ZM8.41,202.62h1.69v3.39h-1.69v-3.39ZM8.41,207.7h1.69v3.39h-1.69v-3.39ZM8.41,212.78h1.69v3.39h-1.69v-3.39ZM8.41,217.86h1.69v3.39h-1.69v-3.39ZM8.41,222.94h1.69v3.39h-1.69v-3.39ZM8.41,228.02h1.69v3.39h-1.69v-3.39ZM8.41,233.1h1.69v3.39h-1.69v-3.39ZM8.41,238.19h1.69v3.39h-1.69v-3.39ZM8.41,243.27h1.69v3.39h-1.69v-3.39ZM8.41,248.35h1.69v3.39h-1.69v-3.39ZM8.41,253.43h1.69v3.39h-1.69v-3.39ZM8.41,258.51h1.69v3.39h-1.69v-3.39ZM8.41,263.59h1.69v3.39h-1.69v-3.39ZM8.41,268.67h1.69v3.39h-1.69v-3.39ZM8.41,273.75h1.69v3.39h-1.69v-3.39ZM8.41,278.83h1.69v3.39h-1.69v-3.39ZM8.41,283.92h1.69v3.39h-1.69v-3.39ZM8.41,289h1.69v3.39h-1.69v-3.39ZM8.41,294.08h1.69v3.39h-1.69v-3.39ZM8.41,299.16h1.69v3.39h-1.69v-3.39ZM8.41,304.24h1.69v3.39h-1.69v-3.39ZM10.35,309.06c1.09.04,2.19.15,3.27.33l.28-1.67c-1.15-.19-2.31-.3-3.47-.35l-.08,1.69ZM15.23,309.7c1.05.23,2.14.55,3.15.91l.58-1.59c-1.09-.39-2.23-.72-3.35-.97l-.37,1.65ZM19.91,311.21c.94.4,2.08.93,2.94,1.47l.86-1.46c-.99-.58-2.06-1.11-3.12-1.56l-.67,1.55ZM24.25,313.54c.92.61,1.79,1.26,2.63,1.97l1.09-1.29c-.9-.75-1.81-1.44-2.79-2.09l-.94,1.41h0ZM28.1,316.61c.79.75,1.54,1.57,2.24,2.4l1.31-1.08c-.74-.89-1.54-1.76-2.38-2.55l-1.17,1.23ZM31.35,320.31c.65.89,1.24,1.8,1.78,2.76l1.48-.83c-.57-1.02-1.2-1.99-1.89-2.93l-1.37,1ZM33.89,324.53c.48.98.9,2,1.25,3.03l1.6-.54c-.38-1.1-.82-2.18-1.33-3.23l-1.52.74ZM35.63,329.13c.29,1.06.52,2.12.68,3.21l1.68-.25c-.17-1.15-.42-2.28-.73-3.41l-1.63.45ZM36.51,333.97c.1,1.11.11,2.15.11,3.27h1.73v-1.69h-.05c-.02-.58-.05-1.15-.1-1.72l-1.69.14h0ZM40.04,337.24v-1.69h3.39v1.69h-3.39ZM45.12,337.24v-1.69h3.39v1.69h-3.39ZM50.21,337.24v-1.69h3.39v1.69h-3.39ZM55.29,337.24v-1.69h3.39v1.69h-3.39ZM60.37,337.24v-1.69h3.39v1.69h-3.39ZM65.45,337.24v-1.69h3.39v1.69h-3.39ZM70.53,337.24v-1.69h3.39v1.69h-3.39ZM75.61,337.24v-1.69h3.39v1.69h-3.39ZM80.69,337.24v-1.69h3.39v1.69h-3.39ZM85.77,337.24v-1.69h3.39v1.69h-3.39ZM90.85,337.24v-1.69h3.39v1.69h-3.39ZM95.94,337.24v-1.69h3.39v1.69h-3.39ZM101.02,337.24v-1.69h3.39v1.69h-3.39ZM106.1,337.24v-1.69h3.39v1.69h-3.39ZM111.18,337.24v-1.69h3.39v1.69h-3.39ZM116.26,337.24v-1.69h3.39v1.69h-3.39ZM121.34,337.24v-1.69h3.39v1.69h-3.39ZM126.42,337.24v-1.69h3.39v1.69h-3.39ZM131.5,337.24v-1.69h3.39v1.69h-3.39ZM136.58,337.24v-1.69h3.39v1.69h-3.39ZM141.66,337.24v-1.69h3.39v1.69h-3.39ZM146.75,337.24v-1.69h3.39v1.69h-3.39ZM151.83,337.24v-1.69h3.39v1.69h-3.39ZM156.91,337.24v-1.69h3.39v1.69h-3.39ZM161.99,337.24v-1.69h3.39v1.69h-3.39ZM167.07,337.24v-1.69h3.39v1.69h-3.39ZM172.15,337.24v-1.69h3.39v1.69h-3.39ZM177.23,337.24v-1.69h3.39v1.69h-3.39ZM182.31,337.24v-1.69h3.39v1.69h-3.39ZM187.39,337.24v-1.69h3.39v1.69h-3.39ZM192.47,337.24v-1.69h3.39v1.69h-3.39ZM197.56,337.24v-1.69h3.39v1.69h-3.39ZM202.64,337.24v-1.69h.84c0-.31.02-.61.04-.92l1.69.11c-.05.84-.05,1.66-.05,2.51h-2.52ZM205.36,333.1c.1-1.03.34-2.22.59-3.22l-1.64-.41c-.27,1.08-.52,2.33-.63,3.43l1.68.2ZM206.39,328.29c.31-1.03.73-2.09,1.17-3.07l-1.54-.7c-.47,1.04-.91,2.17-1.24,3.26l1.62.51ZM208.28,323.74c.51-.97,1.08-1.91,1.7-2.81l-1.39-.97c-.66.96-1.27,1.96-1.81,2.98l1.5.79ZM210.95,319.61c.68-.86,1.4-1.69,2.17-2.46l-1.2-1.2c-.82.83-1.59,1.7-2.31,2.61l1.33,1.05h0ZM214.31,316.01c.82-.73,1.68-1.41,2.57-2.04l-.97-1.39c-.95.67-1.86,1.39-2.73,2.17l1.12,1.27h0ZM218.26,313.07c.93-.57,1.9-1.1,2.89-1.55l-.7-1.54c-1.05.48-2.09,1.04-3.08,1.65l.88,1.45h0ZM222.67,310.88c1.03-.4,2.06-.73,3.13-1l-.41-1.64c-1.13.29-2.23.64-3.32,1.06l.6,1.58h0ZM227.4,309.52c1.08-.2,2.16-.35,3.26-.42l-.11-1.69c-1.17.08-2.31.23-3.46.44l.31,1.67h0ZM232.3,309.04c.35,0,.71,0,1.06,0v-4.01h-1.69v3.17l.63.63v.22h0ZM233.36,303.33h-1.69v-3.39h1.69v3.39ZM233.36,298.25h-1.69v-3.39h1.69v3.39ZM233.36,293.17h-1.69v-3.39h1.69v3.39ZM233.36,288.09h-1.69v-3.39h1.69v3.39ZM233.36,283.01h-1.69v-3.39h1.69v3.39ZM233.36,277.93h-1.69v-3.39h1.69v3.39ZM233.36,272.84h-1.69v-3.39h1.69v3.39ZM233.36,267.76h-1.69v-3.39h1.69v3.39ZM233.36,262.68h-1.69v-3.39h1.69v3.39ZM233.36,257.6h-1.69v-3.39h1.69v3.39ZM233.36,252.52h-1.69v-3.39h1.69v3.39ZM233.36,247.44h-1.69v-3.39h1.69v3.39ZM233.36,242.36h-1.69v-3.39h1.69v3.39ZM233.36,237.28h-1.69v-3.39h1.69v3.39ZM233.36,232.2h-1.69v-3.39h1.69v3.39ZM233.36,227.12h-1.69v-3.39h1.69v3.39ZM233.36,222.04h-1.69v-3.39h1.69v3.39ZM233.36,216.95h-1.69v-3.39h1.69v3.39ZM233.36,211.87h-1.69v-3.39h1.69v3.39ZM233.36,206.79h-1.69v-3.39h1.69v3.39ZM233.36,201.71h-1.69v-3.39h1.69v3.39ZM233.36,196.63h-1.69v-3.39h1.69v3.39ZM233.36,191.55h-1.69v-3.39h1.69v3.39ZM233.36,186.47h-1.69v-3.39h1.69v3.39ZM233.36,181.39h-1.69v-3.39h1.69v3.39ZM233.36,176.31h-1.69v-3.39h1.69v3.39ZM233.36,171.22h-1.69v-3.39h1.69v3.39ZM233.36,166.14h-1.69v-3.39h1.69v3.39ZM233.36,161.06h-1.69v-3.39h1.69v3.39ZM233.36,155.98h-1.69v-3.39h1.69v3.39ZM233.36,150.9h-1.69v-3.39h1.69v3.39ZM233.36,145.82h-1.69v-3.39h1.69v3.39ZM233.36,140.74h-1.69v-3.39h1.69v3.39ZM233.36,135.66h-1.69v-3.39h1.69v3.39ZM233.36,130.58h-1.69v-3.39h1.69v3.39ZM233.36,125.5h-1.69v-3.39h1.69v3.39ZM233.36,120.41h-1.69v-3.39h1.69v3.39ZM233.36,115.33h-1.69v-3.39h1.69v3.39ZM233.36,110.25h-1.69v-3.39h1.69v3.39ZM233.36,105.17h-1.69v-3.39h1.69v3.39ZM233.36,100.09h-1.69v-3.39h1.69v3.39ZM233.36,95.01h-1.69v-3.39h1.69v3.39ZM233.36,89.93h-1.69v-3.39h1.69v3.39ZM233.36,84.85h-1.69v-3.39h1.69v3.39ZM233.36,79.77h-1.69v-3.39h1.69v3.39ZM233.36,74.69h-1.69v-3.39h1.69v3.39ZM233.36,69.6h-1.69v-3.39h1.69v3.39ZM233.36,64.52h-1.69v-3.39h1.69v3.39ZM233.36,59.44h-1.69v-3.39h1.69v3.39ZM233.36,54.36h-1.69v-3.39h1.69v3.39ZM233.36,49.28h-1.69v-3.39h1.69v3.39ZM233.36,44.2h-1.69v-3.39h1.69v3.39ZM233.36,39.12h-1.11l.26.26c-.97,0-1.92-.05-2.88-.14l.17-1.69c1.21.12,2.34.13,3.56.13v1.43ZM228.17,37.34c-1.08-.18-2.15-.41-3.2-.72l-.47,1.63c1.12.32,2.25.58,3.4.76l.28-1.67ZM223.41,36.12c-1.04-.37-2.04-.8-3.02-1.29h0s-.77,1.51-.77,1.51c1.06.52,2.1.97,3.21,1.37l.58-1.59h0ZM218.94,34.05c-.95-.54-1.87-1.15-2.74-1.81l-1.02,1.36c.93.69,1.9,1.34,2.91,1.92l.85-1.47ZM214.91,31.23c-.84-.71-1.63-1.46-2.38-2.26l-1.24,1.15c.79.85,1.63,1.65,2.52,2.4l1.09-1.29ZM211.44,27.73c-.7-.84-1.35-1.73-1.94-2.65l-1.42.92c.63.97,1.32,1.92,2.06,2.81l1.31-1.08ZM208.65,23.67c-.54-.95-1.02-1.94-1.44-2.95l-1.57.64c.44,1.07.95,2.12,1.53,3.14l1.48-.83ZM206.64,19.18c-.36-1.04-.65-2.09-.88-3.16l-1.66.35c.25,1.14.55,2.25.93,3.36l1.6-.54ZM205.46,14.41c-.16-1.08-.26-2.17-.29-3.27l-1.69.04c.04,1.17.14,2.32.31,3.47l1.68-.25ZM203.44,9.49v1.69h-3.39v-1.69h3.39ZM198.36,9.49v1.69h-3.39v-1.69h3.39ZM193.28,9.49v1.69h-3.39v-1.69h3.39ZM188.2,9.49v1.69h-3.39v-1.69h3.39ZM183.12,9.49v1.69h-3.39v-1.69h3.39ZM178.04,9.49v1.69h-3.39v-1.69h3.39ZM172.96,9.49v1.69h-3.39v-1.69h3.39ZM167.87,9.49v1.69h-3.39v-1.69h3.39ZM162.79,9.49v1.69h-3.39v-1.69h3.39ZM157.71,9.49v1.69h-3.39v-1.69h3.39ZM152.63,9.49v1.69h-3.39v-1.69h3.39ZM147.55,9.49v1.69h-3.39v-1.69h3.39ZM142.47,9.49v1.69h-3.39v-1.69h3.39ZM137.39,9.49v1.69h-3.39v-1.69h3.39ZM132.31,9.49v1.69h-3.39v-1.69h3.39ZM127.23,9.49v1.69h-3.39v-1.69h3.39ZM122.15,9.49v1.69h-3.39v-1.69h3.39ZM117.07,9.49v1.69h-3.39v-1.69h3.39ZM111.98,9.49v1.69h-3.39v-1.69h3.39ZM106.9,9.49v1.69h-3.39v-1.69h3.39ZM101.82,9.49v1.69h-3.39v-1.69h3.39ZM96.74,9.49v1.69h-3.39v-1.69h3.39ZM91.66,9.49v1.69h-3.39v-1.69h3.39ZM86.58,9.49v1.69h-3.39v-1.69h3.39ZM81.5,9.49v1.69h-3.39v-1.69h3.39ZM76.42,9.49v1.69h-3.39v-1.69h3.39ZM71.34,9.49v1.69h-3.39v-1.69h3.39ZM66.25,9.49v1.69h-3.39v-1.69h3.39ZM61.17,9.49v1.69h-3.39v-1.69h3.39ZM56.09,9.49v1.69h-3.39v-1.69h3.39ZM51.01,9.49v1.69h-3.39v-1.69h3.39ZM45.93,9.49v1.69h-3.39v-1.69h3.39Z"/>
    <g id="_1710543616" data-name=" 1710543616">
      <path class="cls-10" d="M19.72,11.4c-1.12-.39-2.61-.31-3.97.2-1.81.68-3.39,2.26-3.65,4.33-.45,3.64,3.86,6.96,6.75,5.97,2.88-1,3.88-5.88,1.6-7.37-2.29-1.49-5.82-.46-5.91,1.95-.09,2.41,2.56,2.84,3.55,1.31.99-1.52-1.11-2.06-1.4-1.71-.29.35-.32.65-.32.65,0,0-.15.09-.25-.3-.1-.39-.19-1.07.68-1.14.87-.07,1.98.05,2.32,1.43.19.75-.09,1.59-.56,2.21-.72.96-1.85,1.1-2.96.73-1.15-.39-1.83-1.34-2.14-2.64-.37-1.59.97-3.66,2.75-4.42,2.85-1.21,6.01.12,7.12,3.33,1.15,3.35-2.1,8.38-5.98,8.19-3.01-.15-5.67-2.25-6.73-5.19-1.62-4.45,1.58-7.84,4.76-8.71,1.91-.52,4.17-.14,4.35,1.18h0Z"/>
      <path class="cls-10" d="M21.76,332.78c-1.12.39-2.61.31-3.97-.2-1.81-.68-3.39-2.26-3.65-4.34-.45-3.64,3.86-6.96,6.75-5.97,2.88,1,3.88,5.88,1.6,7.37-2.29,1.49-5.82.46-5.91-1.95-.09-2.41,2.56-2.84,3.55-1.31.99,1.52-1.11,2.06-1.4,1.71-.29-.35-.32-.65-.32-.65,0,0-.15-.09-.25.3-.1.39-.19,1.07.68,1.14.87.07,1.98-.05,2.33-1.43.19-.75-.09-1.59-.56-2.21-.72-.96-1.85-1.1-2.96-.73-1.15.39-1.83,1.34-2.14,2.64-.36,1.59.97,3.66,2.76,4.42,2.85,1.21,6.01-.12,7.12-3.33,1.15-3.35-2.1-8.38-5.98-8.19-3.01.15-5.66,2.25-6.73,5.19-1.62,4.45,1.58,7.84,4.76,8.71,1.9.52,4.17.14,4.35-1.18h0Z"/>
      <path class="cls-10" d="M220.79,11.4c1.12-.39,2.61-.31,3.97.2,1.81.68,3.39,2.26,3.65,4.33.45,3.64-3.86,6.96-6.75,5.97-2.88-1-3.88-5.88-1.6-7.37,2.29-1.49,5.82-.46,5.91,1.95.09,2.41-2.56,2.84-3.55,1.31-.99-1.52,1.11-2.06,1.4-1.71.29.35.32.65.32.65,0,0,.15.09.25-.3.1-.39.19-1.07-.68-1.14-.87-.07-1.98.05-2.32,1.43-.19.75.09,1.59.56,2.21.72.96,1.85,1.1,2.97.73,1.15-.39,1.83-1.34,2.13-2.64.37-1.59-.97-3.66-2.75-4.42-2.85-1.21-6.01.12-7.12,3.33-1.15,3.35,2.1,8.38,5.98,8.19,3.01-.15,5.67-2.25,6.73-5.19,1.62-4.45-1.58-7.84-4.76-8.71-1.91-.52-4.17-.14-4.35,1.18h0Z"/>
      <path class="cls-10" d="M222.83,332.78c1.12.39,2.61.31,3.97-.2,1.81-.68,3.39-2.26,3.65-4.34.45-3.64-3.86-6.96-6.75-5.97-2.88,1-3.88,5.88-1.6,7.37,2.29,1.49,5.82.46,5.91-1.95.09-2.41-2.56-2.84-3.55-1.31-.99,1.52,1.11,2.06,1.4,1.71.29-.35.32-.65.32-.65,0,0,.15-.09.25.3.1.39.19,1.07-.68,1.14-.87.07-1.98-.05-2.33-1.43-.19-.75.09-1.59.56-2.21.72-.96,1.85-1.1,2.97-.73,1.15.39,1.83,1.34,2.14,2.64.36,1.59-.97,3.66-2.76,4.42-2.85,1.21-6.01-.12-7.12-3.33-1.15-3.35,2.1-8.38,5.98-8.19,3.01.15,5.67,2.25,6.73,5.19,1.62,4.45-1.58,7.84-4.76,8.71-1.9.52-4.17.14-4.35-1.18h0Z"/>
    </g>
    <path class="cls-19" d="M120.89,247.78c18.8,0,34.14-1.03,34.14-2.29s-15.34-2.29-34.14-2.29-34.14,1.03-34.14,2.29,15.34,2.29,34.14,2.29Z"/>
    <g id="_1453519184" data-name=" 1453519184">
      <polygon class="cls-21" points="114.7 70.77 35.55 145.49 37.92 153.71 112.64 236.66 119.15 237.69 132.16 233.11 202.47 157.14 203.5 150.97 124.98 69.4 114.7 70.77"/>
      <polygon class="cls-12" points="116.31 72.51 101.26 86.72 105 97.65 139.49 85.33 125.92 71.23 116.31 72.51"/>
      <path class="cls-18" d="M121.58,69.85l-6.84.91c-4.34,10.81-11,26.76-11,26.76l37.4,26.58-19.57-54.25h0Z"/>
      <polygon class="cls-9" points="94.4 92.82 84.16 102.49 106.84 169.43 114.28 103.99 94.4 92.82"/>
      <polygon class="cls-12" points="111.77 126.08 114.28 103.99 114.02 103.83 100.86 115.76 111.77 126.08"/>
      <polygon class="cls-6" points="119.84 70.08 105.99 154.54 203.5 150.97 124.98 69.4 119.84 70.08"/>
      <polygon class="cls-21" points="169.36 115.51 124.98 69.4 120.6 69.98 150.26 125.82 169.36 115.51"/>
      <polygon class="cls-18" points="106.22 154.54 203.5 150.97 168.09 114.19 158.91 142.11 106.22 154.54"/>
      <polygon class="cls-21" points="105.99 154.54 106.33 166.6 37.92 153.71 35.55 145.49 105.99 154.54"/>
      <polygon class="cls-21" points="202.47 157.14 106.33 166.6 105.99 154.54 203.5 150.97 202.47 157.14"/>
      <polygon class="cls-19" points="119.15 237.69 106.33 166.6 37.92 153.71 112.64 236.66 119.15 237.69"/>
      <path class="cls-3" d="M111.06,192.85l-3.53-19.59-5.81-7.53-56.14-10.58c21.44,12.27,47.6,27.36,65.49,37.7h0Z"/>
      <path class="cls-12" d="M79.99,106.72l-37.67,36.38s56.42,8.46,56.29,9.47c-.13,1.01-18.62-45.85-18.62-45.85h0Z"/>
      <path class="cls-16" d="M79.99,106.72l-.56.54-11.16,39.84c14.79,2.34,30.4,4.94,30.33,5.47-.13,1.01-18.62-45.85-18.62-45.85h0Z"/>
      <path class="cls-12" d="M68.87,147.2c14.61,2.31,29.8,4.85,29.74,5.37-.07.52-4.98-11.6-9.74-23.51l-19.99,18.14Z"/>
      <polygon class="cls-3" points="119.15 237.69 132.16 233.11 202.47 157.14 105.82 166.5 119.15 237.69"/>
      <polygon class="cls-21" points="188.96 162.17 129.35 230.64 181.83 162.9 188.96 162.17"/>
      <path class="cls-16" d="M115.77,191.39l25.33,10.53c2.15.9-18.73,31.96-18.73,31.96l-6.61-42.49h0Z"/>
      <path class="cls-19" d="M175.92,161.72c-2.69.5-17.8,8.96-35.36,15.12-13.23,4.64-24.5,8.65-24.5,8.65l30.69,12.69,29.16-36.46Z"/>
      <path class="cls-3" d="M40.1,151.98s2.16,4.76,2.36,3.7c.2-1.07,8.86,3.99,8.86,3.99l2.81-1.33,7.09,6.21,3.25-2.96,16.55,2.07,8.42,9.91-.3-6.51,8.42.59,3.1,5.47s8.1,11.16,8.24,9.86c.14-1.3-3.09-16.48-3.09-16.48l-65.72-14.53h0Z"/>
      <path class="cls-13" d="M99.89,152.52c.15-.88-57.24-9.24-57.24-9.24,0,0,27.74-1.24,30.2-.62,2.46.61,27.03,9.86,27.03,9.86Z"/>
      <path class="cls-13" d="M75.78,123.29c.37-.3,8.26-6.33,8.26-6.33l-4.05-10.24-4.21,16.57h0Z"/>
      <polygon class="cls-13" points="113.48 137.3 116.58 143.07 119.68 134.64 113.48 137.3"/>
      <path class="cls-12" d="M124.57,76.57c.89.3,67.46,76.46,67.46,76.46l5.93-3.2-70.49-74.66-2.89,1.4h0Z"/>
      <polygon class="cls-21" points="53.39 167.51 110.12 229.77 98.01 192.94 53.39 167.51"/>
      <polygon class="cls-12" points="72.67 185.89 105.4 224.71 105.1 222.3 99.59 197.75 95.55 194.01 72.67 185.89"/>
      <path class="cls-9" d="M106.84,169.43l11.7,64.96s-17.95-68.58-18.01-67.63c-.07.95,6.32,2.67,6.32,2.67h0Z"/>
      <polygon class="cls-3" points="125.71 80.26 180.46 150.94 196.18 151.23 123.51 73.15 125.71 80.26"/>
      <polygon class="cls-13" points="38.57 147.81 39.36 149.62 103.94 164.77 200.69 157.29 200.6 154.77 104.81 161.43 38.57 147.81"/>
      <polygon class="cls-12" points="103.71 164.72 103.94 164.77 200.69 157.29 200.6 154.77 104.81 161.43 104.34 161.34 103.71 164.72"/>
      <path class="cls-13" d="M103.77,153.01c-.16,1.23,14.48-80.76,14.48-80.76l1.2.2-13.23,82.08-2.45-1.52h0Z"/>
      <polygon class="cls-13" points="63.5 138.78 67.65 133.71 58.67 134.05 63.5 138.78"/>
      <polygon class="cls-13" points="96.85 101 101 95.93 92.02 96.27 96.85 101"/>
      <path class="cls-9" d="M139.13,118.5s-23.48,30.12-23.07,31.87c.41,1.75,42.42-11.63,42.42-11.63l-15.08-25.83-4.27,5.59h0Z"/>
      <path class="cls-13" d="M106.73,216.9c-.75.25,7.09,17.3,7.09,17.3l4.72.19-2.65-10.1-9.16-7.39h0Z"/>
      <polygon class="cls-13" points="123.42 227.11 132.88 204.63 141.1 201.92 122.38 233.88 123.42 227.11"/>
      <polygon class="cls-5" points="117.27 71.52 117.95 73.74 120.17 74.42 117.95 75.11 117.27 77.33 116.59 75.11 114.37 74.42 116.59 73.74 117.27 71.52"/>
      <polygon class="cls-5" points="45.04 140.49 47 143.1 54.51 145.14 46.75 144.44 44.02 146.2 42.06 143.59 34.55 141.55 42.31 142.25 45.04 140.49"/>
      <path class="cls-13" d="M74.18,137.46c-1.05,1.44,18.8,2.52,18.47,1.71-.33-.81,7.16-36.96,7.16-36.96l-25.63,35.26Z"/>
    </g>
    <g id="_1708770224" data-name=" 1708770224">
      <polygon class="cls-11" points="46.24 259.86 71.89 259.86 82.28 262.53 85.41 259.86 100.03 259.86 101.2 262.16 102.49 259.86 192.63 259.86 192.63 292.87 156.28 292.87 154.43 295.22 153.05 292.87 46.24 292.87 46.24 259.86"/>
      <polygon class="cls-1" points="192.43 265.52 192.63 292.87 156.28 292.87 154.43 295.22 153.05 292.87 65.62 296.37 50.12 292.87 51.85 282.4 50.46 279.23 49.92 265.52 77.95 265.52 88.34 268.19 91.47 265.52 106.09 265.52 107.26 267.82 108.55 265.52 127.24 265.52 132.9 267.38 137.1 265.52 160.54 265.52 165.34 267.52 171.2 265.52 192.43 265.52"/>
      <g>
        <path class="cls-8" d="M44.58,296.37v-11.32l1.37,1.2-1.37-3.83v-16.04l.62-.11s-.26-.25-.62-.62v-6.09c.48-.68.95-1.33,1.29-1.8h2.98v3.29l-2.09,1.31,2.09.81v4.88l-1.15,5.95,1.15,7.82v10.52h14l2.4,1.58,9.22-1.58h12.86l.2,1.46,1.59-1.46h9.7l.54,2.64,4.25-2.64h15.36l.3,1.77,1.25-1.77h32.94l.97,2.89,1.99-2.89h36.21v-6.68l1.79-.11-1.79-2.54v-16.93l2.44-3.16-2.44-1.49v-3.66h4.83l-1.03,5.09,1.5,3.51v12.78l-3.74,1.27,3.74.55v15.41h-16.07l-1.48-.9-11.83-.37-1.65,1.27h-22.69l-.93-.65-4.98-2.49-19.29,3.14h-9.13l-1.82-1.89-3.37,1.89h-15.68l-1.37-1.4-2.74,1.4h-26.32l-3.18-2.77-.42,2.77h-10.41Z"/>
        <path class="cls-2" d="M43.58,297.07v-12.89l2.37,2.08-2.37-6.63v-13.07l1.62-.28s-.86-.84-1.62-1.69v-3.57c.75-1.12,1.71-2.46,2.29-3.25h2.98v3.29l-2.09,1.31,2.09.81v4.88l-1.15,5.95,1.15,7.82v10.52h14l2.4,1.58,9.22-1.58h12.86l.2,1.46,1.59-1.46h9.7l.54,2.64,4.25-2.64h15.36l.3,1.77,1.25-1.77h32.94l.97,2.89,1.99-2.89h36.21v-6.68l1.79-.11-1.79-2.54v-16.93l2.44-3.16-2.44-1.49v-3.66h4.83l-1.03,5.09,2.49,5.85v10.1l-4.73,1.6,4.73.7v15.96h-15.92l-2.63-1.6-11.83-.37-2.56,1.97h-20.78l-1.93-1.35-4.98-.75-19.29,1.4-8.46.7-2.49-1.94-4.61,1.94h-13.91l-.53-.7-1.37-1.4-4.11,2.09h-24.15l-3.98-3.46-.53,3.46h-11.3Z"/>
        <path class="cls-4" d="M190.6,292.33l.71.77,2.64,1.84-.73-4.71,1.19-4.68-1.79.11v6.68h-2.03ZM194.42,285.54l-1.13-4.47.87-4.36-.68-3.61.06-4.05,1.49-1.18-1.68-.56s-.35-.42-.72-.91v16.59l1.79,2.54h0ZM192.63,261.43l1.47-1.88-.34-1.77h-1.13v3.66h0Z"/>
        <path class="cls-15" d="M48.18,292.68l6.38.62,6.66-.19,2.21.87,13.97-.5,8.03-.25,3.73,1.37,8.46-1.43h1.36s-.18-.85-.18-.85h-9.7l-1.59,1.46-.2-1.46h-12.86l-9.22,1.58-2.4-1.58h-14v-.2l-.66.55ZM102.15,293.23l7.18.08,9.93.79-.3-1.77h-15.36l-1.45.9ZM119.26,294.1l19.04-.87,14.25-.48,1.14.29-.24-.71h-32.94l-1.25,1.77h0ZM155.59,293.53l2.63.68,7.88-1.11,12.94.55,12.27-.55,1.32-.77h-36.21l-.82,1.2Z"/>
        <path class="cls-14" d="M48.85,257.77v3.29l-.71.45-.08-3.74h.79ZM50.01,292.33l-3.17,1.6,1.12-4.17.12-7.97-1.18-10.02,1.31-6.04-.06-2.84.69.27v4.88l-1.15,5.95,1.15,7.82v10.52h1.17Z"/>
        <path class="cls-14" d="M197.46,257.77l-.85,4.19v-4.19h.85ZM196.62,263.28l2.31,5.42v10.1l-2.31.78v-16.31h0ZM196.62,280.76l2.31.34v15.96h-2.31v-16.3Z"/>
        <path class="cls-4" d="M43.58,297.07v-12.89l2.18,1.92v10.98h-2.18ZM45.75,285.73l-2.18-6.1v-13.07l1.62-.28s-.86-.84-1.62-1.69v-3.57c.71-1.06,1.59-2.29,2.18-3.09v27.8Z"/>
        <path class="cls-4" d="M43.58,297.07v-1.91h11.59l-.29,1.91h-11.3ZM198.93,295.15v1.91h-15.92l-2.63-1.6-10-.32h14.96l5.97-2.05,2.64,1.84,4.97.21h0ZM168.48,295.15l-2.49,1.91h-20.78l-1.93-1.35-1.13-.57,11.63-1.85.65,1.91.78-1.13,1.74,1.07h6.85l2.3-2.05,2.37,2.05h0ZM126.48,295.15l-7.47,1.22-8.46.7-1.84-1.91,8.16-2.61-.37,2.61h9.98ZM106.85,295.15l-3.4,1.91h-13.91l-.53-.7-1.19-1.22h6.9l4.33-1.67.3,1.49,1.89-1.17,5.61,1.36h0ZM87.29,295.15l-3.75,1.91h-24.15l-2.2-1.91,15.5-.75,3.3-1.8,11.3,2.55h0Z"/>
        <path class="cls-15" d="M44.58,294.11c.31.19,1.18,1.37,1.18,1.37,0,0,1.06-4.54,1.06-4.79s-.59-3.77-.59-3.77l-1.65,7.19Z"/>
        <path class="cls-15" d="M45.01,281.69s.53,1.37.75.93c.21-.44,1.12-3.21,1-3.55-.12-.34-.71-1.81-.71-1.81l.39-6.35-.69-1.93-1.18,5.13.5,2.86-.06,4.7h0Z"/>
        <polygon class="cls-15" points="63.78 294.83 67.94 295.94 68.81 295.26 77 295.29 74.47 293.6 68.88 294.58 63.78 294.83"/>
        <polygon class="cls-15" points="91.27 295.15 95.64 295.88 97.27 294.17 95.34 293.57 91.27 295.15"/>
        <path class="cls-15" d="M116.17,294.96l1.25.51,3.77-.09s4.11-1.06,3.89-1.09c-.22-.03-7.53,0-7.53,0l-1.37.67Z"/>
        <polygon class="cls-15" points="148.07 294.96 152.52 295.51 152.56 293.5 148.07 294.96"/>
        <polygon class="cls-15" points="158.09 295.15 160.43 295.73 163.8 295.15 163.01 293.77 158 294.96 158.09 295.15"/>
        <path class="cls-15" d="M188.78,294.96l2.27,1.01,2.21-.28,2.3.19v-4.26s-.34-1.34-.53-1.18c-.19.16-1.7,4.07-1.7,4.07l-4.56.46Z"/>
        <path class="cls-15" d="M194.69,278.73l-1.31-2.02,1.56-7.47s.75,4.82.72,5.01c-.03.19-.96,4.48-.96,4.48h0Z"/>
        <path class="cls-15" d="M194.56,259.91l-.98-2.14h1.08c-.06,1.23-.1,2.14-.1,2.14Z"/>
        <path class="cls-15" d="M45.1,261.29c.02.11.37,1.7.37,1.7l.96-3.61-.51-.86-.82,2.77Z"/>
      </g>
      <g>
        <path class="cls-8" d="M44.63,271.22v-.32l1.37.1-1.37-3.56v-8.97h9.51l1.62,1.33,4.47-1.33h11.1l.35,1.2,10.58,2.86,4.51-4.07h12.62l1.79,3.69,2.07-3.69h18.42l2.04,1.45,10.95-1.45h18.47l.08,1.82,4.26-1.82h31.31l2.52,1.95-.13-1.95h6.79v9.73l-2.24,2.86.29.16h-3.35v-7.75h-14.29l-1.57-1.87-1.71,1.87h-26.39l-.84-3.12-.42,3.12h-31.11l-3.29-3.61.28,2.68.32.94h-38.03l-2.3-1.81-.38,1.81h-15.46c-.62-.82-1.44-1.94-1.59-2.24-.14-.29-.54,1.06-.85,2.24h-6.15v7.75h-4.27Z"/>
        <path class="cls-2" d="M43.63,271.22v-.4l2.36.18-2.36-6.16v-7.07h9.66l2.48,2.03,6.83-2.03h8.54l.56,1.9,10.58,2.86,5.29-4.76h3.55v.7l1.1-.7h6.86l2.12,4.39,2.47-4.39h17.05l3.01,2.15,10.95-1.45.17-.7h18.26l.11,2.52,5.89-2.52h28.78l3.42,2.65-.18-2.65h7.84v9.18l-1,1.25-2.24,2.86.29.16h-3.35v-7.75h-14.29l-1.57-1.87-1.71,1.87h-26.39l-.84-3.12-.42,3.12h-31.11l-3.29-3.61.28,2.68.32.94h-38.03l-2.3-1.81-.38,1.81h-15.46c-.62-.82-1.44-1.94-1.59-2.24-.14-.29-.54,1.06-.85,2.24h-6.15v7.75h-5.27Z"/>
        <polygon class="cls-4" points="193.62 271.22 192.68 271.22 192.68 264.08 193.78 263.33 193.62 271.22"/>
        <path class="cls-20" d="M192.63,263.47l.63-.67-8.71-1.06-3.3.75-2.99-1.18-14.56,1-11.58.5-3.49.27.11.4h26.39l1.71-1.87,1.57,1.87h14.23ZM147.5,263.16h0l-1.99-.89s-10.02-1.03-10.89-1.03-18.27,2.23-18.27,2.23h31.11l.04-.31ZM113.34,262.5l-1.99-.64-10.08,1.6h12.4l-.32-.94v-.03ZM101.27,263.47l-11.08-1.79-2.3-.12-.44,1.31-11.82.61h25.64ZM73.33,261.67l-9.59,1.2-4.67-1.06-3.21-.61s.03.02.04.04c.15.3.98,1.42,1.59,2.24h15.46l.38-1.81h0ZM55.84,261.19l-8.1.5,1.16,1.78h6.15c.27-1.05.62-2.23.79-2.28h0Z"/>
        <polygon class="cls-14" points="47.14 271.22 47.43 264.49 47.74 261.69 48.96 263.23 48.91 271.22 47.14 271.22"/>
        <polygon class="cls-14" points="196.67 257.77 198.98 257.77 198.98 266.95 197.98 268.2 196.67 269.88 196.67 257.77"/>
        <path class="cls-20" d="M43.63,259.86v-2.09h9.66l2.48,2.03,6.83-2.03h8.54l.56,1.9.7.19h-28.76ZM85.25,259.86l2.32-2.09h3.55v.7l1.1-.7h6.86l1.01,2.09h-14.84ZM102.49,259.86l1.17-2.09h17.05l2.93,2.09h-21.15ZM124.18,259.86l10.5-1.39.17-.7h18.26l.09,2.09h-29.03ZM154.24,259.86l4.87-2.09h28.78l2.7,2.09h-36.36ZM191.28,259.86l-.14-2.09h7.84v2.09h-7.7Z"/>
        <path class="cls-4" d="M45.81,271.22h-2.17v-.4l2.17.16v.23h0ZM45.81,270.51l-2.17-5.67v-7.07h2.17v12.74Z"/>
        <path class="cls-15" d="M193.94,271.22c.09-.37.14-.65.12-.71-.09-.19-.59-3.42-.59-3.42l.29-2.8h.76s-.15,6.93-.15,6.93h-.43Z"/>
        <polygon class="cls-15" points="160.54 261.11 165.27 262.91 169.82 263.04 169.74 261.89 160.54 261.11"/>
        <polygon class="cls-15" points="130.05 262.23 134.28 262.73 140.5 261.36 137.95 260.23 130.05 262.23"/>
        <polygon class="cls-15" points="117.85 260.98 119.9 262.23 123.57 261.79 119.53 260.15 117.85 260.98"/>
        <polygon class="cls-15" points="93.08 262.85 95.32 263.04 98.06 261.45 91.05 260.86 93.08 262.85"/>
        <polygon class="cls-15" points="186.12 262.35 189.3 262.63 189.83 260.8 186.65 260.42 186.12 262.35"/>
        <path class="cls-15" d="M58.92,262.43l1.2.47.56-.42,4.73.26s-1.42-1.68-1.62-1.65c-.2.03-4.87,1.34-4.87,1.34h0Z"/>
        <polygon class="cls-15" points="68.79 261.98 70.3 262.75 72.1 261.6 70.41 260.86 68.79 261.98"/>
        <path class="cls-15" d="M45.04,261.17c.19.06,4.37,2.3,4.37,2.3l-2.97-4.23-1.4,1.93Z"/>
      </g>
    </g>
    <polygon class="cls-13" points="80.22 283.06 74.01 283.23 73.98 280.88 78.23 280.94 78.29 276.82 74.23 276.85 74.29 274.61 79.61 274.58 79.72 270.13 70.2 270.32 69.13 271.05 69.02 287.52 80.05 287.6 80.22 283.06"/>
    <polygon id="_1" data-name="1" class="cls-13" points="99.56 270.18 94.24 270.24 94.27 275.78 90.15 270.16 85.28 270.63 85.39 287.24 90.35 287.32 90.46 277.49 94.19 282.17 94.3 287.43 99.45 287.32 99.56 270.18"/>
    <polygon id="_2" data-name="2" class="cls-13" points="116.72 283.06 110.5 283.23 110.47 280.88 114.73 280.94 114.79 276.82 110.73 276.85 110.78 274.61 116.1 274.58 116.21 270.13 106.7 270.32 105.63 271.05 105.52 287.52 116.55 287.6 116.72 283.06"/>
    <path id="_3" data-name="3" class="cls-13" d="M131.47,288.22l5.01-2.24-3.44-4.92,1.88-.95-.42-9.37-4.23-.73-8.4.5.2,17.25,5.46-.08-.25-5.4.92-.2,3.28,6.13h0ZM126.76,274.44l2.94-.06-.03,3.67-2.86.22-.06-3.84Z"/>
    <polygon id="_4" data-name="4" class="cls-13" points="140.62 273.43 141.2 287.77 153.41 287.46 153.94 277.8 148.9 277.94 149.02 282.36 146.33 282.5 146.33 275 152.99 274.92 152.99 270.05 143.3 270.21 140.62 273.43"/>
    <polygon id="_5" data-name="5" class="cls-13" points="163.23 287.94 168.27 287.88 168.3 281.61 172.61 278.72 173.54 270.46 167.91 270.27 167.6 275.9 166.03 276.93 164.46 275.87 164.13 270.16 158.53 270.46 159.42 278.7 163.26 281.33 163.23 287.94"/>
  </g>
</svg>