<?xml version="1.0" encoding="UTF-8"?>
<svg id="Layer_1" data-name="Layer 1" xmlns="http://www.w3.org/2000/svg" viewBox="0 0 242.56 343.05">
  <defs>
    <style>
      .cls-1 {
        fill: #35393b;
      }

      .cls-2 {
        fill: #f33943;
      }

      .cls-3 {
        fill: #525e61;
      }

      .cls-4 {
        fill: #dad7de;
      }

      .cls-5 {
        fill: #f23954;
      }

      .cls-6 {
        fill: #f3d6d5;
      }

      .cls-7 {
        fill: #f7874e;
      }

      .cls-8 {
        fill: #5f6d70;
      }

      .cls-9 {
        fill: #6342a1;
      }

      .cls-10 {
        fill: #fff;
      }

      .cls-11 {
        fill: #f77d55;
      }

      .cls-12 {
        fill: #cbbddc;
      }

      .cls-13 {
        fill: #f4afac;
      }

      .cls-14 {
        fill: #482d7a;
      }

      .cls-15 {
        fill: none;
      }

      .cls-16 {
        fill: #0f083a;
      }

      .cls-17 {
        fill: #f3d8d4;
      }

      .cls-18 {
        fill: #212426;
      }

      .cls-19 {
        fill: #374447;
      }

      .cls-20 {
        fill: #f5cac2;
      }

      .cls-21 {
        fill: #b9c6c9;
      }

      .cls-22 {
        fill: #f7523b;
      }

      .cls-23 {
        fill: #a9a9a9;
      }

      .cls-24 {
        fill: #141f41;
      }

      .cls-25 {
        fill: #fa9aa3;
      }

      .cls-26 {
        fill: #737d80;
      }
    </style>
  </defs>
  <g id="_Ñëîé_1" data-name="Ñëîé_1">
    <polygon class="cls-23" points="-39.73 -112.8 810.67 -112.8 810.67 454.13 -39.73 454.13 -39.73 -112.8"/>
    <polygon class="cls-14" points="0 0 242.56 0 242.56 343.05 0 343.05 0 0"/>
    <g id="_1710569088" data-name=" 1710569088">
      <polygon class="cls-9" points="121.32 171.53 212.66 181.73 228.73 184.21 212.58 182.89 121.32 171.53"/>
      <polygon class="cls-9" points="121.32 171.53 211.63 192.65 227.52 196.8 211.54 193.37 121.32 171.53"/>
      <polygon class="cls-9" points="121.32 171.54 209.98 202.99 225.5 209.2 209.76 204.11 121.32 171.54"/>
      <polygon class="cls-9" points="121.32 171.54 207.56 213.5 222.67 221.31 207.37 214.19 121.32 171.54"/>
      <polygon class="cls-9" points="121.32 171.55 204.58 223.29 219.06 233.04 204.21 224.34 121.32 171.55"/>
      <polygon class="cls-9" points="121.31 171.55 200.83 233.07 214.7 244.3 200.56 233.7 121.31 171.55"/>
      <polygon class="cls-9" points="121.31 171.55 196.64 242.01 209.64 255 196.14 242.96 121.31 171.55"/>
      <polygon class="cls-9" points="121.31 171.56 191.69 250.76 203.91 265.07 191.35 251.33 121.31 171.56"/>
      <polygon class="cls-9" points="121.31 171.56 186.42 258.59 197.56 274.44 185.81 259.42 121.31 171.56"/>
      <polygon class="cls-9" points="121.3 171.57 180.43 266.06 190.62 283.01 180.01 266.53 121.3 171.57"/>
      <polygon class="cls-9" points="121.3 171.57 174.23 272.53 183.15 290.74 173.52 273.2 121.3 171.57"/>
      <polygon class="cls-9" points="121.3 171.57 167.36 278.49 175.22 297.57 166.89 278.85 121.3 171.57"/>
      <polygon class="cls-9" points="121.3 171.57 160.43 283.42 166.87 303.45 159.65 283.91 121.3 171.57"/>
      <polygon class="cls-9" points="121.29 171.58 152.9 287.68 158.18 308.32 152.39 287.93 121.29 171.58"/>
      <polygon class="cls-9" points="121.29 171.58 145.43 290.9 149.2 312.13 144.6 291.2 121.29 171.58"/>
      <polygon class="cls-9" points="121.29 171.58 137.47 293.3 140.01 314.86 136.94 293.43 121.29 171.58"/>
      <polygon class="cls-9" points="121.28 171.58 129.7 294.71 130.68 316.5 128.84 294.81 121.28 171.58"/>
      <polygon class="cls-9" points="121.28 171.58 121.55 295.24 121.28 317.07 121.01 295.24 121.28 171.58"/>
      <polygon class="cls-9" points="121.28 171.58 113.72 294.81 111.88 316.5 112.86 294.71 121.28 171.58"/>
      <polygon class="cls-9" points="121.27 171.58 105.62 293.43 102.55 314.86 105.09 293.3 121.27 171.58"/>
      <polygon class="cls-9" points="121.27 171.58 97.96 291.2 93.35 312.13 97.12 290.9 121.27 171.58"/>
      <polygon class="cls-9" points="121.27 171.58 90.17 287.93 84.38 308.32 89.65 287.68 121.27 171.58"/>
      <polygon class="cls-9" points="121.26 171.57 82.91 283.91 75.68 303.45 82.13 283.42 121.26 171.57"/>
      <polygon class="cls-9" points="121.26 171.57 75.66 278.85 67.34 297.57 75.19 278.49 121.26 171.57"/>
      <polygon class="cls-9" points="121.26 171.57 69.04 273.2 59.41 290.74 68.33 272.53 121.26 171.57"/>
      <polygon class="cls-9" points="121.25 171.57 62.55 266.53 51.94 283.01 62.13 266.06 121.25 171.57"/>
      <polygon class="cls-9" points="121.25 171.56 56.74 259.42 45 274.44 56.13 258.59 121.25 171.56"/>
      <polygon class="cls-9" points="121.25 171.56 51.21 251.33 38.65 265.07 50.86 250.76 121.25 171.56"/>
      <polygon class="cls-9" points="121.25 171.55 46.41 242.96 32.92 255 45.92 242.01 121.25 171.55"/>
      <polygon class="cls-9" points="121.24 171.55 42 233.7 27.86 244.3 41.73 233.07 121.24 171.55"/>
      <polygon class="cls-9" points="121.24 171.55 38.34 224.34 23.5 233.04 37.98 223.29 121.24 171.55"/>
      <polygon class="cls-9" points="121.24 171.54 35.19 214.19 19.89 221.31 35 213.5 121.24 171.54"/>
      <polygon class="cls-9" points="121.24 171.54 32.8 204.11 17.06 209.2 32.58 202.99 121.24 171.54"/>
      <polygon class="cls-9" points="121.24 171.53 31.02 193.37 15.04 196.8 30.92 192.65 121.24 171.53"/>
      <polygon class="cls-9" points="121.24 171.53 29.97 182.89 13.82 184.21 29.9 181.73 121.24 171.53"/>
      <polygon class="cls-9" points="121.24 171.52 29.58 171.89 13.41 171.52 29.58 171.16 121.24 171.52"/>
      <polygon class="cls-9" points="121.24 171.52 29.9 161.32 13.82 158.84 29.97 160.16 121.24 171.52"/>
      <polygon class="cls-9" points="121.24 171.51 30.92 150.4 15.04 146.25 31.02 149.68 121.24 171.51"/>
      <polygon class="cls-9" points="121.24 171.51 32.58 140.06 17.06 133.85 32.8 138.93 121.24 171.51"/>
      <polygon class="cls-9" points="121.24 171.51 35 129.55 19.89 121.74 35.19 128.86 121.24 171.51"/>
      <polygon class="cls-9" points="121.24 171.5 37.98 119.76 23.5 110.01 38.34 118.7 121.24 171.5"/>
      <polygon class="cls-9" points="121.24 171.5 41.73 109.98 27.86 98.75 42 109.34 121.24 171.5"/>
      <polygon class="cls-9" points="121.25 171.49 45.92 101.04 32.92 88.05 46.41 100.09 121.25 171.49"/>
      <polygon class="cls-9" points="121.25 171.49 50.86 92.28 38.65 77.98 51.21 91.72 121.25 171.49"/>
      <polygon class="cls-9" points="121.25 171.49 56.13 84.45 45 68.61 56.74 83.63 121.25 171.49"/>
      <polygon class="cls-9" points="121.25 171.48 62.13 76.99 51.94 60.04 62.55 76.52 121.25 171.48"/>
      <polygon class="cls-9" points="121.26 171.48 68.33 70.52 59.41 52.31 69.04 69.85 121.26 171.48"/>
      <polygon class="cls-9" points="121.26 171.48 75.19 64.56 67.34 45.48 75.66 64.19 121.26 171.48"/>
      <polygon class="cls-9" points="121.26 171.48 82.13 59.63 75.68 39.6 82.91 59.14 121.26 171.48"/>
      <polygon class="cls-9" points="121.27 171.47 89.65 55.37 84.38 34.73 90.17 55.12 121.27 171.47"/>
      <polygon class="cls-9" points="121.27 171.47 97.12 52.15 93.35 30.91 97.96 51.85 121.27 171.47"/>
      <polygon class="cls-9" points="121.27 171.47 105.09 49.74 102.55 28.19 105.62 49.62 121.27 171.47"/>
      <polygon class="cls-9" points="121.28 171.47 112.86 48.34 111.88 26.55 113.72 48.23 121.28 171.47"/>
      <polygon class="cls-9" points="121.28 171.47 121.01 47.81 121.28 25.98 121.55 47.81 121.28 171.47"/>
      <polygon class="cls-9" points="121.28 171.47 128.84 48.23 130.68 26.55 129.7 48.34 121.28 171.47"/>
      <polygon class="cls-9" points="121.29 171.47 136.94 49.62 140.01 28.19 137.47 49.74 121.29 171.47"/>
      <polygon class="cls-9" points="121.29 171.47 144.6 51.85 149.2 30.91 145.43 52.15 121.29 171.47"/>
      <polygon class="cls-9" points="121.29 171.47 152.39 55.12 158.18 34.73 152.9 55.37 121.29 171.47"/>
      <polygon class="cls-9" points="121.3 171.48 159.65 59.14 166.87 39.6 160.43 59.63 121.3 171.48"/>
      <polygon class="cls-9" points="121.3 171.48 166.89 64.19 175.22 45.48 167.36 64.56 121.3 171.48"/>
      <polygon class="cls-9" points="121.3 171.48 173.52 69.85 183.15 52.31 174.23 70.52 121.3 171.48"/>
      <polygon class="cls-9" points="121.3 171.48 180.01 76.52 190.62 60.04 180.43 76.99 121.3 171.48"/>
      <polygon class="cls-9" points="121.31 171.49 185.81 83.63 197.56 68.61 186.42 84.45 121.31 171.49"/>
      <polygon class="cls-9" points="121.31 171.49 191.35 91.72 203.91 77.98 191.69 92.28 121.31 171.49"/>
      <polygon class="cls-9" points="121.31 171.49 196.14 100.09 209.64 88.05 196.64 101.04 121.31 171.49"/>
      <polygon class="cls-9" points="121.31 171.5 200.56 109.34 214.7 98.75 200.83 109.98 121.31 171.5"/>
      <polygon class="cls-9" points="121.32 171.5 204.21 118.7 219.06 110.01 204.58 119.76 121.32 171.5"/>
      <polygon class="cls-9" points="121.32 171.51 207.37 128.86 222.67 121.74 207.56 129.55 121.32 171.51"/>
      <polygon class="cls-9" points="121.32 171.51 209.76 138.93 225.5 133.85 209.98 140.06 121.32 171.51"/>
      <polygon class="cls-9" points="121.32 171.51 211.54 149.68 227.52 146.25 211.63 150.4 121.32 171.51"/>
      <polygon class="cls-9" points="121.32 171.52 212.58 160.16 228.73 158.84 212.66 161.32 121.32 171.52"/>
      <polygon class="cls-9" points="121.32 171.52 212.98 171.16 229.15 171.52 212.98 171.89 121.32 171.52"/>
    </g>
    <path class="cls-16" d="M0,0h242.56v343.05H0V0H0ZM38.93,12.64c0,15.24-12.47,27.7-27.7,27.7v264.91c15.24,0,27.7,12.47,27.7,27.7h163.91c0-15.24,12.47-27.7,27.7-27.7V40.34c-15.24,0-27.7-12.47-27.7-27.7H38.93Z"/>
    <path class="cls-2" d="M42.39,17.09h157.57v.58c0,7.14,2.92,13.63,7.63,18.33,4.71,4.71,11.19,7.62,18.33,7.62h.58v258.34h-.58c-7.14,0-13.63,2.92-18.33,7.63s-7.63,11.2-7.63,18.33v.58H41.81v-.58c0-7.14-2.92-13.63-7.62-18.33-4.71-4.71-11.2-7.63-18.33-7.63h-.58V43.62h.58c7.14,0,13.63-2.92,18.33-7.62,4.7-4.71,7.62-11.2,7.62-18.33v-.58h.58ZM198.81,18.24H42.96c-.15,7.23-3.17,13.78-7.96,18.57-4.79,4.79-11.34,7.8-18.57,7.96v256.05c7.23.15,13.78,3.17,18.57,7.96,4.79,4.79,7.8,11.34,7.96,18.57h155.86c.15-7.23,3.17-13.79,7.96-18.57,4.79-4.79,11.34-7.8,18.57-7.96V44.77c-7.23-.15-13.79-3.17-18.57-7.96s-7.8-11.34-7.96-18.57Z"/>
    <path class="cls-11" d="M40.85,8.92v1.69h-2.55c-.03.89-.09,1.8-.2,2.68l-1.68-.21c.14-1.07.2-2.2.2-3.28h.85s0-.88,0-.88h3.39ZM36.17,14.7c-.2,1.08-.46,2.14-.79,3.18l1.61.51c.35-1.1.63-2.25.84-3.39l-1.67-.31ZM34.84,19.44c-.38,1.02-.85,2.03-1.35,2.99l1.5.79c.54-1.02,1.03-2.1,1.44-3.18l-1.58-.6ZM32.68,23.86c-.57.94-1.19,1.84-1.87,2.7l1.33,1.05c.72-.92,1.38-1.87,1.98-2.87l-1.45-.88ZM29.76,27.83c-.72.82-1.5,1.6-2.32,2.33l1.12,1.27c.87-.78,1.69-1.6,2.46-2.47l-1.27-1.12ZM26.19,31.21c-.86.68-1.76,1.31-2.69,1.88l.88,1.45c.99-.61,1.95-1.27,2.86-2l-1.05-1.33ZM22.07,33.91c-.97.52-1.96.97-2.98,1.37l.6,1.58c1.08-.41,2.15-.91,3.17-1.46l-.79-1.5ZM17.54,35.83c-1.05.33-2.09.6-3.18.81l.31,1.66c1.16-.22,2.26-.51,3.38-.86l-.51-1.61ZM12.74,36.9c-1.1.14-2.17.21-3.28.22v1.69c1.18-.01,2.32-.09,3.49-.23l-.2-1.68ZM8.42,39.46h1.69v3.39h-1.69v-3.39ZM8.42,44.54h1.69v3.39h-1.69v-3.39ZM8.42,49.62h1.69v3.39h-1.69v-3.39ZM8.42,54.7h1.69v3.39h-1.69v-3.39ZM8.42,59.78h1.69v3.39h-1.69v-3.39ZM8.42,64.87h1.69v3.39h-1.69v-3.39ZM8.42,69.95h1.69v3.39h-1.69v-3.39ZM8.42,75.03h1.69v3.39h-1.69v-3.39ZM8.42,80.11h1.69v3.39h-1.69v-3.39ZM8.42,85.19h1.69v3.39h-1.69v-3.39ZM8.42,90.27h1.69v3.39h-1.69v-3.39ZM8.42,95.35h1.69v3.39h-1.69v-3.39ZM8.42,100.43h1.69v3.39h-1.69v-3.39ZM8.42,105.51h1.69v3.39h-1.69v-3.39ZM8.42,110.59h1.69v3.39h-1.69v-3.39ZM8.42,115.67h1.69v3.39h-1.69v-3.39ZM8.42,120.76h1.69v3.39h-1.69v-3.39ZM8.42,125.84h1.69v3.39h-1.69v-3.39ZM8.42,130.92h1.69v3.39h-1.69v-3.39ZM8.42,136h1.69v3.39h-1.69v-3.39ZM8.42,141.08h1.69v3.39h-1.69v-3.39ZM8.42,146.16h1.69v3.39h-1.69v-3.39ZM8.42,151.24h1.69v3.39h-1.69v-3.39ZM8.42,156.32h1.69v3.39h-1.69v-3.39ZM8.42,161.4h1.69v3.39h-1.69v-3.39ZM8.42,166.48h1.69v3.39h-1.69v-3.39ZM8.42,171.57h1.69v3.39h-1.69v-3.39ZM8.42,176.65h1.69v3.39h-1.69v-3.39ZM8.42,181.73h1.69v3.39h-1.69v-3.39ZM8.42,186.81h1.69v3.39h-1.69v-3.39ZM8.42,191.89h1.69v3.39h-1.69v-3.39ZM8.42,196.97h1.69v3.39h-1.69v-3.39ZM8.42,202.05h1.69v3.39h-1.69v-3.39ZM8.42,207.13h1.69v3.39h-1.69v-3.39ZM8.42,212.21h1.69v3.39h-1.69v-3.39ZM8.42,217.3h1.69v3.39h-1.69v-3.39ZM8.42,222.38h1.69v3.39h-1.69v-3.39ZM8.42,227.46h1.69v3.39h-1.69v-3.39ZM8.42,232.54h1.69v3.39h-1.69v-3.39ZM8.42,237.62h1.69v3.39h-1.69v-3.39ZM8.42,242.7h1.69v3.39h-1.69v-3.39ZM8.42,247.78h1.69v3.39h-1.69v-3.39ZM8.42,252.86h1.69v3.39h-1.69v-3.39ZM8.42,257.94h1.69v3.39h-1.69v-3.39ZM8.42,263.02h1.69v3.39h-1.69v-3.39ZM8.42,268.11h1.69v3.39h-1.69v-3.39ZM8.42,273.19h1.69v3.39h-1.69v-3.39ZM8.42,278.27h1.69v3.39h-1.69v-3.39ZM8.42,283.35h1.69v3.39h-1.69v-3.39ZM8.42,288.43h1.69v3.39h-1.69v-3.39ZM8.42,293.51h1.69v3.39h-1.69v-3.39ZM8.42,298.59h1.69v3.39h-1.69v-3.39ZM8.42,303.67h1.69v3.39h-1.69v-3.39ZM10.35,308.49c1.09.04,2.19.15,3.27.33l.28-1.67c-1.15-.19-2.31-.3-3.47-.35l-.08,1.69ZM15.23,309.13c1.05.23,2.14.55,3.15.91l.58-1.59c-1.09-.39-2.23-.72-3.35-.97l-.37,1.65ZM19.91,310.64c.94.4,2.08.93,2.94,1.47l.86-1.46c-.99-.58-2.06-1.11-3.12-1.56l-.67,1.55ZM24.25,312.97c.92.61,1.79,1.26,2.63,1.97l1.09-1.29c-.9-.75-1.81-1.44-2.79-2.09l-.94,1.41h0ZM28.1,316.04c.79.75,1.54,1.57,2.24,2.4l1.31-1.08c-.74-.89-1.53-1.76-2.38-2.55l-1.17,1.23ZM31.35,319.74c.65.89,1.24,1.8,1.78,2.76l1.48-.83c-.57-1.02-1.2-1.99-1.89-2.93l-1.37,1ZM33.89,323.96c.48.98.9,2,1.25,3.03l1.6-.54c-.38-1.1-.82-2.18-1.33-3.22l-1.52.74ZM35.63,328.56c.29,1.06.52,2.12.68,3.21l1.68-.25c-.17-1.16-.42-2.29-.73-3.41l-1.63.44ZM36.51,333.4c.1,1.11.11,2.15.11,3.27h1.73v-1.69h-.05c-.02-.58-.05-1.15-.1-1.72l-1.69.14ZM40.04,336.67v-1.69h3.39v1.69h-3.39ZM45.13,336.67v-1.69h3.39v1.69h-3.39ZM50.21,336.67v-1.69h3.39v1.69h-3.39ZM55.29,336.67v-1.69h3.39v1.69h-3.39ZM60.37,336.67v-1.69h3.39v1.69h-3.39ZM65.45,336.67v-1.69h3.39v1.69h-3.39ZM70.53,336.67v-1.69h3.39v1.69h-3.39ZM75.61,336.67v-1.69h3.39v1.69h-3.39ZM80.69,336.67v-1.69h3.39v1.69h-3.39ZM85.77,336.67v-1.69h3.39v1.69h-3.39ZM90.85,336.67v-1.69h3.39v1.69h-3.39ZM95.94,336.67v-1.69h3.39v1.69h-3.39ZM101.02,336.67v-1.69h3.39v1.69h-3.39ZM106.1,336.67v-1.69h3.39v1.69h-3.39ZM111.18,336.67v-1.69h3.39v1.69h-3.39ZM116.26,336.67v-1.69h3.39v1.69h-3.39ZM121.34,336.67v-1.69h3.39v1.69h-3.39ZM126.42,336.67v-1.69h3.39v1.69h-3.39ZM131.5,336.67v-1.69h3.39v1.69h-3.39ZM136.58,336.67v-1.69h3.39v1.69h-3.39ZM141.67,336.67v-1.69h3.39v1.69h-3.39ZM146.75,336.67v-1.69h3.39v1.69h-3.39ZM151.83,336.67v-1.69h3.39v1.69h-3.39ZM156.91,336.67v-1.69h3.39v1.69h-3.39ZM161.99,336.67v-1.69h3.39v1.69h-3.39ZM167.07,336.67v-1.69h3.39v1.69h-3.39ZM172.15,336.67v-1.69h3.39v1.69h-3.39ZM177.23,336.67v-1.69h3.39v1.69h-3.39ZM182.31,336.67v-1.69h3.39v1.69h-3.39ZM187.39,336.67v-1.69h3.39v1.69h-3.39ZM192.47,336.67v-1.69h3.39v1.69h-3.39ZM197.56,336.67v-1.69h3.39v1.69h-3.39ZM202.64,336.67v-1.69h.84c0-.31.02-.61.04-.92l1.69.11c-.05.84-.05,1.66-.05,2.51h-2.52ZM205.36,332.53c.1-1.03.34-2.22.59-3.22l-1.64-.41c-.27,1.08-.52,2.33-.63,3.43l1.68.2ZM206.39,327.72c.31-1.03.73-2.09,1.17-3.07l-1.54-.7c-.47,1.04-.91,2.17-1.24,3.26l1.62.5ZM208.28,323.18c.51-.97,1.08-1.91,1.7-2.81l-1.39-.97c-.66.96-1.27,1.96-1.81,2.98l1.5.79h0ZM210.95,319.04c.68-.86,1.4-1.69,2.17-2.46l-1.2-1.2c-.82.83-1.59,1.7-2.31,2.62l1.33,1.05h0ZM214.31,315.45c.82-.73,1.68-1.41,2.57-2.04l-.97-1.39c-.95.67-1.86,1.39-2.73,2.16l1.12,1.27h0ZM218.26,312.5c.93-.57,1.9-1.1,2.89-1.55l-.7-1.54c-1.05.48-2.09,1.04-3.08,1.64l.88,1.45ZM222.67,310.32c1.03-.4,2.06-.73,3.13-1l-.41-1.64c-1.13.29-2.23.64-3.32,1.06l.6,1.58h0ZM227.4,308.96c1.08-.2,2.16-.35,3.26-.42l-.11-1.69c-1.17.08-2.31.23-3.46.45l.31,1.66h0ZM232.3,308.47c.35,0,.71,0,1.06,0v-4.02h-1.69v3.17l.63.63v.22h0ZM233.36,302.76h-1.69v-3.39h1.69v3.39ZM233.36,297.68h-1.69v-3.39h1.69v3.39ZM233.36,292.6h-1.69v-3.39h1.69v3.39ZM233.36,287.52h-1.69v-3.39h1.69v3.39ZM233.36,282.44h-1.69v-3.39h1.69v3.39ZM233.36,277.36h-1.69v-3.39h1.69v3.39ZM233.36,272.28h-1.69v-3.39h1.69v3.39ZM233.36,267.2h-1.69v-3.39h1.69v3.39ZM233.36,262.12h-1.69v-3.39h1.69v3.39ZM233.36,257.04h-1.69v-3.39h1.69v3.39ZM233.36,251.95h-1.69v-3.39h1.69v3.39ZM233.36,246.87h-1.69v-3.39h1.69v3.39ZM233.36,241.79h-1.69v-3.39h1.69v3.39ZM233.36,236.71h-1.69v-3.39h1.69v3.39ZM233.36,231.63h-1.69v-3.39h1.69v3.39ZM233.36,226.55h-1.69v-3.39h1.69v3.39ZM233.36,221.47h-1.69v-3.39h1.69v3.39ZM233.36,216.39h-1.69v-3.39h1.69v3.39ZM233.36,211.31h-1.69v-3.39h1.69v3.39ZM233.36,206.22h-1.69v-3.39h1.69v3.39ZM233.36,201.14h-1.69v-3.39h1.69v3.39ZM233.36,196.06h-1.69v-3.39h1.69v3.39ZM233.36,190.98h-1.69v-3.39h1.69v3.39ZM233.36,185.9h-1.69v-3.39h1.69v3.39ZM233.36,180.82h-1.69v-3.39h1.69v3.39ZM233.36,175.74h-1.69v-3.39h1.69v3.39ZM233.36,170.66h-1.69v-3.39h1.69v3.39ZM233.36,165.58h-1.69v-3.39h1.69v3.39ZM233.36,160.5h-1.69v-3.39h1.69v3.39ZM233.36,155.42h-1.69v-3.39h1.69v3.39ZM233.36,150.33h-1.69v-3.39h1.69v3.39ZM233.36,145.25h-1.69v-3.39h1.69v3.39ZM233.36,140.17h-1.69v-3.39h1.69v3.39ZM233.36,135.09h-1.69v-3.39h1.69v3.39ZM233.36,130.01h-1.69v-3.39h1.69v3.39ZM233.36,124.93h-1.69v-3.39h1.69v3.39ZM233.36,119.85h-1.69v-3.39h1.69v3.39ZM233.36,114.77h-1.69v-3.39h1.69v3.39ZM233.36,109.69h-1.69v-3.39h1.69v3.39ZM233.36,104.6h-1.69v-3.39h1.69v3.39ZM233.36,99.52h-1.69v-3.39h1.69v3.39ZM233.36,94.44h-1.69v-3.39h1.69v3.39ZM233.36,89.36h-1.69v-3.39h1.69v3.39ZM233.36,84.28h-1.69v-3.39h1.69v3.39ZM233.36,79.2h-1.69v-3.39h1.69v3.39ZM233.36,74.12h-1.69v-3.39h1.69v3.39ZM233.36,69.04h-1.69v-3.39h1.69v3.39ZM233.36,63.96h-1.69v-3.39h1.69v3.39ZM233.36,58.88h-1.69v-3.39h1.69v3.39ZM233.36,53.79h-1.69v-3.39h1.69v3.39ZM233.36,48.71h-1.69v-3.39h1.69v3.39ZM233.36,43.63h-1.69v-3.39h1.69v3.39ZM233.36,38.55h-1.11l.26.26c-.97,0-1.92-.05-2.88-.14l.17-1.68c1.21.12,2.34.13,3.56.13v1.43ZM228.17,36.77c-1.08-.18-2.15-.41-3.21-.72l-.47,1.62c1.12.32,2.25.58,3.4.76l.28-1.67h0ZM223.41,35.55c-1.04-.37-2.04-.8-3.02-1.29h0s-.76,1.51-.76,1.51c1.06.52,2.1.97,3.21,1.37l.58-1.59ZM218.94,33.49c-.95-.54-1.87-1.15-2.74-1.81l-1.02,1.36c.93.69,1.9,1.34,2.91,1.92l.85-1.47ZM214.91,30.66c-.84-.71-1.63-1.46-2.38-2.26l-1.24,1.15c.79.85,1.63,1.65,2.52,2.4l1.09-1.29h0ZM211.44,27.16c-.7-.84-1.35-1.73-1.94-2.65l-1.42.91c.63.98,1.32,1.92,2.06,2.81l1.31-1.08ZM208.65,23.1c-.54-.95-1.02-1.94-1.44-2.95l-1.57.64c.44,1.07.95,2.12,1.53,3.14l1.48-.83ZM206.64,18.62c-.36-1.04-.65-2.09-.88-3.16l-1.66.35c.25,1.14.55,2.25.93,3.36l1.6-.55ZM205.46,13.84c-.16-1.08-.26-2.17-.29-3.27l-1.69.04c.04,1.17.14,2.32.31,3.47l1.68-.25ZM203.44,8.92v1.69h-3.39v-1.69h3.39ZM198.36,8.92v1.69h-3.39v-1.69h3.39ZM193.28,8.92v1.69h-3.39v-1.69h3.39ZM188.2,8.92v1.69h-3.39v-1.69h3.39ZM183.12,8.92v1.69h-3.39v-1.69h3.39ZM178.04,8.92v1.69h-3.39v-1.69h3.39ZM172.96,8.92v1.69h-3.39v-1.69h3.39ZM167.88,8.92v1.69h-3.39v-1.69h3.39ZM162.79,8.92v1.69h-3.39v-1.69h3.39ZM157.71,8.92v1.69h-3.39v-1.69h3.39ZM152.63,8.92v1.69h-3.39v-1.69h3.39ZM147.55,8.92v1.69h-3.39v-1.69h3.39ZM142.47,8.92v1.69h-3.39v-1.69h3.39ZM137.39,8.92v1.69h-3.39v-1.69h3.39ZM132.31,8.92v1.69h-3.39v-1.69h3.39ZM127.23,8.92v1.69h-3.39v-1.69h3.39ZM122.15,8.92v1.69h-3.39v-1.69h3.39ZM117.06,8.92v1.69h-3.39v-1.69h3.39ZM111.98,8.92v1.69h-3.39v-1.69h3.39ZM106.9,8.92v1.69h-3.39v-1.69h3.39ZM101.82,8.92v1.69h-3.39v-1.69h3.39ZM96.74,8.92v1.69h-3.39v-1.69h3.39ZM91.66,8.92v1.69h-3.39v-1.69h3.39ZM86.58,8.92v1.69h-3.39v-1.69h3.39ZM81.5,8.92v1.69h-3.39v-1.69h3.39ZM76.42,8.92v1.69h-3.39v-1.69h3.39ZM71.34,8.92v1.69h-3.39v-1.69h3.39ZM66.25,8.92v1.69h-3.39v-1.69h3.39ZM61.17,8.92v1.69h-3.39v-1.69h3.39ZM56.09,8.92v1.69h-3.39v-1.69h3.39ZM51.01,8.92v1.69h-3.39v-1.69h3.39ZM45.93,8.92v1.69h-3.39v-1.69h3.39Z"/>
    <g id="_1772900224" data-name=" 1772900224">
      <path class="cls-2" d="M19.72,10.84c-1.12-.39-2.61-.31-3.97.2-1.81.68-3.39,2.26-3.65,4.33-.45,3.64,3.86,6.97,6.75,5.97,2.88-1,3.88-5.88,1.6-7.37-2.29-1.49-5.82-.46-5.91,1.95s2.56,2.84,3.55,1.31c.99-1.52-1.11-2.06-1.4-1.71-.29.35-.32.65-.32.65,0,0-.15.09-.25-.3s-.19-1.07.68-1.14c.87-.07,1.98.05,2.32,1.43.19.75-.09,1.59-.56,2.21-.72.96-1.85,1.1-2.97.73-1.15-.39-1.83-1.34-2.13-2.64-.37-1.59.97-3.66,2.75-4.42,2.85-1.21,6.01.12,7.12,3.33,1.15,3.35-2.1,8.38-5.98,8.19-3.01-.15-5.67-2.25-6.73-5.19-1.62-4.45,1.58-7.84,4.76-8.71,1.91-.52,4.17-.14,4.35,1.18Z"/>
      <path class="cls-2" d="M21.76,332.21c-1.12.39-2.61.31-3.97-.2-1.81-.68-3.39-2.26-3.65-4.34-.45-3.64,3.86-6.96,6.75-5.97,2.88,1,3.89,5.88,1.6,7.37-2.29,1.49-5.82.46-5.91-1.95-.09-2.41,2.56-2.84,3.55-1.31.98,1.52-1.11,2.06-1.4,1.71-.29-.35-.32-.65-.32-.65,0,0-.15-.09-.25.3-.1.4-.19,1.07.68,1.14.87.07,1.98-.05,2.32-1.43.19-.75-.09-1.59-.56-2.21-.72-.96-1.85-1.1-2.96-.73-1.15.39-1.83,1.34-2.14,2.64-.37,1.59.97,3.66,2.75,4.42,2.85,1.21,6.01-.12,7.12-3.33,1.15-3.35-2.1-8.38-5.98-8.19-3.01.15-5.67,2.25-6.73,5.19-1.62,4.45,1.58,7.84,4.76,8.71,1.9.52,4.17.14,4.35-1.18Z"/>
      <path class="cls-2" d="M220.79,10.84c1.12-.39,2.61-.31,3.97.2,1.81.68,3.39,2.26,3.65,4.33.45,3.64-3.86,6.97-6.75,5.97-2.88-1-3.88-5.88-1.6-7.37,2.29-1.49,5.82-.46,5.91,1.95.09,2.41-2.56,2.84-3.55,1.31-.99-1.52,1.11-2.06,1.4-1.71.29.35.32.65.32.65,0,0,.15.09.25-.3.1-.39.19-1.07-.68-1.14-.87-.07-1.98.05-2.32,1.43-.19.75.09,1.59.56,2.21.72.96,1.85,1.1,2.97.73,1.15-.39,1.83-1.34,2.13-2.64.37-1.59-.97-3.66-2.75-4.42-2.85-1.21-6.01.12-7.12,3.33-1.15,3.35,2.1,8.38,5.98,8.19,3.01-.15,5.67-2.25,6.73-5.19,1.62-4.45-1.58-7.84-4.76-8.71-1.91-.52-4.17-.14-4.35,1.18h0Z"/>
      <path class="cls-2" d="M222.83,332.21c1.12.39,2.61.31,3.97-.2,1.81-.68,3.39-2.26,3.65-4.34.45-3.64-3.86-6.96-6.75-5.97-2.88,1-3.88,5.88-1.6,7.37,2.29,1.49,5.82.46,5.91-1.95.09-2.41-2.56-2.84-3.55-1.31-.99,1.52,1.11,2.06,1.4,1.71.29-.35.32-.65.32-.65,0,0,.15-.09.25.3.1.4.19,1.07-.68,1.14-.87.07-1.98-.05-2.33-1.43-.19-.75.09-1.59.56-2.21.72-.96,1.85-1.1,2.97-.73,1.15.39,1.83,1.34,2.14,2.64.36,1.59-.97,3.66-2.76,4.42-2.85,1.21-6.01-.12-7.12-3.33-1.15-3.35,2.1-8.38,5.98-8.19,3.01.15,5.67,2.25,6.73,5.19,1.62,4.45-1.58,7.84-4.76,8.71-1.9.52-4.17.14-4.35-1.18h0Z"/>
    </g>
    <g id="_1772903264" data-name=" 1772903264">
      <polygon class="cls-6" points="81.67 211.12 81.91 148.85 92.18 137.82 98.24 138.91 98.53 181.34 101 183.2 100.03 91.28 104.49 91.39 107.52 78.53 112.85 76.55 115.09 172.57 118.86 170.87 116.68 58.21 121.49 63.27 122.94 72.41 126.01 114.43 131.27 115.03 135.32 183.43 142.59 181.41 142.62 162.68 157.39 168.76 151.61 193.06 127.27 227.43 81.67 211.12"/>
      <polygon class="cls-2" points="98.97 208.85 109.43 115.84 133.95 104.21 141.81 117.99 142.48 197.29 127.27 227.43 98.97 208.85"/>
      <polygon class="cls-11" points="88.04 177.51 111.13 145.67 116.53 143.56 149.98 199.25 126.09 226.65 88.04 177.51"/>
      <path class="cls-12" d="M103.98,106.72c.25-2.71,12.7-48.51,12.7-48.51l8.88,49.98-15.51,7.36-6.06-8.83h0Z"/>
      <path class="cls-25" d="M125.55,108.2s15.65-9.86,15.16-11.09c-.49-1.23-15.78-34.76-15.78-34.76l-8.26-4.13,8.88,49.98h0Z"/>
      <polygon class="cls-17" points="89.19 107.96 81.91 148.85 100.63 148.65 105.68 149.22 109.29 117.09 89.19 107.96"/>
      <polygon class="cls-4" points="116.68 58.21 78.34 103.76 109.89 116.83 116.68 58.21"/>
      <polygon class="cls-7" points="100.37 217.81 65.03 203.61 78.34 103.76 108.16 116.11 100.37 217.81"/>
      <polygon class="cls-11" points="126.07 107.95 148.79 197.04 171.46 169.12 140.71 97.11 126.07 107.95"/>
      <polygon class="cls-25" points="153.53 135.07 171.77 125.71 176.46 135.07 179.16 157.75 168.13 176.57 139.51 160.65 153.53 135.07"/>
      <polygon class="cls-22" points="134.21 164.63 150.08 151.84 159.45 159.97 170.54 181.17 176.21 193.99 127.27 227.43 135.85 183.28 134.21 164.63"/>
      <path class="cls-13" d="M86.1,197.24l4.93-27.14,27.8-.54,16.48,13.86,9.39-2.4,5.27,18.22-22.71,28.18-11.94,3.39-31.48-7.56-9.38-12.34c-1.82-2.4,11.63-13.68,11.63-13.68Z"/>
      <path class="cls-12" d="M59.36,136.31c1.48-.99,15.61-7.24,15.61-7.24l16.07,41.04-31.68-33.8Z"/>
      <polygon class="cls-22" points="59.36 136.31 74.22 211.46 86.1 197.24 95.23 170.02 59.36 136.31"/>
      <path class="cls-12" d="M70.2,178.96c-1.86-.25-13.56,22.19-13.56,22.19l17.58,10.31,12.15-15.71-16.17-16.79Z"/>
      <polygon class="cls-25" points="90.83 198.22 96.72 169.99 118.84 169.57 126.17 198.92 109.16 209.52 90.83 198.22"/>
      <path class="cls-2" d="M121.09,170.27c-.44.52,7.78,7.66,11.92,11.2,1.38,1.18,2.31,1.96,2.31,1.96l-9.15,15.49-5.08-28.65Z"/>
      <polygon class="cls-20" points="76.82 208.35 86.37 195.75 109.16 209.52 110.14 214.7 76.82 208.35"/>
      <path class="cls-12" d="M95.79,168.17c-.65-.47,14.94-21.95,14.94-21.95l8.11,23.34-23.04-1.39Z"/>
      <polygon class="cls-20" points="116.53 143.56 135.85 183.28 142.07 181.27 122.81 148.52 116.53 143.56"/>
      <path class="cls-7" d="M151.6,166.38s2.5,37.76,3.65,39.45c1.16,1.69,14.79-7.89,14.79-7.89l-18.44-31.56Z"/>
      <polygon class="cls-12" points="134.21 164.63 151.6 166.38 158.11 161.01 149.22 153.35 134.21 164.63"/>
      <polygon class="cls-10" points="113.07 65.76 83.82 101.22 101.59 111.22 89.38 101.09 113.07 65.76"/>
      <polygon class="cls-10" points="104.18 119.13 103 157.05 109.89 116.83 126.07 107.95 107.27 115.05 79.29 104.16 104.18 119.13"/>
      <polygon class="cls-7" points="62.97 143.96 86.29 191.28 68.77 174.72 62.97 143.96"/>
      <polygon class="cls-11" points="120.5 207.8 141.45 203.85 149.09 195.72 165.36 197.44 173.5 213.47 127.27 227.43 120.5 207.8"/>
      <polygon class="cls-2" points="81.65 225.66 113.13 233.22 121.49 218.13 74.62 210.74 81.65 225.66"/>
      <path class="cls-12" d="M80.31,109.19s15.63,29.75,17.92,29.72c2.29-.02,3.77-18.38,3.77-18.38l-21.69-11.34Z"/>
      <path class="cls-10" d="M62.97,141.37c.6-.57,31.96,29.57,31.96,29.57l-28.38-32.04,8.42-9.83-15.61,7.24,3.61,5.06Z"/>
      <polygon class="cls-10" points="106.53 112.58 115.32 63.2 111.46 111.47 106.53 112.58"/>
      <polygon class="cls-10" points="110.6 150.01 99.74 166.82 119.98 169.04 94.93 170.93 110.46 146.6 111.87 149.51 110.6 150.01"/>
      <polygon class="cls-10" points="119.11 174.33 125.72 199.51 126.34 199.13 120.71 168.89 119.42 168.99 119.11 174.33"/>
      <polygon class="cls-5" points="162 164.86 168.32 151.59 171.77 131.87 176.46 135.07 179.16 157.75 168.13 176.57 162 164.86"/>
      <polygon class="cls-11" points="149.22 153.35 171.77 131.87 168.32 151.59 162 164.86 159.45 159.97 149.22 153.35"/>
      <path class="cls-12" d="M154.29,136.92s5.34,3.21,6.17,4.08c.83.87,11.32-9.13,11.32-9.13v-6.16l-17.49,11.21h0Z"/>
      <polygon class="cls-10" points="109.61 208.08 125.78 198.56 141.45 203.85 120.96 219.08 109.53 216.25 109.61 208.08"/>
      <path class="cls-22" d="M110.35,230.31c.16-.65,2.78,2.91,2.78,2.91l35.54-6.95,24.82-12.8s-24.92,1.8-24.28,2.25c.63.45-29.16,3.14-29.16,3.14l-9.7,11.46Z"/>
      <path class="cls-20" d="M68.6,183.06s-7.86,16.13-6.13,16.37c1.73.25,13.57,8.65,13.57,8.65l-1.48,2.97s-17.95-8.19-17.92-9.9c.03-1.71,11.61-21.71,11.61-21.71l1.95-.47-1.45,4.86-.15-.76Z"/>
      <polygon class="cls-4" points="91.17 196.62 104.68 182.88 125.53 198.19 109.61 208.08 91.17 196.62"/>
      <polygon class="cls-10" points="101.5 64.54 111.5 61.03 121.17 46.13 116.27 61.75 121.79 67.61 111.79 71.12 102.13 86.02 107.03 70.4 101.5 64.54"/>
    </g>
    <g id="_1245134032" data-name=" 1245134032">
      <polygon class="cls-18" points="45.08 260.72 70.73 260.72 81.13 263.39 84.25 260.72 98.88 260.72 100.05 263.02 101.34 260.72 191.48 260.72 191.48 293.73 155.13 293.73 153.28 296.08 151.9 293.73 45.08 293.73 45.08 260.72"/>
      <polygon class="cls-1" points="191.28 266.38 191.48 293.73 155.13 293.73 153.28 296.08 151.9 293.73 64.47 297.23 48.97 293.73 50.7 283.26 49.31 280.09 48.77 266.38 76.79 266.38 87.19 269.05 90.32 266.38 104.94 266.38 106.11 268.68 107.4 266.38 126.09 266.38 131.75 268.24 135.94 266.38 159.39 266.38 164.19 268.38 170.05 266.38 191.28 266.38"/>
      <g>
        <path class="cls-15" d="M43.42,297.23v-11.32l1.37,1.2-1.37-3.83v-16.04l.62-.11s-.26-.25-.62-.62v-6.09c.48-.68.95-1.33,1.29-1.8h2.98v3.29l-2.09,1.3,2.09.81v4.88l-1.15,5.95,1.15,7.82v10.52h14l2.4,1.58,9.22-1.58h12.86l.2,1.46,1.59-1.46h9.7l.54,2.64,4.25-2.64h15.36l.3,1.77,1.25-1.77h32.94l.97,2.89,1.99-2.89h36.21v-6.68l1.79-.11-1.79-2.54v-16.93l2.44-3.15-2.44-1.49v-3.66h4.83l-1.03,5.09,1.5,3.51v12.78l-3.74,1.26,3.74.55v15.41h-16.07l-1.48-.9-11.83-.37-1.65,1.27h-22.69l-.93-.65-4.98-2.49-19.29,3.14h-9.13l-1.82-1.89-3.37,1.89h-15.68l-1.37-1.4-2.74,1.4h-26.32l-3.18-2.77-.42,2.77h-10.41Z"/>
        <path class="cls-3" d="M42.42,297.92v-12.89l2.37,2.08-2.37-6.63v-13.06l1.62-.28s-.86-.84-1.62-1.69v-3.57c.75-1.13,1.71-2.46,2.29-3.25h2.98v3.29l-2.09,1.3,2.09.81v4.88l-1.15,5.95,1.15,7.82v10.52h14l2.4,1.58,9.22-1.58h12.86l.2,1.46,1.59-1.46h9.7l.54,2.64,4.25-2.64h15.36l.3,1.77,1.25-1.77h32.94l.97,2.89,1.99-2.89h36.21v-6.68l1.79-.11-1.79-2.54v-16.93l2.44-3.15-2.44-1.49v-3.66h4.83l-1.03,5.09,2.49,5.85v10.1l-4.73,1.6,4.73.7v15.96h-15.92l-2.63-1.6-11.83-.37-2.56,1.97h-20.78l-1.93-1.35-4.98-.75-19.29,1.4-8.46.7-2.49-1.94-4.61,1.94h-13.91l-.53-.7-1.37-1.4-4.11,2.09h-24.15l-3.98-3.46-.53,3.46h-11.3Z"/>
        <path class="cls-8" d="M189.44,293.19l.71.77,2.64,1.84-.73-4.71,1.19-4.68-1.79.11v6.68h-2.03ZM193.26,286.4l-1.13-4.47.87-4.36-.68-3.61.06-4.04,1.49-1.18-1.68-.56s-.35-.42-.72-.91v16.59l1.79,2.54ZM191.48,262.28l1.47-1.88-.34-1.77h-1.13v3.66h0Z"/>
        <path class="cls-21" d="M47.03,293.54l6.38.62,6.66-.19,2.21.87,13.97-.5,8.03-.25,3.73,1.37,8.46-1.43h1.36s-.18-.85-.18-.85h-9.7l-1.59,1.46-.2-1.46h-12.86l-9.22,1.58-2.4-1.58h-14v-.2l-.66.55h0ZM101,294.09l7.18.08,9.93.79-.3-1.77h-15.36l-1.45.9h0ZM118.11,294.96l19.04-.87,14.25-.48,1.14.29-.24-.71h-32.94l-1.25,1.77h0ZM154.44,294.39l2.63.68,7.88-1.11,12.93.55,12.27-.55,1.32-.77h-36.21l-.82,1.2Z"/>
        <path class="cls-19" d="M47.69,258.63v3.29l-.71.45-.08-3.74h.79ZM48.86,293.19l-3.17,1.6,1.12-4.17.12-7.97-1.18-10.02,1.31-6.04-.06-2.84.69.27v4.88l-1.15,5.95,1.15,7.82v10.52h1.17Z"/>
        <path class="cls-19" d="M196.31,258.63l-.85,4.19v-4.19h.85ZM195.46,264.14l2.31,5.42v10.1l-2.31.78v-16.31h0ZM195.46,281.62l2.31.34v15.96h-2.31v-16.3Z"/>
        <path class="cls-8" d="M42.42,297.92v-12.89l2.17,1.92v10.98h-2.17ZM44.6,286.58l-2.17-6.1v-13.06l1.62-.28s-.86-.84-1.62-1.69v-3.57c.71-1.06,1.59-2.29,2.17-3.09v27.8Z"/>
        <path class="cls-8" d="M42.42,297.92v-1.91h11.59l-.29,1.91h-11.3ZM197.77,296.01v1.91h-15.92l-2.63-1.6-10-.32h14.96l5.97-2.05,2.64,1.84,4.97.21ZM167.32,296.01l-2.49,1.91h-20.78l-1.93-1.35-1.13-.57,11.63-1.85.65,1.91.78-1.13,1.74,1.07h6.85l2.3-2.05,2.37,2.05h0ZM125.32,296.01l-7.47,1.21-8.46.7-1.84-1.91,8.16-2.61-.37,2.61h9.98ZM105.7,296.01l-3.4,1.91h-13.91l-.53-.7-1.19-1.21h6.9l4.33-1.67.3,1.49,1.89-1.17,5.61,1.36h0ZM86.13,296.01l-3.75,1.91h-24.15l-2.2-1.91,15.5-.75,3.3-1.8,11.3,2.55h0Z"/>
        <path class="cls-21" d="M43.42,294.97c.31.19,1.18,1.37,1.18,1.37,0,0,1.06-4.54,1.06-4.79s-.59-3.76-.59-3.76l-1.65,7.19Z"/>
        <path class="cls-21" d="M43.85,282.55s.53,1.37.74.93c.21-.44,1.12-3.21,1-3.55-.12-.34-.71-1.81-.71-1.81l.4-6.35-.69-1.93-1.18,5.13.49,2.86-.06,4.7h0Z"/>
        <polygon class="cls-21" points="62.62 295.69 66.79 296.8 67.66 296.12 75.84 296.15 73.32 294.46 67.73 295.44 62.62 295.69"/>
        <polygon class="cls-21" points="90.11 296.01 94.48 296.74 96.12 295.02 94.19 294.43 90.11 296.01"/>
        <path class="cls-21" d="M115.02,295.82l1.25.51,3.76-.09s4.11-1.06,3.89-1.09c-.22-.03-7.53,0-7.53,0l-1.37.67Z"/>
        <polygon class="cls-21" points="146.92 295.82 151.37 296.37 151.41 294.36 146.92 295.82"/>
        <polygon class="cls-21" points="156.94 296.01 159.27 296.58 162.65 296.01 161.86 294.62 156.85 295.82 156.94 296.01"/>
        <path class="cls-21" d="M187.62,295.82l2.27,1.01,2.21-.28,2.3.19v-4.26s-.34-1.34-.53-1.18c-.19.16-1.7,4.07-1.7,4.07l-4.56.46h0Z"/>
        <path class="cls-21" d="M193.54,279.59l-1.31-2.02,1.56-7.47s.75,4.82.72,5.01c-.03.19-.96,4.48-.96,4.48h0Z"/>
        <path class="cls-21" d="M193.41,260.77l-.98-2.14h1.08c-.06,1.23-.1,2.14-.1,2.14Z"/>
        <path class="cls-21" d="M43.95,262.14c.01.11.37,1.7.37,1.7l.96-3.61-.51-.86-.82,2.77Z"/>
      </g>
      <g>
        <path class="cls-15" d="M43.48,272.08v-.32l1.37.1-1.37-3.56v-8.97h9.51l1.62,1.33,4.47-1.33h11.1l.35,1.2,10.58,2.86,4.51-4.07h12.62l1.79,3.69,2.07-3.69h18.42l2.03,1.45,10.95-1.45h18.47l.08,1.82,4.26-1.82h31.31l2.52,1.95-.13-1.95h6.79v9.73l-2.24,2.86.29.16h-3.35v-7.75h-14.29l-1.57-1.87-1.71,1.87h-26.39l-.84-3.12-.42,3.12h-31.11l-3.29-3.61.28,2.68.32.94h-38.03l-2.3-1.81-.38,1.81h-15.46c-.62-.82-1.44-1.94-1.59-2.24-.14-.29-.54,1.06-.85,2.24h-6.15v7.75h-4.27Z"/>
        <path class="cls-3" d="M42.48,272.08v-.4l2.36.18-2.36-6.16v-7.07h9.66l2.48,2.03,6.83-2.03h8.54l.56,1.9,10.58,2.86,5.29-4.76h3.55v.7l1.1-.7h6.86l2.12,4.39,2.47-4.39h17.05l3.01,2.15,10.95-1.45.17-.7h18.26l.11,2.52,5.89-2.52h28.78l3.42,2.65-.18-2.65h7.84v9.18l-1,1.25-2.24,2.86.29.16h-3.35v-7.75h-14.29l-1.57-1.87-1.71,1.87h-26.39l-.84-3.12-.42,3.12h-31.11l-3.29-3.61.28,2.68.32.94h-38.03l-2.3-1.81-.38,1.81h-15.46c-.62-.82-1.44-1.94-1.59-2.24-.14-.29-.54,1.06-.85,2.24h-6.15v7.75h-5.27Z"/>
        <polygon class="cls-8" points="192.46 272.08 191.53 272.08 191.53 264.94 192.63 264.18 192.46 272.08"/>
        <path class="cls-26" d="M191.47,264.33l.63-.67-8.71-1.06-3.3.75-2.99-1.18-14.56.99-11.58.5-3.49.27.11.4h26.39l1.71-1.87,1.57,1.87h14.23ZM146.35,264.02h0l-1.99-.89s-10.02-1.03-10.89-1.03-18.27,2.23-18.27,2.23h31.11l.04-.31h0ZM112.19,263.36l-1.99-.64-10.08,1.6h12.4l-.32-.94v-.03ZM100.11,264.33l-11.08-1.79-2.3-.12-.44,1.31-11.82.61h25.63ZM72.17,262.52l-9.59,1.2-4.67-1.06-3.21-.61s.03.02.04.04c.15.3.97,1.42,1.59,2.24h15.46l.38-1.81h0ZM54.69,262.05l-8.1.49,1.16,1.79h6.15c.27-1.05.62-2.23.79-2.28Z"/>
        <polygon class="cls-19" points="45.99 272.08 46.28 265.34 46.59 262.54 47.81 264.09 47.76 272.08 45.99 272.08"/>
        <polygon class="cls-19" points="195.52 258.63 197.83 258.63 197.83 267.81 196.83 269.06 195.52 270.73 195.52 258.63"/>
        <path class="cls-26" d="M42.48,260.72v-2.09h9.66l2.48,2.03,6.83-2.03h8.54l.56,1.9.7.19h-28.76ZM84.09,260.72l2.32-2.09h3.55v.7l1.1-.7h6.86l1.01,2.09h-14.84ZM101.34,260.72l1.17-2.09h17.05l2.93,2.09h-21.15ZM123.03,260.72l10.5-1.39.17-.7h18.26l.09,2.09h-29.03ZM153.09,260.72l4.88-2.09h28.78l2.7,2.09h-36.36ZM190.13,260.72l-.14-2.09h7.84v2.09h-7.7Z"/>
        <path class="cls-8" d="M44.65,272.08h-2.17v-.4l2.17.16v.23h0ZM44.65,271.37l-2.17-5.67v-7.07h2.17v12.74Z"/>
        <path class="cls-21" d="M192.79,272.08c.09-.37.14-.65.12-.71-.09-.19-.59-3.42-.59-3.42l.29-2.8h.76s-.15,6.93-.15,6.93h-.43Z"/>
        <polygon class="cls-21" points="159.39 261.97 164.12 263.77 168.66 263.9 168.59 262.75 159.39 261.97"/>
        <polygon class="cls-21" points="128.89 263.09 133.13 263.58 139.35 262.21 136.8 261.09 128.89 263.09"/>
        <polygon class="cls-21" points="116.69 261.84 118.75 263.09 122.42 262.65 118.38 261.01 116.69 261.84"/>
        <polygon class="cls-21" points="91.92 263.71 94.17 263.89 96.9 262.31 89.9 261.72 91.92 263.71"/>
        <polygon class="cls-21" points="184.97 263.21 188.14 263.49 188.67 261.65 185.5 261.28 184.97 263.21"/>
        <path class="cls-21" d="M57.77,263.29l1.2.47.56-.42,4.73.26s-1.42-1.68-1.62-1.65c-.2.03-4.87,1.34-4.87,1.34h0Z"/>
        <polygon class="cls-21" points="67.63 262.84 69.14 263.61 70.95 262.46 69.25 261.71 67.63 262.84"/>
        <path class="cls-21" d="M43.89,262.03c.19.06,4.37,2.3,4.37,2.3l-2.97-4.23-1.4,1.93Z"/>
      </g>
    </g>
    <polygon class="cls-25" points="78.72 288.71 84.32 288.54 84.18 278.74 84.18 270.76 78.63 270.99 78.66 277.51 75.36 277.76 75.22 271.35 70.09 271.35 70.12 288.12 75.33 288.12 75.3 282.19 78.69 282.05 78.72 288.71"/>
    <polygon id="_1" data-name="1" class="cls-25" points="101.42 283.92 95.2 284.09 95.17 281.74 99.38 281.8 99.43 277.68 95.43 277.71 95.48 275.47 100.8 275.44 100.92 270.99 91.4 271.18 90.33 271.91 90.22 288.38 101.25 288.46 101.42 283.92"/>
    <path id="_2" data-name="2" class="cls-25" d="M119.14,277.65l-4.12-6.64-4.93.2-3.56,7.25-.67,10.02,4.82.08.14-3,4-.34.28,3.47,5.04-.22-1.01-10.84h0ZM111.02,281.38l.2-2.52,1.51-3.16,1.57,3.22.17,2.27-3.44.2h0Z"/>
    <path id="_3" data-name="3" class="cls-25" d="M130.89,270.96l-5.71.25c0,.67-.14,14.92-.14,14.92l-.11,2.18,10.58.25.14-5.26-5.15.14.39-12.49Z"/>
    <polygon id="_4" data-name="4" class="cls-25" points="150.96 270.9 137.82 271.18 137.88 276.08 141.91 275.94 141.86 288.51 147.34 288.26 146.76 275.83 151.18 275.89 150.96 270.9"/>
    <polygon id="_5" data-name="5" class="cls-25" points="164.56 288.71 170.16 288.54 170.02 278.74 170.02 270.76 164.47 270.99 164.5 277.51 161.2 277.76 161.06 271.35 155.93 271.35 155.96 288.12 161.17 288.12 161.14 282.19 164.53 282.05 164.56 288.71"/>
    <path class="cls-24" d="M121.28,247.78c18.81,0,34.14-1.03,34.14-2.29s-15.34-2.29-34.14-2.29-34.14,1.03-34.14,2.29,15.34,2.29,34.14,2.29h0Z"/>
  </g>
</svg>