<?xml version="1.0" encoding="UTF-8"?>
<svg id="Layer_1" data-name="Layer 1" xmlns="http://www.w3.org/2000/svg" xmlns:xlink="http://www.w3.org/1999/xlink" viewBox="0 0 242.56 343.05">
  <defs>
    <style>
      .cls-1 {
        fill: #35393b;
      }

      .cls-2, .cls-3 {
        fill: aqua;
      }

      .cls-4 {
        fill: #525e61;
      }

      .cls-5 {
        fill: #44a3b4;
      }

      .cls-5, .cls-6, .cls-7, .cls-3, .cls-8, .cls-9, .cls-10, .cls-11, .cls-12, .cls-13, .cls-14, .cls-15, .cls-16, .cls-17, .cls-18, .cls-19, .cls-20, .cls-21, .cls-22, .cls-23, .cls-24, .cls-25, .cls-26, .cls-27, .cls-28, .cls-29, .cls-30, .cls-31, .cls-32, .cls-33, .cls-34, .cls-35, .cls-36, .cls-37 {
        fill-rule: evenodd;
      }

      .cls-6 {
        fill: #110b2c;
      }

      .cls-7 {
        fill: #e8e108;
      }

      .cls-38 {
        fill: #5f6d70;
      }

      .cls-8 {
        fill: #64bc9d;
      }

      .cls-9 {
        fill: #f18700;
      }

      .cls-10 {
        fill: #20597c;
      }

      .cls-11 {
        fill: #fff;
      }

      .cls-12 {
        fill: #240000;
      }

      .cls-39 {
        fill: none;
      }

      .cls-13 {
        fill: #150a30;
      }

      .cls-14 {
        fill: #ef7b00;
      }

      .cls-40 {
        fill: #212437;
      }

      .cls-15 {
        fill: #65bc95;
      }

      .cls-41 {
        fill: #212426;
      }

      .cls-16 {
        fill: #84c282;
      }

      .cls-17 {
        fill: #6a6663;
      }

      .cls-18 {
        fill: url(#GradientFill_7);
      }

      .cls-19 {
        fill: #fcd87c;
      }

      .cls-42 {
        fill: #374447;
      }

      .cls-20 {
        fill: #6fc0c2;
      }

      .cls-21 {
        fill: #020006;
      }

      .cls-22 {
        fill: #264b8a;
      }

      .cls-23 {
        fill: #1a1342;
      }

      .cls-24 {
        fill: #eb5d0b;
      }

      .cls-25 {
        fill: #008631;
      }

      .cls-43 {
        fill: #361b24;
      }

      .cls-44 {
        fill: #b9c6c9;
      }

      .cls-26 {
        fill: #380307;
      }

      .cls-27 {
        fill: #5d1700;
      }

      .cls-28 {
        fill: #2b3234;
      }

      .cls-29 {
        fill: #49af57;
      }

      .cls-30 {
        fill: #c9d9c7;
      }

      .cls-31 {
        fill: #c5d100;
      }

      .cls-32 {
        fill: #19669b;
      }

      .cls-45 {
        fill: #a9a9a9;
      }

      .cls-33 {
        fill: #3d8aaa;
      }

      .cls-34 {
        fill: #064d22;
      }

      .cls-35 {
        fill: #241a59;
      }

      .cls-36 {
        fill: #8dc585;
      }

      .cls-46 {
        fill: #737d80;
      }

      .cls-47 {
        fill: #4eb8a1;
      }

      .cls-48 {
        fill: #049881;
      }

      .cls-37 {
        fill: #f8ab16;
      }
    </style>
    <radialGradient id="GradientFill_7" data-name="GradientFill 7" cx="108.36" cy="74.35" fx="108.36" fy="74.35" r="54.23" gradientUnits="userSpaceOnUse">
      <stop offset="0" stop-color="#f0e500"/>
      <stop offset="1" stop-color="#e30f13"/>
    </radialGradient>
  </defs>
  <g id="Layer_1-2" data-name="Layer_1">
    <rect class="cls-45" x="-571.11" y="-114.91" width="850.39" height="566.93"/>
    <g id="_1766331888" data-name=" 1766331888">
      <g>
        <rect class="cls-48" width="242.56" height="343.05"/>
        <g>
          <polygon class="cls-47" points="121.32 171.53 209.43 181.73 224.94 184.21 209.36 182.89 121.32 171.53"/>
          <polygon class="cls-47" points="121.32 171.53 208.45 192.65 223.77 196.8 208.35 193.37 121.32 171.53"/>
          <polygon class="cls-47" points="121.32 171.54 206.85 202.99 221.82 209.2 206.63 204.11 121.32 171.54"/>
          <polygon class="cls-47" points="121.32 171.54 204.51 213.5 219.09 221.31 204.33 214.19 121.32 171.54"/>
          <polygon class="cls-47" points="121.31 171.55 201.64 223.29 215.61 233.04 201.29 224.34 121.31 171.55"/>
          <polygon class="cls-47" points="121.31 171.55 198.02 233.07 211.41 244.3 197.76 233.7 121.31 171.55"/>
          <polygon class="cls-47" points="121.31 171.55 193.98 242.01 206.52 255 193.5 242.96 121.31 171.55"/>
          <polygon class="cls-47" points="121.31 171.56 189.21 250.76 200.99 265.07 188.87 251.33 121.31 171.56"/>
          <polygon class="cls-47" points="121.31 171.56 184.12 258.59 194.86 274.44 183.54 259.42 121.31 171.56"/>
          <polygon class="cls-47" points="121.3 171.57 178.34 266.06 188.17 283.01 177.94 266.53 121.3 171.57"/>
          <polygon class="cls-47" points="121.3 171.57 172.36 272.53 180.97 290.74 171.68 273.2 121.3 171.57"/>
          <polygon class="cls-47" points="121.3 171.57 165.74 278.49 173.31 297.57 165.29 278.85 121.3 171.57"/>
          <polygon class="cls-47" points="121.3 171.57 159.05 283.42 165.26 303.45 158.29 283.91 121.3 171.57"/>
          <polygon class="cls-47" points="121.29 171.58 151.79 287.68 156.88 308.32 151.29 287.93 121.29 171.58"/>
          <polygon class="cls-47" points="121.29 171.58 144.58 290.9 148.22 312.13 143.78 291.2 121.29 171.58"/>
          <polygon class="cls-47" points="121.29 171.58 136.9 293.3 139.35 314.86 136.38 293.43 121.29 171.58"/>
          <polygon class="cls-47" points="121.28 171.58 129.4 294.71 130.35 316.5 128.57 294.81 121.28 171.58"/>
          <polygon class="cls-47" points="121.28 171.58 121.54 295.24 121.28 317.07 121.02 295.24 121.28 171.58"/>
          <polygon class="cls-47" points="121.28 171.58 113.99 294.81 112.21 316.5 113.16 294.71 121.28 171.58"/>
          <polygon class="cls-47" points="121.27 171.58 106.18 293.43 103.21 314.86 105.66 293.3 121.27 171.58"/>
          <polygon class="cls-47" points="121.27 171.58 98.78 291.2 94.34 312.13 97.98 290.9 121.27 171.58"/>
          <polygon class="cls-47" points="121.27 171.58 91.26 287.93 85.68 308.32 90.77 287.68 121.27 171.58"/>
          <polygon class="cls-47" points="121.26 171.57 84.27 283.91 77.29 303.45 83.51 283.42 121.26 171.57"/>
          <polygon class="cls-47" points="121.26 171.57 77.27 278.85 69.25 297.57 76.82 278.49 121.26 171.57"/>
          <polygon class="cls-47" points="121.26 171.57 70.88 273.2 61.59 290.74 70.2 272.53 121.26 171.57"/>
          <polygon class="cls-47" points="121.25 171.57 64.62 266.53 54.39 283.01 64.22 266.06 121.25 171.57"/>
          <polygon class="cls-47" points="121.25 171.56 59.02 259.42 47.7 274.44 58.43 258.59 121.25 171.56"/>
          <polygon class="cls-47" points="121.25 171.56 53.69 251.33 41.57 265.07 53.35 250.76 121.25 171.56"/>
          <polygon class="cls-47" points="121.25 171.55 49.06 242.96 36.04 255 48.58 242.01 121.25 171.55"/>
          <polygon class="cls-47" points="121.25 171.55 44.8 233.7 31.15 244.3 44.54 233.07 121.25 171.55"/>
          <polygon class="cls-47" points="121.25 171.55 41.27 224.34 26.95 233.04 40.92 223.29 121.25 171.55"/>
          <polygon class="cls-47" points="121.24 171.54 38.23 214.19 23.47 221.31 38.05 213.5 121.24 171.54"/>
          <polygon class="cls-47" points="121.24 171.54 35.92 204.11 20.74 209.2 35.71 202.99 121.24 171.54"/>
          <polygon class="cls-47" points="121.24 171.53 34.21 193.37 18.79 196.8 34.11 192.65 121.24 171.53"/>
          <polygon class="cls-47" points="121.24 171.53 33.2 182.89 17.62 184.21 33.12 181.73 121.24 171.53"/>
          <polygon class="cls-47" points="121.24 171.52 32.82 171.89 17.22 171.52 32.82 171.16 121.24 171.52"/>
          <polygon class="cls-47" points="121.24 171.52 33.12 161.32 17.62 158.84 33.2 160.16 121.24 171.52"/>
          <polygon class="cls-47" points="121.24 171.51 34.11 150.4 18.79 146.25 34.21 149.68 121.24 171.51"/>
          <polygon class="cls-47" points="121.24 171.51 35.71 140.06 20.74 133.85 35.92 138.93 121.24 171.51"/>
          <polygon class="cls-47" points="121.24 171.5 38.05 129.54 23.47 121.74 38.23 128.86 121.24 171.5"/>
          <polygon class="cls-47" points="121.25 171.5 40.92 119.76 26.95 110.01 41.27 118.7 121.25 171.5"/>
          <polygon class="cls-47" points="121.25 171.5 44.54 109.98 31.15 98.75 44.8 109.34 121.25 171.5"/>
          <polygon class="cls-47" points="121.25 171.49 48.58 101.04 36.04 88.05 49.06 100.09 121.25 171.49"/>
          <polygon class="cls-47" points="121.25 171.49 53.35 92.28 41.57 77.98 53.69 91.72 121.25 171.49"/>
          <polygon class="cls-47" points="121.25 171.49 58.43 84.45 47.7 68.61 59.02 83.63 121.25 171.49"/>
          <polygon class="cls-47" points="121.25 171.48 64.22 76.99 54.39 60.04 64.62 76.52 121.25 171.48"/>
          <polygon class="cls-47" points="121.26 171.48 70.2 70.52 61.59 52.31 70.88 69.85 121.26 171.48"/>
          <polygon class="cls-47" points="121.26 171.48 76.82 64.56 69.25 45.48 77.27 64.19 121.26 171.48"/>
          <polygon class="cls-47" points="121.26 171.47 83.51 59.63 77.29 39.6 84.27 59.14 121.26 171.47"/>
          <polygon class="cls-47" points="121.27 171.47 90.77 55.37 85.68 34.73 91.26 55.12 121.27 171.47"/>
          <polygon class="cls-47" points="121.27 171.47 97.98 52.15 94.34 30.91 98.78 51.85 121.27 171.47"/>
          <polygon class="cls-47" points="121.27 171.47 105.66 49.74 103.21 28.19 106.18 49.62 121.27 171.47"/>
          <polygon class="cls-47" points="121.28 171.47 113.16 48.33 112.21 26.55 113.99 48.23 121.28 171.47"/>
          <polygon class="cls-47" points="121.28 171.47 121.02 47.81 121.28 25.98 121.54 47.81 121.28 171.47"/>
          <polygon class="cls-47" points="121.28 171.47 128.57 48.23 130.35 26.55 129.4 48.33 121.28 171.47"/>
          <polygon class="cls-47" points="121.29 171.47 136.38 49.62 139.35 28.19 136.9 49.74 121.29 171.47"/>
          <polygon class="cls-47" points="121.29 171.47 143.78 51.85 148.22 30.91 144.58 52.15 121.29 171.47"/>
          <polygon class="cls-47" points="121.29 171.47 151.29 55.12 156.88 34.73 151.79 55.37 121.29 171.47"/>
          <polygon class="cls-47" points="121.3 171.47 158.29 59.14 165.26 39.6 159.05 59.63 121.3 171.47"/>
          <polygon class="cls-47" points="121.3 171.48 165.29 64.19 173.31 45.48 165.74 64.56 121.3 171.48"/>
          <polygon class="cls-47" points="121.3 171.48 171.68 69.85 180.97 52.31 172.36 70.52 121.3 171.48"/>
          <polygon class="cls-47" points="121.3 171.48 177.94 76.52 188.17 60.04 178.34 76.99 121.3 171.48"/>
          <polygon class="cls-47" points="121.31 171.49 183.54 83.63 194.86 68.61 184.12 84.45 121.31 171.49"/>
          <polygon class="cls-47" points="121.31 171.49 188.87 91.72 200.99 77.98 189.21 92.28 121.31 171.49"/>
          <polygon class="cls-47" points="121.31 171.49 193.5 100.09 206.52 88.05 193.98 101.04 121.31 171.49"/>
          <polygon class="cls-47" points="121.31 171.5 197.76 109.34 211.41 98.75 198.02 109.98 121.31 171.5"/>
          <polygon class="cls-47" points="121.31 171.5 201.29 118.7 215.61 110.01 201.64 119.76 121.31 171.5"/>
          <polygon class="cls-47" points="121.32 171.5 204.33 128.86 219.09 121.74 204.51 129.54 121.32 171.5"/>
          <polygon class="cls-47" points="121.32 171.51 206.63 138.93 221.82 133.85 206.85 140.06 121.32 171.51"/>
          <polygon class="cls-47" points="121.32 171.51 208.35 149.68 223.77 146.25 208.45 150.4 121.32 171.51"/>
          <polygon class="cls-47" points="121.32 171.52 209.36 160.16 224.94 158.84 209.43 161.32 121.32 171.52"/>
          <polygon class="cls-47" points="121.32 171.52 209.74 171.16 225.34 171.52 209.74 171.89 121.32 171.52"/>
        </g>
        <path class="cls-40" d="M0,0h242.56v343.05H0V0h0ZM38.93,12.64c0,15.24-12.47,27.7-27.7,27.7v264.91c15.24,0,27.7,12.47,27.7,27.7h163.91c0-15.24,12.47-27.7,27.7-27.7V40.34c-15.24,0-27.7-12.47-27.7-27.7H38.93Z"/>
        <path class="cls-43" d="M42.39,17.09h157.58v.58c0,7.14,2.92,13.63,7.63,18.33,4.7,4.71,11.19,7.63,18.33,7.63h.58v258.34h-.58c-7.14,0-13.63,2.92-18.33,7.63-4.71,4.71-7.63,11.19-7.63,18.33v.58H41.81v-.58c0-7.14-2.92-13.63-7.63-18.33-4.71-4.71-11.19-7.63-18.33-7.63h-.58V43.62h.58c7.14,0,13.63-2.92,18.33-7.62,4.7-4.71,7.63-11.2,7.63-18.33v-.58h.58ZM198.81,18.24H42.96c-.15,7.23-3.17,13.78-7.96,18.57-4.79,4.79-11.34,7.8-18.57,7.96v256.05c7.23.15,13.79,3.17,18.57,7.96,4.79,4.79,7.8,11.34,7.96,18.57h155.86c.15-7.23,3.17-13.79,7.96-18.57,4.79-4.79,11.34-7.8,18.57-7.96V44.77c-7.23-.15-13.79-3.17-18.57-7.96-4.79-4.79-7.8-11.34-7.96-18.57h0Z"/>
        <path class="cls-2" d="M40.85,8.92v1.69h-2.55c-.03.89-.09,1.8-.2,2.68l-1.68-.21c.14-1.07.2-2.2.2-3.28h.85s0-.88,0-.88h3.39ZM36.17,14.7c-.2,1.08-.46,2.14-.79,3.18l1.61.52c.35-1.1.63-2.25.84-3.39l-1.66-.31ZM34.84,19.44c-.38,1.02-.85,2.03-1.35,2.99l1.5.79c.54-1.02,1.03-2.1,1.44-3.18l-1.58-.6h0ZM32.68,23.86c-.57.94-1.19,1.84-1.87,2.7l1.33,1.05c.72-.92,1.38-1.87,1.98-2.87l-1.45-.88ZM29.76,27.83c-.72.82-1.5,1.6-2.32,2.33l1.12,1.27c.87-.77,1.69-1.6,2.46-2.47l-1.27-1.12ZM26.19,31.21c-.86.68-1.76,1.31-2.69,1.88l.88,1.45c.99-.61,1.95-1.27,2.86-2l-1.05-1.33h0ZM22.07,33.91c-.96.52-1.96.97-2.98,1.37l.6,1.58c1.08-.41,2.15-.91,3.17-1.46l-.79-1.5h0ZM17.54,35.83c-1.05.33-2.09.6-3.18.81l.31,1.66c1.16-.22,2.26-.51,3.38-.86l-.52-1.61h0ZM12.74,36.9c-1.1.14-2.17.21-3.28.22v1.69c1.18-.01,2.32-.09,3.49-.23l-.2-1.68ZM8.41,39.46h1.69v3.39h-1.69v-3.39ZM8.41,44.54h1.69v3.39h-1.69v-3.39ZM8.41,49.62h1.69v3.39h-1.69v-3.39ZM8.41,54.7h1.69v3.39h-1.69v-3.39ZM8.41,59.78h1.69v3.39h-1.69v-3.39ZM8.41,64.86h1.69v3.39h-1.69v-3.39ZM8.41,69.94h1.69v3.39h-1.69v-3.39ZM8.41,75.03h1.69v3.39h-1.69v-3.39ZM8.41,80.11h1.69v3.39h-1.69v-3.39ZM8.41,85.19h1.69v3.39h-1.69v-3.39ZM8.41,90.27h1.69v3.39h-1.69v-3.39ZM8.41,95.35h1.69v3.39h-1.69v-3.39ZM8.41,100.43h1.69v3.39h-1.69v-3.39ZM8.41,105.51h1.69v3.39h-1.69v-3.39ZM8.41,110.59h1.69v3.39h-1.69v-3.39ZM8.41,115.67h1.69v3.39h-1.69v-3.39ZM8.41,120.75h1.69v3.39h-1.69v-3.39ZM8.41,125.83h1.69v3.39h-1.69v-3.39ZM8.41,130.92h1.69v3.39h-1.69v-3.39ZM8.41,136h1.69v3.39h-1.69v-3.39ZM8.41,141.08h1.69v3.39h-1.69v-3.39ZM8.41,146.16h1.69v3.39h-1.69v-3.39ZM8.41,151.24h1.69v3.39h-1.69v-3.39ZM8.41,156.32h1.69v3.39h-1.69v-3.39ZM8.41,161.4h1.69v3.39h-1.69v-3.39ZM8.41,166.48h1.69v3.39h-1.69v-3.39ZM8.41,171.56h1.69v3.39h-1.69v-3.39ZM8.41,176.64h1.69v3.39h-1.69v-3.39ZM8.41,181.72h1.69v3.39h-1.69v-3.39ZM8.41,186.8h1.69v3.39h-1.69v-3.39ZM8.41,191.89h1.69v3.39h-1.69v-3.39ZM8.41,196.97h1.69v3.39h-1.69v-3.39ZM8.41,202.05h1.69v3.39h-1.69v-3.39ZM8.41,207.13h1.69v3.39h-1.69v-3.39ZM8.41,212.21h1.69v3.39h-1.69v-3.39ZM8.41,217.29h1.69v3.39h-1.69v-3.39ZM8.41,222.37h1.69v3.39h-1.69v-3.39ZM8.41,227.45h1.69v3.39h-1.69v-3.39ZM8.41,232.53h1.69v3.39h-1.69v-3.39ZM8.41,237.61h1.69v3.39h-1.69v-3.39ZM8.41,242.69h1.69v3.39h-1.69v-3.39ZM8.41,247.78h1.69v3.39h-1.69v-3.39ZM8.41,252.86h1.69v3.39h-1.69v-3.39ZM8.41,257.94h1.69v3.39h-1.69v-3.39ZM8.41,263.02h1.69v3.39h-1.69v-3.39ZM8.41,268.1h1.69v3.39h-1.69v-3.39ZM8.41,273.18h1.69v3.39h-1.69v-3.39ZM8.41,278.26h1.69v3.39h-1.69v-3.39ZM8.41,283.34h1.69v3.39h-1.69v-3.39ZM8.41,288.42h1.69v3.39h-1.69v-3.39ZM8.41,293.5h1.69v3.39h-1.69v-3.39ZM8.41,298.58h1.69v3.39h-1.69v-3.39ZM8.41,303.67h1.69v3.39h-1.69v-3.39ZM10.35,308.49c1.09.04,2.19.15,3.27.33l.28-1.67c-1.15-.19-2.31-.3-3.47-.35l-.08,1.69ZM15.24,309.13c1.05.23,2.14.55,3.15.91l.57-1.59c-1.09-.39-2.22-.72-3.35-.97l-.37,1.65h0ZM19.91,310.64c.94.4,2.08.93,2.94,1.47l.86-1.46c-.99-.58-2.06-1.11-3.12-1.56l-.67,1.56h0ZM24.25,312.97c.92.61,1.79,1.26,2.63,1.97l1.09-1.29c-.9-.75-1.81-1.44-2.79-2.09l-.94,1.41h0ZM28.1,316.04c.79.75,1.54,1.57,2.24,2.4l1.31-1.08c-.74-.89-1.54-1.76-2.38-2.55l-1.17,1.23ZM31.35,319.74c.65.89,1.24,1.8,1.78,2.76l1.48-.83c-.57-1.02-1.2-1.99-1.89-2.93l-1.37,1h0ZM33.89,323.95c.48.98.9,2,1.25,3.03l1.6-.54c-.38-1.1-.82-2.18-1.33-3.23l-1.53.74h0ZM35.63,328.55c.29,1.06.52,2.12.68,3.21l1.68-.25c-.17-1.15-.42-2.28-.73-3.41l-1.63.45h0ZM36.51,333.39c.1,1.11.11,2.16.11,3.27h1.74v-1.69h-.05c-.02-.58-.05-1.15-.1-1.72l-1.69.14h0ZM40.04,336.67v-1.69h3.39v1.69h-3.39ZM45.13,336.67v-1.69h3.39v1.69h-3.39ZM50.21,336.67v-1.69h3.39v1.69h-3.39ZM55.29,336.67v-1.69h3.39v1.69h-3.39ZM60.37,336.67v-1.69h3.39v1.69h-3.39ZM65.45,336.67v-1.69h3.39v1.69h-3.39ZM70.53,336.67v-1.69h3.39v1.69h-3.39ZM75.61,336.67v-1.69h3.39v1.69h-3.39ZM80.69,336.67v-1.69h3.39v1.69h-3.39ZM85.77,336.67v-1.69h3.39v1.69h-3.39ZM90.85,336.67v-1.69h3.39v1.69h-3.39ZM95.93,336.67v-1.69h3.39v1.69h-3.39ZM101.02,336.67v-1.69h3.39v1.69h-3.39ZM106.1,336.67v-1.69h3.39v1.69h-3.39ZM111.18,336.67v-1.69h3.39v1.69h-3.39ZM116.26,336.67v-1.69h3.39v1.69h-3.39ZM121.34,336.67v-1.69h3.39v1.69h-3.39ZM126.42,336.67v-1.69h3.39v1.69h-3.39ZM131.5,336.67v-1.69h3.39v1.69h-3.39ZM136.58,336.67v-1.69h3.39v1.69h-3.39ZM141.66,336.67v-1.69h3.39v1.69h-3.39ZM146.74,336.67v-1.69h3.39v1.69h-3.39ZM151.82,336.67v-1.69h3.39v1.69h-3.39ZM156.91,336.67v-1.69h3.39v1.69h-3.39ZM161.99,336.67v-1.69h3.39v1.69h-3.39ZM167.07,336.67v-1.69h3.39v1.69h-3.39ZM172.15,336.67v-1.69h3.39v1.69h-3.39ZM177.23,336.67v-1.69h3.39v1.69h-3.39ZM182.31,336.67v-1.69h3.39v1.69h-3.39ZM187.39,336.67v-1.69h3.39v1.69h-3.39ZM192.47,336.67v-1.69h3.39v1.69h-3.39ZM197.55,336.67v-1.69h3.39v1.69h-3.39ZM202.63,336.67v-1.69h.84c0-.31.02-.61.04-.92l1.69.11c-.05.84-.05,1.66-.05,2.51h-2.52ZM205.35,332.52c.1-1.03.34-2.22.59-3.22l-1.64-.41c-.27,1.08-.53,2.33-.63,3.43l1.68.2ZM206.39,327.71c.31-1.03.73-2.09,1.17-3.07l-1.54-.7c-.47,1.04-.91,2.17-1.24,3.26l1.62.51ZM208.28,323.17c.51-.97,1.08-1.91,1.7-2.81l-1.39-.97c-.66.96-1.26,1.96-1.8,2.98l1.5.79ZM210.95,319.04c.67-.86,1.4-1.69,2.17-2.46l-1.2-1.2c-.82.83-1.59,1.7-2.31,2.61l1.33,1.05h0ZM214.31,315.44c.82-.73,1.68-1.41,2.57-2.04l-.97-1.39c-.95.67-1.86,1.39-2.73,2.17l1.12,1.27ZM218.26,312.5c.93-.57,1.9-1.1,2.89-1.55l-.7-1.54c-1.05.48-2.09,1.04-3.08,1.65l.88,1.45h0ZM222.66,310.31c1.03-.4,2.06-.73,3.13-1l-.41-1.64c-1.13.29-2.23.64-3.32,1.06l.6,1.58ZM227.39,308.95c1.08-.2,2.16-.35,3.26-.42l-.11-1.69c-1.17.08-2.31.23-3.46.45l.31,1.67h0ZM232.29,308.47c.35,0,.71,0,1.06,0v-4.01h-1.69v3.17l.63.63v.22s0,0,0,0ZM233.35,302.76h-1.69v-3.39h1.69v3.39ZM233.35,297.68h-1.69v-3.39h1.69v3.39ZM233.35,292.59h-1.69v-3.39h1.69v3.39ZM233.35,287.51h-1.69v-3.39h1.69v3.39ZM233.35,282.43h-1.69v-3.39h1.69v3.39ZM233.35,277.35h-1.69v-3.39h1.69v3.39ZM233.35,272.27h-1.69v-3.39h1.69v3.39ZM233.35,267.19h-1.69v-3.39h1.69v3.39ZM233.35,262.11h-1.69v-3.39h1.69v3.39ZM233.35,257.03h-1.69v-3.39h1.69v3.39ZM233.35,251.95h-1.69v-3.39h1.69v3.39ZM233.35,246.87h-1.69v-3.39h1.69v3.39ZM233.35,241.79h-1.69v-3.39h1.69v3.39ZM233.35,236.71h-1.69v-3.39h1.69v3.39ZM233.35,231.62h-1.69v-3.39h1.69v3.39ZM233.35,226.54h-1.69v-3.39h1.69v3.39ZM233.35,221.46h-1.69v-3.39h1.69v3.39ZM233.35,216.38h-1.69v-3.39h1.69v3.39ZM233.35,211.3h-1.69v-3.39h1.69v3.39ZM233.35,206.22h-1.69v-3.39h1.69v3.39ZM233.35,201.14h-1.69v-3.39h1.69v3.39ZM233.35,196.06h-1.69v-3.39h1.69v3.39ZM233.35,190.98h-1.69v-3.39h1.69v3.39ZM233.35,185.9h-1.69v-3.39h1.69v3.39ZM233.35,180.82h-1.69v-3.39h1.69v3.39ZM233.35,175.74h-1.69v-3.39h1.69v3.39ZM233.35,170.65h-1.69v-3.39h1.69v3.39ZM233.35,165.57h-1.69v-3.39h1.69v3.39ZM233.35,160.49h-1.69v-3.39h1.69v3.39ZM233.35,155.41h-1.69v-3.39h1.69v3.39ZM233.35,150.33h-1.69v-3.39h1.69v3.39ZM233.35,145.25h-1.69v-3.39h1.69v3.39ZM233.35,140.17h-1.69v-3.39h1.69v3.39ZM233.35,135.09h-1.69v-3.39h1.69v3.39ZM233.35,130.01h-1.69v-3.39h1.69v3.39ZM233.35,124.93h-1.69v-3.39h1.69v3.39ZM233.35,119.85h-1.69v-3.39h1.69v3.39ZM233.35,114.76h-1.69v-3.39h1.69v3.39ZM233.35,109.68h-1.69v-3.39h1.69v3.39ZM233.35,104.6h-1.69v-3.39h1.69v3.39ZM233.35,99.52h-1.69v-3.39h1.69v3.39ZM233.35,94.44h-1.69v-3.39h1.69v3.39ZM233.35,89.36h-1.69v-3.39h1.69v3.39ZM233.35,84.28h-1.69v-3.39h1.69v3.39ZM233.35,79.2h-1.69v-3.39h1.69v3.39ZM233.35,74.12h-1.69v-3.39h1.69v3.39ZM233.35,69.04h-1.69v-3.39h1.69v3.39ZM233.35,63.96h-1.69v-3.39h1.69v3.39ZM233.35,58.87h-1.69v-3.39h1.69v3.39ZM233.35,53.79h-1.69v-3.39h1.69v3.39ZM233.35,48.71h-1.69v-3.39h1.69v3.39ZM233.35,43.63h-1.69v-3.39h1.69v3.39ZM233.35,38.55h-1.11l.26.26c-.97,0-1.92-.05-2.88-.14l.17-1.68c1.21.12,2.34.13,3.56.13v1.43h0ZM228.17,36.77c-1.09-.18-2.15-.41-3.21-.72l-.48,1.62c1.12.32,2.25.58,3.4.76l.28-1.67h0ZM223.4,35.55c-1.04-.37-2.04-.8-3.02-1.29h0s-.77,1.51-.77,1.51c1.06.52,2.1.97,3.21,1.37l.58-1.59h0ZM218.93,33.49c-.95-.54-1.87-1.15-2.74-1.81l-1.01,1.36c.93.69,1.9,1.34,2.91,1.92l.85-1.47h0ZM214.9,30.66c-.84-.71-1.63-1.46-2.38-2.26l-1.24,1.15c.79.85,1.63,1.65,2.52,2.4l1.09-1.29ZM211.44,27.16c-.7-.84-1.35-1.73-1.94-2.65l-1.42.92c.63.98,1.32,1.92,2.06,2.81l1.31-1.08h0ZM208.65,23.1c-.54-.95-1.02-1.94-1.44-2.95l-1.57.64c.45,1.07.95,2.13,1.53,3.14l1.48-.83h0ZM206.63,18.62c-.36-1.04-.65-2.09-.88-3.16l-1.66.35c.25,1.14.55,2.25.93,3.36l1.6-.55ZM205.46,13.84c-.16-1.08-.26-2.17-.29-3.27l-1.69.04c.04,1.17.14,2.32.31,3.47l1.68-.25ZM203.44,8.92v1.69h-3.39v-1.69h3.39ZM198.36,8.92v1.69h-3.39v-1.69h3.39ZM193.28,8.92v1.69h-3.39v-1.69h3.39ZM188.2,8.92v1.69h-3.39v-1.69h3.39ZM183.12,8.92v1.69h-3.39v-1.69h3.39ZM178.03,8.92v1.69h-3.39v-1.69h3.39ZM172.95,8.92v1.69h-3.39v-1.69h3.39ZM167.87,8.92v1.69h-3.39v-1.69h3.39ZM162.79,8.92v1.69h-3.39v-1.69h3.39ZM157.71,8.92v1.69h-3.39v-1.69h3.39ZM152.63,8.92v1.69h-3.39v-1.69h3.39ZM147.55,8.92v1.69h-3.39v-1.69h3.39ZM142.47,8.92v1.69h-3.39v-1.69h3.39ZM137.39,8.92v1.69h-3.39v-1.69h3.39ZM132.31,8.92v1.69h-3.39v-1.69h3.39ZM127.23,8.92v1.69h-3.39v-1.69h3.39ZM122.14,8.92v1.69h-3.39v-1.69h3.39ZM117.06,8.92v1.69h-3.39v-1.69h3.39ZM111.98,8.92v1.69h-3.39v-1.69h3.39ZM106.9,8.92v1.69h-3.39v-1.69h3.39ZM101.82,8.92v1.69h-3.39v-1.69h3.39ZM96.74,8.92v1.69h-3.39v-1.69h3.39ZM91.66,8.92v1.69h-3.39v-1.69h3.39ZM86.58,8.92v1.69h-3.39v-1.69h3.39ZM81.5,8.92v1.69h-3.39v-1.69h3.39ZM76.42,8.92v1.69h-3.39v-1.69h3.39ZM71.34,8.92v1.69h-3.39v-1.69h3.39ZM66.25,8.92v1.69h-3.39v-1.69h3.39ZM61.17,8.92v1.69h-3.39v-1.69h3.39ZM56.09,8.92v1.69h-3.39v-1.69h3.39ZM51.01,8.92v1.69h-3.39v-1.69h3.39ZM45.93,8.92v1.69h-3.39v-1.69h3.39Z"/>
        <g>
          <path class="cls-2" d="M19.72,10.84c-1.12-.39-2.61-.31-3.97.2-1.81.68-3.39,2.26-3.65,4.33-.45,3.64,3.86,6.96,6.75,5.97,2.88-1,3.88-5.88,1.6-7.37-2.29-1.49-5.82-.46-5.91,1.95-.09,2.41,2.56,2.84,3.55,1.31.99-1.52-1.11-2.06-1.4-1.71-.29.35-.32.65-.32.65,0,0-.15.09-.25-.3-.1-.4-.19-1.07.68-1.14.87-.07,1.98.05,2.32,1.43.19.75-.09,1.59-.56,2.21-.72.96-1.85,1.1-2.97.73-1.15-.39-1.83-1.34-2.13-2.64-.37-1.59.97-3.66,2.75-4.42,2.85-1.21,6.01.12,7.12,3.33,1.15,3.35-2.1,8.38-5.98,8.19-3.01-.15-5.66-2.25-6.73-5.19-1.62-4.45,1.58-7.84,4.76-8.71,1.91-.52,4.17-.14,4.35,1.18h0Z"/>
          <path class="cls-2" d="M21.76,332.21c-1.12.39-2.61.31-3.97-.2-1.81-.68-3.39-2.26-3.65-4.34-.45-3.64,3.86-6.96,6.75-5.97,2.88,1,3.88,5.88,1.6,7.37-2.29,1.49-5.82.46-5.91-1.95s2.56-2.84,3.55-1.31c.99,1.52-1.11,2.06-1.4,1.71-.29-.35-.32-.65-.32-.65,0,0-.15-.09-.25.3-.1.39-.19,1.07.68,1.14.87.07,1.98-.05,2.33-1.43.19-.75-.09-1.59-.56-2.21-.72-.96-1.85-1.1-2.96-.73-1.15.39-1.83,1.34-2.14,2.64-.37,1.59.97,3.66,2.75,4.42,2.85,1.21,6.01-.12,7.12-3.33,1.15-3.35-2.1-8.38-5.98-8.19-3.01.15-5.67,2.25-6.73,5.19-1.62,4.45,1.58,7.84,4.76,8.71,1.9.52,4.17.14,4.35-1.18h0Z"/>
          <path class="cls-2" d="M220.79,10.84c1.12-.39,2.61-.31,3.97.2,1.81.68,3.39,2.26,3.65,4.33.45,3.64-3.86,6.96-6.75,5.97-2.88-1-3.88-5.88-1.6-7.37,2.29-1.49,5.82-.46,5.91,1.95.09,2.41-2.56,2.84-3.55,1.31-.98-1.52,1.11-2.06,1.4-1.71.29.35.32.65.32.65,0,0,.15.09.25-.3.1-.4.19-1.07-.68-1.14-.87-.07-1.98.05-2.32,1.43-.19.75.09,1.59.56,2.21.72.96,1.85,1.1,2.96.73,1.15-.39,1.83-1.34,2.14-2.64.37-1.59-.97-3.66-2.75-4.42-2.85-1.21-6.01.12-7.12,3.33-1.15,3.35,2.11,8.38,5.98,8.19,3.01-.15,5.67-2.25,6.73-5.19,1.62-4.45-1.58-7.84-4.76-8.71-1.9-.52-4.17-.14-4.35,1.18h0Z"/>
          <path class="cls-2" d="M222.83,332.21c1.12.39,2.61.31,3.97-.2,1.81-.68,3.39-2.26,3.65-4.34.45-3.64-3.86-6.96-6.75-5.97-2.88,1-3.88,5.88-1.6,7.37,2.29,1.49,5.82.46,5.91-1.95.09-2.41-2.56-2.84-3.55-1.31-.99,1.52,1.11,2.06,1.4,1.71.29-.35.32-.65.32-.65,0,0,.15-.09.25.3.1.39.19,1.07-.68,1.14-.87.07-1.98-.05-2.32-1.43-.19-.75.09-1.59.56-2.21.72-.96,1.85-1.1,2.97-.73,1.15.39,1.83,1.34,2.14,2.64.36,1.59-.97,3.66-2.76,4.42-2.85,1.21-6.01-.12-7.12-3.33-1.15-3.35,2.1-8.38,5.98-8.19,3.01.15,5.67,2.25,6.73,5.19,1.62,4.45-1.58,7.84-4.76,8.71-1.9.52-4.17.14-4.35-1.18h0Z"/>
        </g>
        <path class="cls-39" d="M47.31,272.11c4.59-1.41,15.07-2.28,21.97-1.78,19.52,1.42,37.13,10.69,57.48,10.65,27.21-.05,41.46-9.23,68.49-11.48"/>
        <g>
          <polygon class="cls-41" points="46.24 257.68 71.89 257.68 82.28 260.36 85.41 257.68 100.03 257.68 101.2 259.98 102.49 257.68 192.63 257.68 192.63 290.7 156.28 290.7 154.43 293.04 153.05 290.7 46.24 290.7 46.24 257.68"/>
          <polygon class="cls-1" points="192.43 263.34 192.63 290.7 156.28 290.7 154.43 293.04 153.05 290.7 65.62 294.19 50.12 290.7 51.85 280.22 50.46 277.05 49.92 263.34 77.95 263.34 88.34 266.02 91.47 263.34 106.09 263.34 107.26 265.64 108.55 263.34 127.24 263.34 132.9 265.21 137.1 263.34 160.54 263.34 165.34 265.34 171.2 263.34 192.43 263.34"/>
          <g>
            <path class="cls-39" d="M44.58,294.19v-11.32l1.37,1.21-1.37-3.83v-16.04l.62-.11s-.26-.25-.62-.62v-6.09c.48-.68.95-1.33,1.29-1.8h2.98v3.29l-2.09,1.31,2.09.81v4.88l-1.16,5.95,1.16,7.81v10.52h14l2.4,1.58,9.22-1.58h12.86l.2,1.46,1.59-1.46h9.7l.54,2.64,4.25-2.64h15.36l.3,1.77,1.25-1.77h32.94l.97,2.89,1.99-2.89h36.21v-6.68l1.79-.11-1.79-2.54v-16.93l2.44-3.15-2.44-1.49v-3.66h4.83l-1.03,5.09,1.5,3.51v12.78l-3.74,1.26,3.74.55v15.41h-16.07l-1.48-.9-11.83-.37-1.65,1.27h-22.69l-.93-.65-4.98-2.49-19.29,3.14h-9.14l-1.82-1.89-3.37,1.89h-15.68l-1.37-1.4-2.74,1.4h-26.32l-3.18-2.77-.42,2.77h-10.41Z"/>
            <path class="cls-4" d="M43.58,294.89v-12.89l2.37,2.08-2.37-6.63v-13.06l1.62-.28s-.86-.84-1.62-1.69v-3.57c.75-1.12,1.71-2.45,2.29-3.25h2.98v3.29l-2.09,1.31,2.09.81v4.88l-1.16,5.95,1.16,7.81v10.52h14l2.4,1.58,9.22-1.58h12.86l.2,1.46,1.59-1.46h9.7l.54,2.64,4.25-2.64h15.36l.3,1.77,1.25-1.77h32.94l.97,2.89,1.99-2.89h36.21v-6.68l1.79-.11-1.79-2.54v-16.93l2.44-3.15-2.44-1.49v-3.66h4.83l-1.03,5.09,2.49,5.85v10.1l-4.73,1.6,4.73.7v15.96h-15.92l-2.63-1.6-11.83-.37-2.56,1.97h-20.78l-1.93-1.35-4.98-.75-19.29,1.4-8.46.7-2.49-1.94-4.61,1.94h-13.91l-.53-.7-1.37-1.4-4.11,2.1h-24.15l-3.98-3.46-.53,3.46h-11.3Z"/>
            <path class="cls-38" d="M190.6,290.16l.71.77,2.64,1.84-.73-4.71,1.19-4.68-1.79.11v6.68h-2.03ZM194.42,283.37l-1.13-4.46.87-4.36-.68-3.61.06-4.05,1.49-1.18-1.68-.56s-.35-.42-.72-.91v16.59l1.79,2.54h0ZM192.63,259.25l1.47-1.88-.34-1.78h-1.13v3.66h0Z"/>
            <path class="cls-44" d="M48.18,290.51l6.38.62,6.66-.19,2.21.87,13.97-.5,8.03-.25,3.73,1.37,8.46-1.43h1.36s-.18-.85-.18-.85h-9.7l-1.59,1.46-.2-1.46h-12.86l-9.22,1.58-2.4-1.58h-14v-.2l-.66.55h0ZM102.15,291.05l7.18.08,9.93.79-.3-1.77h-15.36l-1.45.9h0ZM119.27,291.92l19.04-.87,14.25-.48,1.14.29-.24-.71h-32.94l-1.25,1.77h0ZM155.59,291.35l2.63.68,7.88-1.11,12.93.55,12.27-.55,1.32-.77h-36.21l-.82,1.2h0Z"/>
            <path class="cls-42" d="M48.85,255.59v3.29l-.71.45-.08-3.74h.79ZM50.01,290.16l-3.17,1.6,1.12-4.17.12-7.97-1.18-10.02,1.31-6.04-.06-2.84.69.27v4.88l-1.16,5.95,1.16,7.81v10.52h1.17Z"/>
            <path class="cls-42" d="M197.46,255.59l-.85,4.19v-4.19h.85ZM196.62,261.11l2.31,5.42v10.1l-2.31.78v-16.31h0ZM196.62,278.59l2.31.34v15.96h-2.31v-16.3Z"/>
            <path class="cls-38" d="M43.58,294.89v-12.89l2.17,1.92v10.98h-2.17ZM45.75,283.55l-2.17-6.1v-13.07l1.62-.28s-.86-.84-1.62-1.69v-3.57c.71-1.06,1.59-2.29,2.17-3.09v27.8h0Z"/>
            <path class="cls-38" d="M43.58,294.89v-1.91h11.59l-.29,1.91h-11.3ZM198.93,292.98v1.91h-15.92l-2.63-1.6-10-.32h14.96l5.97-2.05,2.64,1.84,4.97.21h0ZM168.48,292.98l-2.49,1.91h-20.78l-1.93-1.35-1.13-.57,11.63-1.85.65,1.91.78-1.13,1.75,1.07h6.85l2.3-2.05,2.37,2.05h0ZM126.48,292.98l-7.47,1.22-8.46.7-1.84-1.91,8.16-2.61-.37,2.61h9.98ZM106.85,292.98l-3.4,1.91h-13.91l-.53-.7-1.19-1.22h6.9l4.33-1.67.3,1.49,1.89-1.17,5.61,1.36ZM87.29,292.98l-3.75,1.91h-24.15l-2.2-1.91,15.5-.75,3.3-1.8,11.3,2.55h0Z"/>
            <path class="cls-44" d="M44.58,291.93c.31.19,1.18,1.37,1.18,1.37,0,0,1.06-4.54,1.06-4.79s-.59-3.77-.59-3.77l-1.65,7.19h0Z"/>
            <path class="cls-44" d="M45.01,279.52s.53,1.37.74.93c.21-.44,1.12-3.21,1-3.55-.12-.34-.71-1.81-.71-1.81l.39-6.35-.69-1.93-1.18,5.13.5,2.86-.06,4.7h0Z"/>
            <polygon class="cls-44" points="63.78 292.66 67.94 293.77 68.81 293.08 77 293.12 74.47 291.42 68.88 292.41 63.78 292.66"/>
            <polygon class="cls-44" points="91.27 292.98 95.64 293.71 97.27 291.99 95.34 291.39 91.27 292.98"/>
            <path class="cls-44" d="M116.18,292.79l1.25.51,3.76-.09s4.11-1.06,3.89-1.09c-.22-.03-7.53,0-7.53,0l-1.37.67h0Z"/>
            <polygon class="cls-44" points="148.07 292.79 152.52 293.33 152.56 291.32 148.07 292.79"/>
            <polygon class="cls-44" points="158.09 292.98 160.43 293.55 163.8 292.98 163.01 291.59 158 292.79 158.09 292.98"/>
            <path class="cls-44" d="M188.78,292.79l2.27,1.01,2.21-.28,2.3.19v-4.26s-.34-1.34-.53-1.18c-.19.16-1.7,4.07-1.7,4.07l-4.56.46h0Z"/>
            <path class="cls-44" d="M194.69,276.56l-1.31-2.02,1.56-7.47s.75,4.82.72,5.01c-.03.19-.96,4.48-.96,4.48h0Z"/>
            <path class="cls-44" d="M194.56,257.73l-.98-2.14h1.08c-.06,1.23-.1,2.14-.1,2.14Z"/>
            <path class="cls-44" d="M45.1,259.11c.01.11.37,1.7.37,1.7l.96-3.61-.51-.86-.82,2.77h0Z"/>
          </g>
          <g>
            <path class="cls-39" d="M44.63,269.04v-.32l1.37.1-1.37-3.56v-8.97h9.51l1.62,1.33,4.48-1.33h11.1l.35,1.2,10.58,2.86,4.51-4.07h12.62l1.79,3.69,2.08-3.69h18.42l2.03,1.45,10.95-1.45h18.47l.08,1.82,4.26-1.82h31.31l2.52,1.95-.13-1.95h6.79v9.73l-2.24,2.86.29.16h-3.35v-7.75h-14.29l-1.57-1.87-1.71,1.87h-26.39l-.84-3.12-.42,3.12h-31.11l-3.29-3.61.28,2.68.32.94h-38.03l-2.3-1.81-.38,1.81h-15.46c-.62-.82-1.44-1.94-1.59-2.24-.14-.29-.54,1.06-.85,2.24h-6.15v7.75h-4.27Z"/>
            <path class="cls-4" d="M43.63,269.04v-.4l2.36.18-2.36-6.16v-7.07h9.66l2.48,2.03,6.83-2.03h8.54l.56,1.9,10.58,2.86,5.29-4.76h3.55v.7l1.1-.7h6.86l2.12,4.39,2.47-4.39h17.05l3.01,2.15,10.95-1.45.17-.7h18.26l.11,2.52,5.89-2.52h28.78l3.42,2.65-.18-2.65h7.84v9.18l-1,1.25-2.24,2.86.29.16h-3.35v-7.75h-14.29l-1.57-1.87-1.71,1.87h-26.39l-.84-3.11-.42,3.11h-31.11l-3.29-3.61.28,2.68.32.94h-38.03l-2.3-1.81-.38,1.81h-15.46c-.62-.82-1.44-1.94-1.6-2.24-.14-.29-.54,1.06-.85,2.24h-6.15v7.75h-5.27Z"/>
            <polygon class="cls-38" points="193.62 269.04 192.69 269.04 192.69 261.91 193.78 261.15 193.62 269.04"/>
            <path class="cls-46" d="M192.63,261.29l.63-.67-8.71-1.06-3.3.75-2.99-1.18-14.56,1-11.58.5-3.49.27.11.4h26.39l1.71-1.87,1.57,1.87h14.23ZM147.51,260.99h0l-1.99-.89s-10.02-1.03-10.89-1.03-18.27,2.23-18.27,2.23h31.11l.04-.31h0ZM113.34,260.33l-1.99-.64-10.08,1.6h12.4l-.32-.94v-.03h0ZM101.27,261.29l-11.08-1.79-2.3-.12-.44,1.31-11.82.61h25.63ZM73.33,259.49l-9.59,1.2-4.67-1.06-3.21-.61s.03.02.04.04c.15.3.98,1.42,1.59,2.24h15.46l.38-1.81h0ZM55.84,259.02l-8.1.49,1.16,1.79h6.15c.27-1.05.62-2.23.79-2.28h0Z"/>
            <polygon class="cls-42" points="47.14 269.04 47.43 262.31 47.74 259.51 48.96 261.05 48.92 269.04 47.14 269.04"/>
            <polygon class="cls-42" points="196.67 255.59 198.98 255.59 198.98 264.78 197.98 266.02 196.67 267.7 196.67 255.59"/>
            <path class="cls-46" d="M43.63,257.68v-2.09h9.66l2.48,2.03,6.83-2.03h8.54l.56,1.9.7.19h-28.76ZM85.25,257.68l2.32-2.09h3.55v.7l1.1-.7h6.86l1.01,2.09h-14.84ZM102.49,257.68l1.17-2.09h17.05l2.93,2.09h-21.15ZM124.18,257.68l10.5-1.39.17-.7h18.26l.09,2.09h-29.03ZM154.24,257.68l4.88-2.09h28.78l2.7,2.09h-36.36ZM191.28,257.68l-.14-2.09h7.84v2.09h-7.7Z"/>
            <path class="cls-38" d="M45.81,269.04h-2.18v-.4l2.18.16v.23h0ZM45.81,268.33l-2.18-5.67v-7.07h2.18v12.74h0Z"/>
            <path class="cls-44" d="M193.94,269.04c.09-.37.14-.65.12-.71-.09-.19-.59-3.42-.59-3.42l.29-2.8h.76s-.15,6.93-.15,6.93h-.43Z"/>
            <polygon class="cls-44" points="160.54 258.93 165.27 260.74 169.82 260.86 169.74 259.72 160.54 258.93"/>
            <polygon class="cls-44" points="130.05 260.05 134.28 260.55 140.5 259.18 137.95 258.05 130.05 260.05"/>
            <polygon class="cls-44" points="117.85 258.81 119.9 260.05 123.58 259.62 119.53 257.98 117.85 258.81"/>
            <polygon class="cls-44" points="93.08 260.67 95.32 260.86 98.06 259.27 91.06 258.68 93.08 260.67"/>
            <polygon class="cls-44" points="186.12 260.18 189.3 260.46 189.83 258.62 186.65 258.25 186.12 260.18"/>
            <path class="cls-44" d="M58.92,260.25l1.2.47.56-.42,4.73.26s-1.42-1.68-1.62-1.65c-.2.03-4.87,1.34-4.87,1.34Z"/>
            <polygon class="cls-44" points="68.79 259.8 70.3 260.58 72.1 259.43 70.41 258.68 68.79 259.8"/>
            <path class="cls-44" d="M45.04,258.99c.19.06,4.37,2.3,4.37,2.3l-2.97-4.23-1.4,1.93h0Z"/>
          </g>
        </g>
        <polygon class="cls-2" points="80.67 284.35 86.47 284.17 86.33 274.02 86.33 265.76 80.59 265.99 80.62 272.75 77.19 273.01 77.05 266.37 71.74 266.37 71.77 283.74 77.16 283.74 77.14 277.59 80.64 277.45 80.67 284.35"/>
        <polygon id="_1" data-name="1" class="cls-2" points="102.99 279.39 96.56 279.56 96.53 277.13 100.93 277.18 100.99 272.92 96.79 272.95 96.85 270.63 102.36 270.6 102.47 265.99 92.61 266.2 91.51 266.95 91.4 284 102.82 284.08 102.99 279.39"/>
        <path id="_2" data-name="2" class="cls-2" d="M120.09,272.89l-4.2-6.87-5.1.2-3.62,7.51-.75,10.38,4.99.09.14-3.1,4.15-.35.29,3.6,5.22-.23-1.1-11.22h0ZM111.74,276.75l.26-2.61,1.51-3.28,1.57,3.33.2,2.35-3.54.2h0Z"/>
        <path id="_3" data-name="3" class="cls-2" d="M131.14,265.96l-5.91.26c0,.7-.15,15.45-.15,15.45l-.12,2.26,10.96.26.15-5.45-5.33.15.41-12.93h0Z"/>
        <polygon id="_4" data-name="4" class="cls-2" points="151.54 279.39 145.1 279.56 145.08 277.13 149.48 277.18 149.54 272.92 145.34 272.95 145.39 270.63 150.9 270.6 151.02 265.99 141.16 266.2 140.06 266.95 139.94 284 151.37 284.08 151.54 279.39"/>
        <path id="_5" data-name="5" class="cls-2" d="M165.63,284.72l5.19-2.31-3.57-5.09,1.94-.99-.43-9.7-4.38-.75-8.7.52.2,17.86,5.65-.09-.26-5.6.96-.2,3.39,6.35h0ZM160.76,270.46l3.04-.06-.03,3.8-2.96.23-.06-3.97Z"/>
        <g>
          <path class="cls-12" d="M59.34,206.79s2.14,6.06,3.01,5.58c.87-.48.31-1.48,1.48-1.57,1.18-.09,2.27,2.57,4.32,3.27,2.05.7,1.57-1.31,2.49-1.61.92-.31,1.31.48,4.01,2.18,2.7,1.7,2.05-.52,1.96-1.09-.09-.57,2.53.74,4.45,1.83,1.92,1.09,3.4.79,3.97-.04.57-.83.96-.7,2.31,0,1.35.7,1.26,3.53,3.27,4.67,2.01,1.13,1.05-2.62,2.09-3.49,1.05-.87,14.9,1.32,14.9,1.32,0,0,2.03-5.89-48.26-11.05Z"/>
          <path class="cls-12" d="M178.61,207.48s-2.14,6.06-3.01,5.58c-.87-.48-.31-1.48-1.48-1.57-1.18-.09-2.27,2.57-4.32,3.27-2.05.7-1.57-1.31-2.49-1.61-.92-.3-1.31.48-4.01,2.18-2.7,1.7-2.05-.52-1.96-1.09.09-.57-2.53.74-4.45,1.83-1.92,1.09-3.4.79-3.97-.04-.57-.83-.96-.7-2.31,0-1.35.7-1.26,3.53-3.27,4.67-2.01,1.13-1.05-2.62-2.09-3.49-1.05-.87-14.9,1.32-14.9,1.32,0,0-2.03-5.89,48.26-11.05Z"/>
          <path class="cls-12" d="M120.57,167.08c45.36,0,82.13,7.45,82.13,16.63,0,4-6.98,7.67-18.6,10.54,5.57-1.98,8.74-4.25,8.74-6.67,0-7.72-32.35-13.99-72.26-13.99s-72.27,6.26-72.27,13.99c0,2.41,3.17,4.69,8.74,6.67-11.62-2.87-18.6-6.54-18.6-10.54,0-1.51.27-3.64,2.13-5.03,9.46-7.07,42.09-11.6,79.99-11.6Z"/>
          <path class="cls-12" d="M40.25,178.19c-6.25,13.02.5,22.95,16.69,28.98,15.99,5.95,46.78,9.92,73.86,8.83,7.33-.29,18.68-.61,30.23-2.94,19.24-3.88,38.99-12.35,41.5-28.29l-17.94-7.26c-1.73,7.83-33.52,21.57-66.64,20.76-16.7-.41-56.49-7.27-63.44-16.29-2.37-3.07-5.04-5.86-5.04-5.86l-9.22,2.08Z"/>
          <path class="cls-26" d="M107.98,193.23c-3.63-1.14-35.19-8.04-42.15-13.92-6.96-5.88-9.49-29.15-13.43-38-3.95-8.85-4.08-4.64-4.08-4.64,0,0,6.21,30.17,8.59,35.58,2.38,5.41,6.61,12.64,12.98,15.26,5.69,2.33,28.53,9.17,37.02,12.24l2.52-1.53.52-.93.15-.45c-.95-1.85-2.12-3.62-2.12-3.62Z"/>
          <path class="cls-26" d="M101.29,185.02c.71-10.7,4.38-18.38-7.22-30.07-11.61-11.69-30.87-15.73-30.87-15.73,0,0-3.77,2.39,2.19,3.63,3.08.64,19.72,6.86,23.63,10.83,7.59,7.71,9.37,20.47,9.19,22.89-.18,2.42-2.26,2.78-3.64,4.1-1.38,1.32,6.73,4.34,6.73,4.34Z"/>
          <path class="cls-26" d="M69.03,119.55c1.59.45,10.33-1.96,18.74,11.03,8.41,12.99,8.4,26.63,8.4,26.63l-2.1-2.26s-3.75-1.68-3.34-2.17c.41-.5,2.3-8.85-3.36-17.52-5.66-8.67-10.02-11.68-13.29-12.89-3.27-1.21-6.2-.12-6.26-1.22-.04-.81-.79-2.76,1.21-1.6Z"/>
          <path class="cls-26" d="M83.89,170.93c-1.65-1.54-10.84-.49-21.54-.78-10.7-.29-20.79-7.99-23.58-11.56-2.79-3.58-3.39-8.37-3.39-8.37l-2.08-2.85s-.77-.38-.71.74c.1,1.95,1.22,6.4,2.67,10.53,2.29,6.49,7.75,11.03,16.41,14.89,8.67,3.86,28.29-.55,31.46.35,3.17.9,6.64,2.58,6.64,2.58,0,0-4.19-5.15-5.87-5.53Z"/>
          <path class="cls-37" d="M67.09,129.56c.65.44.83,1.32.39,1.98-.44.65-1.32.83-1.98.39-.65-.44-.83-1.32-.39-1.98.44-.65,1.32-.83,1.98-.39Z"/>
          <path class="cls-24" d="M47.83,144.53c.21.21.2.55-.02.76-.21.2-.55.2-.76-.02-.21-.21-.2-.55.02-.76.21-.21.55-.2.76.01Z"/>
          <path class="cls-26" d="M114.07,193.49l-.12-.14c.01.09.02.19.02.29l.09-.15h0ZM112.45,191.57h0c-1.81-2.06-3.44-3.55-4.76-4.14-4.95-2.2-10.07-14.44-20.91-21-10.85-6.56-13.41-16.67-11.64-28.69,1.42-9.65-4.88-12.92-10.84-15.59.37.71-.66.22-.24,1.15.98,2.15,6.44,3.75,7.58,5.62.68,1.12.67,5.19.33,5.85-.89,1.76-3.71-5.1-4.96-6.42-1.25-1.32-2.7-1.35-4.1-1.62.22.17-1.36-.09-1.55.35-.24.55.85,1.8.95,1.91,1.52,1.76,6.87,5.71,6.84,12.53-.03,6.82,2.73,11.97.65,13.43-2.09,1.47-2.54,4.05-2.54,4.05l4.31.09,8.62,7.83s20.13,21,23.9,25.16c1.71,1.89,3.28,4.23,4.71,6.53l.64-.39.52-.93,1.93-5.63c.21-.06.39-.09.56-.1Z"/>
          <path class="cls-27" d="M111.34,193.26c-1.61-1.77-3.06-3.04-4.26-3.57-4.95-2.2-10.07-14.44-20.91-21-10.85-6.56-13.41-16.67-11.64-28.69,1.42-9.65-4.52-14.03-10.48-16.7.37.71.78,1.51,1.2,2.43.98,2.15,4.64,3.57,5.78,5.44.68,1.12.67,5.19.33,5.85-.89,1.76-3.71-5.1-4.96-6.42-1.25-1.32-2.7-1.35-4.1-1.62.49.38.84.69,1.01.89,1.52,1.76,5.25,7.08,5.22,13.9-.03,6.82,2.73,11.97.65,13.43-2.09,1.47-2.54,4.05-2.54,4.05l4.31.09,8.62,7.84s20.13,21,23.9,25.16c1.37,1.51,2.65,3.32,3.85,5.17l2.11-1.28.52-.93,1.39-4.04Z"/>
          <path class="cls-27" d="M107.05,193.68c-3.63-1.14-35.19-8.04-42.15-13.92-6.96-5.88-9.49-29.15-13.43-38-3.95-8.85-3.56-3.45-3.56-3.45,0,0,5.69,28.98,8.07,34.39,2.38,5.41,6.61,12.64,12.98,15.26,5.72,2.35,28.75,9.23,37.14,12.28l3.33-2.02.11-.19c-.98-2.09-2.49-4.35-2.49-4.35Z"/>
          <path class="cls-27" d="M73.1,156.72s-17.85,1.64-21.9-2.58c-4.05-4.22-4.44-4.2-4.44-4.2,0,0-3.3,2.17.5,5.08,3.79,2.92,15.2,5.64,19.39,6.22,4.19.58,9.6.35,6.46-4.53Z"/>
          <path class="cls-27" d="M100.36,185.47c.71-10.7,4.38-18.38-7.22-30.07-11.61-11.69-30.87-15.73-30.87-15.73,0,0-3.77,2.39,2.19,3.63,3.08.64,19.72,6.86,23.63,10.83,7.59,7.7,9.37,20.47,9.19,22.89-.18,2.42-2.26,2.78-3.64,4.1-1.38,1.32,6.73,4.34,6.73,4.34Z"/>
          <path class="cls-12" d="M61.48,140.79c-.19.75.37,1.65,3.33,2.26,3.08.64,19.72,6.86,23.63,10.83,7.59,7.7,9.37,20.47,9.19,22.89-.18,2.42-2.26,2.78-3.64,4.1-.34.33-.1.76.47,1.23,1.89-1.82,4.53-4.96,4.47-8.23-.1-5.08-.63-9.94-7.47-17.78-6.84-7.83-14.88-10.01-17.4-11.11-2.52-1.1-9.33-3.11-12.58-4.19Z"/>
          <path class="cls-27" d="M68.1,119.99c1.59.45,10.33-1.96,18.74,11.03,8.41,12.99,8.4,26.63,8.4,26.63l-2.1-2.26s-3.75-1.68-3.34-2.17c.41-.5,2.3-8.85-3.36-17.52-5.66-8.66-10.02-11.68-13.29-12.89-3.27-1.21-6.2-.12-6.26-1.21-.04-.82-.79-2.76,1.21-1.6Z"/>
          <path class="cls-12" d="M90.52,152.1c.55-2.36,1.12-9.43-3.63-16.71-5.66-8.66-10.02-11.68-13.29-12.89-3.27-1.21-6.21-.12-6.26-1.22,0-.15-.04-.34-.07-.55,2.83-.1,9.55.5,15.51,7.44,7.78,9.07,8.63,13.29,9.14,19.05.51,5.75.28,6.53.28,6.53l-1.67-1.64Z"/>
          <path class="cls-27" d="M71.06,151.18c-4.47-1.12-9.91-3.41-11.22-6.89-1.31-3.48-1.13-4.03-2.06-2.53-.93,1.5,3.7,8.91,5.59,9.99,1.89,1.08,6.55,1.65,7.39,1.63.84-.02.3-2.2.3-2.2Z"/>
          <path class="cls-27" d="M82.96,171.37c-1.65-1.54-10.84-.49-21.54-.78-10.7-.3-20.79-7.99-23.58-11.56-2.79-3.58-3.39-8.37-3.39-8.37l-2.08-2.86s-.33,4.78,1.96,11.27c2.29,6.49,7.75,11.03,16.41,14.89,8.66,3.86,28.29-.55,31.46.35,3.17.91,6.64,2.58,6.64,2.58,0,0-4.19-5.16-5.87-5.53Z"/>
          <path class="cls-31" d="M80.8,164.83c2.66-7.01.4-11.79-.51-12.89-.9-1.1-.97-1.57-1.12-1.14-.15.43-2.32,2.91-1.96,7.36.36,4.44,2.57,7.97,3.59,6.67Z"/>
          <path class="cls-31" d="M77.84,125.62c-6.45-3.82-7.66-8.97-7.64-10.39.02-1.43-.22-1.83.17-1.59.38.24,3.63.83,6.12,4.53,2.49,3.7,2.95,7.83,1.35,7.46Z"/>
          <path class="cls-31" d="M34.82,158.82c-5.58-1.37-7.61-4.88-7.91-5.93-.3-1.05-.57-1.3-.23-1.2.33.09,2.85-.2,5.5,1.96,2.65,2.16,3.91,5.09,2.65,5.17Z"/>
          <path class="cls-12" d="M107.72,199.26c-1.17-1.8-2.42-3.56-3.76-5.04-3.77-4.16-23.9-25.16-23.9-25.16l-7.5-6.26s-1.55-3.3-1.48-4.59l10.54,9.7s1.34-.02,2.18.86c4.55,4.76,19.38,20.26,22.56,23.76,1.27,1.41,2.46,3.07,3.58,4.77l-.52.92-1.71,1.03h0ZM69.53,136.18h0c-.84.33-1.59-3.9-2.74-5.11-1.15-1.21-2.6-1.93-4-2.2.49.38.17-.09,1.01.89.85.98,5.25,7.08,5.23,13.9-.03,6.36,2.55,9.42,1.21,10.99.33.23.86.6,1.48,1.03.12-.1-.75.5.36-.28,1.11-.78-1.68-7.67-1.66-12.34.02-4.67-.17-4.86-.89-6.87Z"/>
          <path class="cls-12" d="M108.09,197.4c-1.11.75-31.57-8.19-35.35-9.91-3.78-1.72-11.58-8.08-11.58-8.08l-2.42-3.9-1.11-.07s6.25,8.66,11.75,11.64c4.61,2.5,29.49,10.26,37.45,12.71l1.77-1.07-.5-1.33Z"/>
          <path class="cls-12" d="M84.77,172.55s-9.68-.12-16.82.43c-7.14.55-11.47.4-15.05-.94-3.58-1.35-5.88-1.98-10.9-6.56-5.01-4.58-6.35-6.48-6.35-6.48l-.64-1.59-.38.5s1.6,4.47,3.95,6.36c2.35,1.89,7.95,7.46,14.94,9.38,6.99,1.91,20.84.22,23.79-.05,2.96-.27,8.82.86,9.46.94.64.08-1.82-1.83-1.82-1.83l-.19-.17Z"/>
          <path class="cls-12" d="M68.53,159.78c-2.53.23-12.32-2.51-12.32-2.51l.21.87s10.08,2.91,11.36,2.94c1.28.03.75-1.3.75-1.3Z"/>
          <path class="cls-12" d="M49.54,139.79s5.12,23.68,5.54,25.19c.42,1.51,1.13,3.88,1.01,4.37-.12.49-1.25-.04-1.25-.04,0,0-5.6-26.51-5.66-27.45-.06-.94.1-2.09.1-2.09l.26.03Z"/>
          <path class="cls-31" d="M53.59,161.67c-7.5.12-11.22-3.63-11.95-4.86-.73-1.22-1.14-1.45-.69-1.44.45,0,3.53-1.19,7.59.65,4.06,1.85,6.62,5.13,5.06,5.65Z"/>
          <path class="cls-31" d="M51.71,148.7c-10.48.28-15.75-4.91-16.79-6.61-1.04-1.7-1.62-2.01-.99-2.01.63,0,4.92-1.72,10.62.8,5.7,2.52,9.33,7.08,7.16,7.82Z"/>
          <path class="cls-31" d="M81.25,185.39c-1.6-.68-8.46.19-11.15,3.56-2.69,3.37-3.44,3.33-3.44,3.33,0,0,4.7,4.08,10.1.79,5.4-3.3,6.47-6.97,4.49-7.68Z"/>
          <path class="cls-31" d="M72,160.11c-1.28-.55-6.79.15-8.95,2.86-2.16,2.71-2.77,2.67-2.77,2.67,0,0,3.77,3.28,8.11.63,4.34-2.65,5.19-5.6,3.61-6.16Z"/>
          <path class="cls-31" d="M48.74,138.89c-3.65-6.55-2.1-11.6-1.37-12.83.73-1.22.73-1.69.95-1.29.21.4,2.72,2.55,3.01,7,.29,4.45-1.39,8.26-2.59,7.12Z"/>
          <g>
            <path class="cls-26" d="M130.21,191.58c3.63-1.14,35.19-8.04,42.15-13.92,6.96-5.88,9.49-29.15,13.43-38,3.95-8.85,4.08-4.64,4.08-4.64,0,0-6.21,30.17-8.59,35.58-2.38,5.41-6.61,12.65-12.98,15.26-5.69,2.34-28.53,9.17-37.02,12.24l-2.52-1.53-.52-.92-.15-.45c.95-1.85,2.13-3.62,2.13-3.62Z"/>
            <path class="cls-26" d="M136.9,183.37c-.71-10.7-4.38-18.38,7.22-30.06,11.61-11.69,30.88-15.73,30.88-15.73,0,0,3.77,2.39-2.19,3.63-3.08.64-19.72,6.86-23.63,10.83-7.59,7.7-9.37,20.47-9.19,22.89.18,2.42,2.26,2.78,3.64,4.1,1.38,1.31-6.73,4.34-6.73,4.34Z"/>
            <path class="cls-26" d="M169.16,117.9c-1.59.45-10.33-1.96-18.74,11.03-8.41,12.98-8.4,26.63-8.4,26.63l2.09-2.26s3.75-1.68,3.34-2.18c-.41-.49-2.3-8.85,3.36-17.52,5.66-8.66,10.02-11.68,13.29-12.89,3.27-1.21,6.2-.12,6.26-1.22.04-.81.79-2.76-1.21-1.6Z"/>
            <path class="cls-26" d="M154.3,169.28c1.65-1.54,10.84-.49,21.54-.78,10.7-.29,20.79-7.99,23.58-11.56,2.8-3.58,3.39-8.37,3.39-8.37l2.08-2.86s.77-.37.71.74c-.09,1.96-1.22,6.4-2.67,10.53-2.29,6.49-7.75,11.04-16.41,14.89-8.66,3.86-28.29-.55-31.46.35-3.17.91-6.63,2.58-6.63,2.58,0,0,4.18-5.16,5.87-5.53Z"/>
            <path class="cls-37" d="M171.1,127.91c-.66.44-.83,1.32-.39,1.98.44.66,1.32.83,1.98.39.65-.44.83-1.32.39-1.98-.44-.65-1.32-.83-1.98-.39Z"/>
            <path class="cls-24" d="M190.36,142.88c-.2.21-.2.55.01.76.21.21.55.2.76-.02.2-.21.2-.55-.02-.76-.21-.2-.55-.2-.75.02Z"/>
            <path class="cls-26" d="M124.12,191.84l.12-.14c0,.09-.02.19-.02.29l-.09-.15h0ZM125.75,189.92h0c1.81-2.06,3.45-3.55,4.76-4.14,4.95-2.2,10.07-14.44,20.91-21,10.85-6.56,13.41-16.67,11.63-28.69-1.42-9.65,4.88-12.92,10.84-15.59-.37.71.66.23.24,1.15-.98,2.15-6.44,3.75-7.58,5.62-.68,1.12-.67,5.19-.33,5.85.89,1.76,3.71-5.1,4.96-6.42,1.25-1.32,2.7-1.35,4.1-1.62-.22.17,1.35-.09,1.55.35.24.54-.85,1.8-.95,1.91-1.52,1.76-6.87,5.71-6.84,12.53.03,6.82-2.73,11.97-.65,13.43,2.09,1.46,2.54,4.05,2.54,4.05l-4.31.09-8.62,7.83s-20.13,21-23.9,25.16c-1.71,1.89-3.27,4.23-4.71,6.53l-.64-.39-.52-.92-1.93-5.63c-.21-.06-.39-.09-.56-.1Z"/>
            <path class="cls-27" d="M126.85,191.61c1.61-1.77,3.06-3.04,4.26-3.57,4.95-2.2,10.07-14.44,20.91-21,10.85-6.56,13.41-16.67,11.64-28.69-1.42-9.65,4.52-14.03,10.48-16.7-.37.71-.78,1.51-1.2,2.43-.98,2.15-4.64,3.57-5.78,5.44-.68,1.12-.67,5.19-.33,5.85.89,1.76,3.71-5.1,4.96-6.42,1.25-1.32,2.7-1.35,4.1-1.62-.49.38-.84.69-1.01.89-1.52,1.76-5.25,7.08-5.23,13.9.03,6.82-2.73,11.96-.64,13.43,2.09,1.46,2.54,4.05,2.54,4.05l-4.31.09-8.62,7.83s-20.13,21.01-23.9,25.16c-1.37,1.51-2.65,3.32-3.85,5.17l-2.11-1.28-.52-.92-1.39-4.04Z"/>
            <path class="cls-27" d="M131.14,192.02c3.63-1.13,35.19-8.04,42.15-13.92,6.96-5.88,9.49-29.15,13.43-38,3.94-8.85,3.56-3.45,3.56-3.45,0,0-5.69,28.98-8.07,34.39-2.38,5.41-6.61,12.64-12.98,15.26-5.72,2.35-28.75,9.24-37.14,12.28l-3.33-2.02-.11-.19c.98-2.09,2.49-4.35,2.49-4.35Z"/>
            <path class="cls-27" d="M165.1,155.07s17.85,1.64,21.9-2.58c4.05-4.22,4.44-4.2,4.44-4.2,0,0,3.3,2.17-.5,5.09-3.79,2.92-15.2,5.64-19.39,6.22-4.19.58-9.6.35-6.45-4.53Z"/>
            <path class="cls-27" d="M137.83,183.81c-.71-10.7-4.38-18.38,7.22-30.06,11.6-11.69,30.87-15.73,30.87-15.73,0,0,3.77,2.39-2.19,3.63-3.08.64-19.72,6.86-23.63,10.83-7.59,7.7-9.37,20.47-9.19,22.89.18,2.42,2.26,2.78,3.64,4.1,1.38,1.32-6.73,4.34-6.73,4.34Z"/>
            <path class="cls-12" d="M176.71,139.14c.19.75-.37,1.65-3.33,2.26-3.08.64-19.72,6.86-23.63,10.83-7.59,7.7-9.37,20.47-9.19,22.89.18,2.42,2.26,2.78,3.64,4.1.34.33.1.76-.47,1.23-1.89-1.82-4.53-4.96-4.46-8.23.09-5.08.63-9.94,7.47-17.78,6.84-7.83,14.88-10.01,17.4-11.11,2.52-1.1,9.33-3.11,12.58-4.19Z"/>
            <path class="cls-27" d="M170.09,118.34c-1.59.45-10.33-1.96-18.74,11.03-8.41,12.98-8.4,26.63-8.4,26.63l2.1-2.25s3.74-1.68,3.34-2.18c-.41-.49-2.3-8.85,3.36-17.52,5.66-8.67,10.02-11.68,13.29-12.89,3.27-1.21,6.21-.12,6.26-1.22.04-.81.79-2.76-1.21-1.6Z"/>
            <path class="cls-12" d="M147.67,150.45c-.55-2.36-1.12-9.43,3.63-16.72,5.66-8.67,10.02-11.68,13.29-12.89,3.27-1.21,6.21-.12,6.26-1.22,0-.15.04-.34.07-.55-2.83-.1-9.55.5-15.51,7.44-7.78,9.07-8.63,13.29-9.14,19.04-.51,5.75-.28,6.52-.28,6.52l1.67-1.64Z"/>
            <path class="cls-27" d="M167.13,149.53c4.47-1.12,9.91-3.41,11.22-6.89,1.31-3.48,1.13-4.04,2.06-2.53.93,1.51-3.7,8.91-5.59,9.99-1.9,1.08-6.55,1.65-7.39,1.63-.84-.02-.3-2.2-.3-2.2Z"/>
            <path class="cls-27" d="M155.23,169.72c1.65-1.54,10.84-.49,21.54-.78,10.7-.29,20.78-7.99,23.58-11.56,2.79-3.58,3.39-8.37,3.39-8.37l2.08-2.86s.33,4.78-1.96,11.27c-2.29,6.49-7.75,11.03-16.41,14.89-8.67,3.86-28.29-.55-31.46.35-3.17.9-6.64,2.58-6.64,2.58,0,0,4.18-5.16,5.87-5.53Z"/>
            <path class="cls-31" d="M157.39,163.18c-2.66-7.01-.4-11.79.51-12.89.9-1.1.97-1.57,1.12-1.14.15.43,2.32,2.92,1.96,7.36-.36,4.44-2.57,7.97-3.59,6.67Z"/>
            <path class="cls-31" d="M160.35,123.97c6.45-3.82,7.66-8.97,7.64-10.4-.02-1.43.22-1.83-.17-1.59-.38.24-3.63.83-6.12,4.53-2.49,3.7-2.95,7.84-1.35,7.46Z"/>
            <path class="cls-31" d="M203.74,156.61c2.27-5.28.69-9.01.04-9.89-.65-.87-.69-1.23-.82-.91-.13.32-1.87,2.16-1.75,5.57.13,3.42,1.71,6.19,2.53,5.23Z"/>
            <path class="cls-12" d="M130.47,197.6c1.17-1.8,2.42-3.56,3.76-5.04,3.77-4.16,23.9-25.16,23.9-25.16l7.5-6.26s1.55-3.3,1.48-4.59l-10.54,9.7s-1.34-.02-2.18.86c-4.55,4.76-19.38,20.26-22.56,23.76-1.27,1.41-2.46,3.06-3.58,4.77l.52.92,1.71,1.03h0ZM168.66,134.53h0c.84.33,1.59-3.9,2.74-5.11,1.15-1.21,2.6-1.93,4-2.2-.49.38-.16-.09-1.01.89-.85.98-5.25,7.08-5.22,13.9.03,6.36-2.55,9.42-1.21,10.99-.32.23-.86.6-1.48,1.03-.12-.1.75.5-.36-.28-1.11-.78,1.68-7.67,1.66-12.35-.02-4.67.17-4.86.89-6.87Z"/>
            <path class="cls-12" d="M130.1,195.75c1.11.75,31.57-8.19,35.35-9.91,3.78-1.72,11.58-8.08,11.58-8.08l2.43-3.9,1.11-.07s-6.25,8.66-11.75,11.64c-4.61,2.5-29.49,10.26-37.45,12.71l-1.77-1.07.5-1.33Z"/>
            <path class="cls-12" d="M153.42,170.9s9.67-.12,16.81.43c7.14.55,11.47.4,15.05-.95,3.58-1.35,5.88-1.98,10.9-6.56,5.01-4.58,6.34-6.48,6.34-6.48l.64-1.59.38.5s-1.6,4.47-3.95,6.36c-2.35,1.89-7.95,7.46-14.94,9.38-6.98,1.92-20.84.22-23.79-.05-2.95-.27-8.82.86-9.46.94-.64.08,1.82-1.83,1.82-1.83l.19-.17Z"/>
            <path class="cls-12" d="M169.66,158.12c2.53.24,12.32-2.51,12.32-2.51l-.21.87s-10.08,2.91-11.36,2.94c-1.28.03-.75-1.3-.75-1.3Z"/>
            <path class="cls-12" d="M188.65,138.14s-5.12,23.68-5.54,25.19c-.42,1.51-1.13,3.88-1.01,4.37.12.49,1.25-.04,1.25-.04,0,0,5.6-26.51,5.66-27.45.06-.95-.1-2.09-.1-2.09l-.26.03Z"/>
            <path class="cls-31" d="M184.61,160.02c7.5.12,11.22-3.63,11.95-4.86.73-1.22,1.15-1.45.69-1.44-.45,0-3.53-1.19-7.59.65-4.06,1.84-6.62,5.13-5.06,5.65Z"/>
            <path class="cls-31" d="M186.48,147.04c10.49.28,15.75-4.91,16.79-6.61,1.04-1.7,1.62-2.01.99-2.01-.63,0-4.92-1.72-10.62.8-5.7,2.52-9.34,7.07-7.16,7.82Z"/>
            <path class="cls-31" d="M153.47,185.04c1.6-.68,8.46.19,11.15,3.56,2.69,3.37,3.44,3.33,3.44,3.33,0,0-4.7,4.09-10.1.79-5.4-3.29-6.47-6.97-4.49-7.67Z"/>
            <path class="cls-31" d="M166.19,158.46c1.28-.55,6.79.15,8.95,2.86,2.16,2.71,2.77,2.67,2.77,2.67,0,0-3.77,3.28-8.11.63-4.34-2.65-5.19-5.6-3.61-6.16Z"/>
          </g>
          <path class="cls-27" d="M40.25,178.19c-6.25,13.02.5,22.95,16.69,28.98,15.99,5.95,46.78,9.92,73.86,8.83,7.33-.29,18.68-.61,30.23-2.94,19.24-3.88,38.99-12.35,41.5-28.29l-5.51-2.23c-1.16,1.48-2.54,2.92-4.16,4.23-7.82,6.27-18.11,11.78-35.97,15.17-6.97,1.32-20.81,2.54-36.2,2.3-24.02-.38-51.85-3.53-63.42-9.26-9.29-4.6-14.26-11.23-16.91-16.81l-.1.02Z"/>
          <path class="cls-12" d="M38.57,182.67c-2.85,10.83,4.09,19.19,18.37,24.5,15.99,5.95,46.78,9.92,73.86,8.83,7.33-.29,18.68-.61,30.23-2.94,19.24-3.88,38.99-12.35,41.5-28.29l-1.87-.76c-1.47,3.27-3.99,7.5-8.12,10.81-7.82,6.27-18.11,11.78-35.97,15.17-6.97,1.32-20.81,2.54-36.2,2.3-24.02-.38-51.85-3.53-63.42-9.26-11.37-5.64-16.27-14.31-18.37-20.36Z"/>
          <g>
            <path class="cls-25" d="M112.77,110.26s-7.6-9.41-4.16-19.17c3.44-9.77,4.88-13.57,4.88-13.57,0,0,9.04,14.83,9.77,24.06.72,9.23-4.7,15.19-10.49,8.68Z"/>
            <path class="cls-25" d="M132.44,110.33s7.6-9.41,4.16-19.17c-3.44-9.77-4.88-13.57-4.88-13.57,0,0-9.04,14.83-9.77,24.06-.72,9.22,4.7,15.19,10.49,8.68Z"/>
            <path class="cls-25" d="M116.03,90.37s5.25-9.41,5.79-13.93c.54-4.52.54-4.88.54-4.88l3.08,15.92s-3.26,28.22-9.41,2.9Z"/>
            <path class="cls-25" d="M129.19,90.43s-5.25-9.41-5.79-13.93c-.54-4.52-.54-4.88-.54-4.88l-3.08,15.92s3.26,28.22,9.41,2.89Z"/>
            <path class="cls-26" d="M119.2,185.25c2.12-3.88,22.97-35.14,24.05-45.69,1.08-10.54-15.59-32.07-19.44-42.66-3.84-10.59.19-5.76.19-5.76,0,0,18.64,28.86,21.01,35.31,2.38,6.45,4.68,15.92,1.45,23.25-2.88,6.55-16.48,30.71-21.11,40.13l-3.34.76-1.19-.35-.49-.25c-.7-2.32-1.14-4.74-1.14-4.74Z"/>
            <path class="cls-26" d="M118.17,172.98c-9.23-8.38-18.51-11.85-18.23-31,.28-19.16,13.15-38.1,13.15-38.1,0,0,5.09-1.04,1.1,4.81-2.06,3.02-10.97,21.66-11.04,28.15-.13,12.58,8.68,24.7,10.79,26.58,2.11,1.88,4.14.51,6.36.49,2.22-.01-2.13,9.07-2.13,9.07Z"/>
            <path class="cls-26" d="M92.31,92.11c-.97,1.66-10.23,6.7-6.78,24.36,3.45,17.66,14.47,29.08,14.47,29.08l-.07-3.58s1.78-4.43,1.04-4.52c-.74-.08-9.07-5.56-11.33-17.38-2.26-11.82-1.04-17.87.71-21.52,1.76-3.65,5.1-5.11,4.26-6.08-.62-.72-1.57-2.94-2.31-.36Z"/>
            <path class="cls-26" d="M121.35,147.13c.14-2.62,8.68-9.16,17.4-18.05,8.72-8.89,10.95-23.47,10.41-28.72-.55-5.25-3.92-9.74-3.92-9.74l-.57-4.07s4.14,3.74,7.46,11.02c3.33,7.28,2.42,15.49-1.72,25.72-4.14,10.23-24.13,22.38-26.05,25.7-1.92,3.31-3.47,7.52-3.47,7.52,0,0-.66-7.7.45-9.37Z"/>
            <path class="cls-28" d="M109.51,66.94c7.21-2.93,14.94-2.5,21.47.54,4.2,15.11-4.19,31.62-19.93,38.02-4.22,1.72-8.57,2.54-12.81,2.57-1.4-1.84-2.58-3.89-3.49-6.13-5.59-13.74,1.02-29.41,14.76-35Z"/>
            <path class="cls-21" d="M119.74,68.28c8.68.35,16.77,5.66,20.26,14.23,4.75,11.68-.87,25.02-12.55,29.77-5.17,2.1-10.66,2.17-15.59.59,3.16.13,6.39-.4,9.51-1.67,11.69-4.75,17.31-18.08,12.55-29.77-2.65-6.52-7.97-11.15-14.18-13.14Z"/>
            <path class="cls-17" d="M105.19,72.91c6.12-2.49,12.99.17,15.34,5.95,2.35,5.78-.71,12.48-6.83,14.97-6.12,2.49-12.99-.18-15.34-5.95-2.35-5.78.71-12.48,6.83-14.97Z"/>
            <path class="cls-30" d="M104.53,75.79c3.28-1.33,6.95.09,8.21,3.18,1.26,3.09-.38,6.68-3.66,8.01-3.28,1.33-6.96-.09-8.21-3.19-1.26-3.09.38-6.68,3.66-8.01Z"/>
            <polygon class="cls-28" points="129.84 83.4 130.6 84.7 141.47 75.47 138.6 73.74 129.84 83.4"/>
            <path class="cls-21" d="M141.97,86.32l-11.37-1.61,10.87-9.23c-.12,3.22-.16,6.48.5,10.85Z"/>
            <path class="cls-18" d="M92.72,85.41c-3.17,14.62,6.11,29.05,20.73,32.23,14.62,3.17,29.05-6.11,32.23-20.73,3.17-14.62-6.11-29.05-20.73-32.23-14.62-3.17-29.05,6.11-32.23,20.73Z"/>
            <path class="cls-9" d="M121.64,66.35c-.22,1.07-1.71.98-1.71.98-1.51-2.67-4.74-.69-4.72,1.32.01.78,1.63-.19,2.6.76,1.41,1.39,2.3,4.7,1.99,5.57-.44,1.24-.92,2.29-1.5,5.88-.28,1.75-.85,2.42-1.71,2.23-.52-.11-.92-1.2-1.51-1.67-1.05-.84-1.88,1.97-.75,2.94,1.21,1.03,3.55,2.54,3.79,2.98.45.85-3.23,3.74-3.88,6.25-.61,2.36.83,4.34-.15,3.93-2.04-.85-5.3-.46-5.14,1.69.89,12.26,11.6-8.47,12.62-11.02,3.21-7.99,3.04-19.22.08-21.81Z"/>
            <path class="cls-37" d="M117.45,67.76c-1.05,1.42,1.48.85,2.25,4.63.77,3.78,1.51,7.69-.14,10.66-1.66,2.96-4.41,2.36-4.79,4.74-.37,2.37,2.56,2.86,2.46,5.3-.1,2.43-3.13,3.08-5.7,2.95-2.57-.13-7.01,3.32-5.67,9.82,1.33,6.5,6.7,7.45,12.5,3.36,5.8-4.08,21.74-9.62,20.11-17.1-1.33-6.11-5.9-23.3-14.38-25.47-1.91-.49-4.29-.64-6.64,1.12Z"/>
            <path class="cls-7" d="M106.43,109.36c-2.04-3.64-1-9.37,1.36-9.62,2.37-.26,2.51,2.24,5.95,3.71,3.44,1.47,5.95-1.96,5.41-2.8-.54-.84-3.43,1.13-4.47-1.4-1.04-2.54,4.96-.81,9.55-6.67,4.57-5.84,2.39-14.01-.11-19.8-1-2.33-2.1-4.27-2.74-5.52,11.2,3.54,18.12,14.76,15.67,26.04-2.6,12-20.26,18.35-27.27,16.83-7.01-1.52-1.96-.15-3.37-.77Z"/>
            <path class="cls-24" d="M138.44,73.8c2.62,3.89,6.16,10.47,3.37,23.11-2.8,12.65-13.29,19.83-18.18,19.16-4.9-.67-9.26-.85-14.7-4.14-5.44-3.28-3.98-11.04-1.32-11.33,2.66-.29,3.09,2.4,6.53,3.87,3.44,1.47,6.47-2.49,5.93-3.33-.54-.84-3.43,1.13-4.47-1.4-1.04-2.54,4.96-.81,9.55-6.67,4.57-5.84,2.39-14.01-.1-19.8-1.71-3.96-3.69-6.84-3.23-6.98,3.45-1.07,7.04,2.22,8.16,2.93.65.41,5.65.4,8.46,4.57Z"/>
            <path class="cls-14" d="M106.25,109.19c-2.04-3.64-.7-8.36,1.37-8.58,2.66-.29,3.09,2.4,6.53,3.87,3.44,1.47,6.47-2.49,5.93-3.33-.3-.47-1.35-.05-2.39-.05-.81,0-1.62-.24-2.07-1.35-1.04-2.54,4.96-.81,9.55-6.67,4.57-5.84,2.39-14.01-.1-19.8-1-2.32-2.1-4.27-2.74-5.52,11.2,3.54,18.12,14.76,15.67,26.04-2.6,11.99-14.82,19.53-27.27,16.82-1.56-.34-3.06-.82-4.47-1.44Z"/>
            <path class="cls-7" d="M96.91,89.1c1.18-9.58,9.02-18.04,18.18-20.47,3.95-1.05,6.77-.77,7.06-.26.04.07-.03.14-.17.23-1.21-.16-3.34-.04-5.97.65-9.16,2.43-17,10.89-18.18,20.47,0,.2.01.37.04.52-.56.37-.96-.01-.96-1.14Z"/>
            <path class="cls-37" d="M111.67,82.72c-.03.15.06.3.22.33.15.03.3-.06.34-.21.03-.15-.06-.3-.22-.34-.15-.03-.3.06-.34.22Z"/>
            <path class="cls-37" d="M108.23,85.91c-.08.36.15.72.51.8.36.08.72-.15.8-.51.08-.36-.15-.72-.51-.8-.36-.08-.72.15-.8.51Z"/>
            <path class="cls-37" d="M103.36,87.71c-.07.31.13.61.43.67.3.07.61-.13.67-.43s-.13-.61-.43-.67c-.3-.07-.61.13-.67.43Z"/>
            <path class="cls-37" d="M108.24,90.9c-.08.36.15.72.51.8.36.08.72-.15.8-.51.08-.36-.15-.72-.51-.8-.36-.08-.72.15-.8.51Z"/>
            <path class="cls-37" d="M101.08,91.22c-.12.55.23,1.1.78,1.22.55.12,1.1-.23,1.22-.78.12-.55-.23-1.1-.79-1.22-.55-.12-1.1.23-1.22.78Z"/>
            <path class="cls-37" d="M104.03,94.64c-.02.11.05.23.16.25.12.02.23-.05.25-.16.03-.12-.05-.23-.16-.25-.11-.03-.23.05-.25.16Z"/>
            <path class="cls-37" d="M107.84,81.75c-.04.19.08.38.27.42.19.04.38-.08.42-.27.04-.19-.08-.38-.27-.42-.19-.04-.38.08-.42.27Z"/>
            <path class="cls-37" d="M111.05,87.93c-.18.84.35,1.66,1.19,1.85.84.18,1.67-.35,1.85-1.19.18-.84-.35-1.66-1.19-1.85-.84-.18-1.66.35-1.85,1.19Z"/>
            <path class="cls-37" d="M114.55,79.12c-.03.13.06.27.19.29.13.03.27-.06.29-.19.03-.13-.05-.26-.19-.29-.13-.03-.26.06-.29.19Z"/>
            <path class="cls-37" d="M115.71,74.79c-.19.88.37,1.74,1.24,1.93.88.19,1.74-.37,1.93-1.24.19-.87-.37-1.74-1.24-1.93-.88-.19-1.74.37-1.93,1.24Z"/>
            <path class="cls-37" d="M110.05,94.18c-.06.29.12.57.41.63.28.06.57-.12.63-.4.06-.29-.12-.57-.41-.63-.28-.06-.57.12-.63.4Z"/>
            <path class="cls-37" d="M102.01,98.93c-.19.89.37,1.78,1.27,1.97.89.19,1.78-.37,1.97-1.27.19-.9-.37-1.78-1.27-1.97-.89-.2-1.78.37-1.97,1.27Z"/>
            <path class="cls-37" d="M104.98,78.6c-.03.15.06.3.22.34.15.03.3-.06.34-.21.03-.15-.06-.3-.22-.34-.15-.03-.3.06-.34.22Z"/>
            <path class="cls-19" d="M111.3,82.93c-.03.14.06.28.2.31.14.03.28-.06.31-.2.03-.14-.06-.28-.2-.31-.14-.03-.28.06-.31.2Z"/>
            <path class="cls-19" d="M108.16,85.84c-.07.33.14.66.47.73.33.07.66-.14.73-.47.07-.33-.14-.66-.47-.73-.33-.07-.66.14-.73.47Z"/>
            <path class="cls-19" d="M103.71,87.48c-.06.28.12.55.39.61.28.06.55-.12.61-.4.06-.28-.12-.55-.39-.61-.28-.06-.55.12-.61.4Z"/>
            <path class="cls-19" d="M108.16,90.38c-.07.33.14.66.47.73.33.07.66-.14.73-.47.07-.33-.14-.66-.47-.73-.33-.07-.66.14-.73.47Z"/>
            <path class="cls-19" d="M101.63,90.68c-.11.5.21,1,.72,1.11s1-.21,1.11-.71c.11-.5-.21-1-.71-1.11-.5-.11-1,.21-1.11.71Z"/>
            <path class="cls-19" d="M104.32,93.8c-.02.1.04.21.15.23.11.02.21-.04.23-.15.02-.11-.04-.21-.15-.23-.1-.02-.21.04-.23.15Z"/>
            <path class="cls-19" d="M107.8,82.03c-.04.17.07.34.25.38.17.04.35-.07.38-.25.04-.17-.07-.35-.25-.38-.17-.04-.35.07-.38.25Z"/>
            <path class="cls-19" d="M110.73,87.68c-.16.76.32,1.52,1.08,1.69.77.17,1.52-.32,1.69-1.09.17-.76-.32-1.52-1.08-1.68-.77-.17-1.52.32-1.69,1.08Z"/>
            <path class="cls-19" d="M110.84,77.13c-.04.19.08.38.27.42.19.04.38-.08.42-.27.04-.19-.08-.38-.27-.42-.19-.04-.38.08-.42.27Z"/>
            <path class="cls-19" d="M113.92,79.64c-.03.12.05.24.17.27.12.03.24-.05.27-.17.03-.12-.05-.24-.17-.27-.12-.03-.24.05-.27.17Z"/>
            <path class="cls-19" d="M114.98,75.69c-.17.8.33,1.59,1.13,1.76.8.17,1.59-.33,1.76-1.13.17-.8-.33-1.59-1.13-1.76-.8-.17-1.59.33-1.76,1.13Z"/>
            <path class="cls-19" d="M109.82,93.38c-.06.26.11.52.37.57.26.06.52-.11.57-.37.06-.26-.11-.52-.37-.57-.26-.06-.52.11-.57.37Z"/>
            <path class="cls-19" d="M102.48,97.72c-.18.82.34,1.62,1.16,1.8.82.18,1.62-.34,1.8-1.16.18-.82-.34-1.62-1.16-1.8-.82-.18-1.62.34-1.8,1.16Z"/>
            <path class="cls-19" d="M105.19,79.16c-.03.14.06.28.2.31.14.03.28-.06.31-.2.03-.14-.06-.28-.2-.31-.14-.03-.28.06-.31.2Z"/>
            <path class="cls-9" d="M106.66,109.72c1.56.73,3.23,1.3,4.99,1.68,12.29,2.67,24.35-4.77,26.92-16.61,2.41-11.1-4.37-22.13-15.35-25.67,7.94,4.84,12.36,14.08,10.34,23.37-2.57,11.84-14.62,19.28-26.92,16.61-.14-.03-.29-.06-.43-.1l.46.71Z"/>
            <polygon class="cls-7" points="121.33 80.06 123.49 80.53 124.3 82.58 124.77 80.42 126.82 79.61 124.67 79.14 123.85 77.09 123.38 79.24 121.33 80.06"/>
            <polygon class="cls-7" points="118.96 83.15 120.36 83.46 120.89 84.8 121.2 83.39 122.54 82.86 121.13 82.55 120.6 81.21 120.29 82.62 118.96 83.15"/>
            <polygon class="cls-7" points="119.36 90.12 120.66 90.74 120.89 92.16 121.5 90.85 122.92 90.63 121.62 90.02 121.39 88.6 120.78 89.9 119.36 90.12"/>
            <polygon class="cls-7" points="115.03 94.8 116.16 95.68 116.07 97.12 116.95 95.98 118.38 96.08 117.25 95.2 117.34 93.76 116.46 94.89 115.03 94.8"/>
            <polygon class="cls-7" points="110.53 100.05 111.75 100.8 111.82 102.24 112.57 101.02 114.01 100.96 112.79 100.2 112.72 98.76 111.97 99.99 110.53 100.05"/>
            <polygon class="cls-7" points="118.52 75.85 119.82 76.46 120.04 77.88 120.66 76.58 122.08 76.36 120.78 75.75 120.56 74.32 119.94 75.62 118.52 75.85"/>
            <path class="cls-24" d="M131.71,87.83c0,.14.12.26.26.26.14,0,.26-.12.26-.26s-.12-.26-.26-.26c-.15,0-.26.12-.26.26Z"/>
            <path class="cls-24" d="M129.23,91.4c0,.34.28.62.62.62.34,0,.62-.28.62-.62,0-.34-.28-.62-.62-.62-.34,0-.62.28-.62.62Z"/>
            <path class="cls-24" d="M125.18,94c0,.29.23.52.53.52.29,0,.52-.24.52-.53,0-.29-.24-.52-.53-.52-.29,0-.52.24-.52.53Z"/>
            <path class="cls-24" d="M130.23,95.91c0,.34.28.62.62.62.34,0,.62-.28.62-.62,0-.34-.28-.62-.62-.62-.34,0-.62.28-.62.62Z"/>
            <path class="cls-24" d="M123.81,97.63c0,.52.43.95.95.95.52,0,.95-.43.95-.95,0-.52-.43-.95-.95-.95-.52,0-.95.43-.95.95Z"/>
            <path class="cls-24" d="M122.88,92.3c0,.14.12.26.26.26.14,0,.26-.12.26-.26s-.12-.26-.26-.26-.26.12-.26.26Z"/>
            <path class="cls-24" d="M128.04,87.71c0,.18.15.33.33.33.18,0,.33-.15.33-.33,0-.18-.15-.33-.33-.33-.18,0-.33.15-.33.33Z"/>
            <path class="cls-24" d="M132.18,92.67c0,.8.65,1.44,1.44,1.43.79,0,1.44-.65,1.44-1.44,0-.79-.65-1.44-1.44-1.43-.79,0-1.44.65-1.43,1.44Z"/>
            <path class="cls-24" d="M129.99,82.17c0,.2.16.36.36.36.2,0,.36-.16.36-.36,0-.2-.16-.36-.36-.36s-.36.16-.36.36Z"/>
            <path class="cls-24" d="M133.6,84c0,.13.1.23.23.23s.23-.1.23-.23c0-.13-.1-.23-.23-.23s-.23.1-.23.23Z"/>
            <path class="cls-24" d="M133.78,79.84c0,.83.68,1.5,1.51,1.5.83,0,1.5-.68,1.5-1.51,0-.83-.68-1.5-1.51-1.5-.83,0-1.5.68-1.5,1.51Z"/>
            <path class="cls-24" d="M124.83,85.43c0,.14.12.26.26.26.14,0,.26-.12.26-.26,0-.14-.12-.26-.26-.26-.14,0-.26.12-.26.26Z"/>
            <path class="cls-11" d="M96.28,88.44c1.18-9.58,9.02-18.04,18.18-20.47,3.95-1.05,6.77-.77,7.06-.26.04.06-.03.14-.17.23-1.22-.16-3.34-.05-5.97.65-9.17,2.43-17,10.89-18.18,20.47,0,.2.01.37.04.52-.56.37-.96-.02-.96-1.14Z"/>
            <path class="cls-26" d="M114.31,190.39l-.02-.22c.07.09.14.18.21.26l-.2-.05h0ZM114.11,187.47h0c.15-.13.33-.26.55-.37l6.16,3.15,1.19.35.85-.19c-.66-3.09-1.24-6.31-1.33-9.28-.2-6.52-.31-40.36-.31-40.36l.89-13.52,3.54-3.56s-2.47-1.8-5.4-1.34c-2.93.46-4.77-6.08-10.3-11.77-5.53-5.69-6.7-13.15-6.85-15.86-.02-.31.03-.85.13-1.56-.95,1.36-2.14,2.55-2.12,4.67.01,2.12,3.2,10.14,1.03,9.38-.81-.28-4.11-3.67-4.44-5.17-.56-2.49,1.36-6.63.44-9.22-.39-1.11-.7-2.11-.96-3.01-2.84,7.05-4.28,15.51,4.71,22.45,11.19,8.63,17.21,19.16,13.43,33.42-3.78,14.25,1.82,28.63-.55,34.47-.63,1.55-.79,4.12-.65,7.31Z"/>
            <path class="cls-27" d="M116.41,187.98c-.08-2.78.11-5.02.68-6.43,2.37-5.84-3.23-20.22.55-34.47,3.78-14.25-2.24-24.79-13.43-33.42-8.98-6.93-7.54-15.4-4.71-22.45.26.89.57,1.9.96,3.01.92,2.59-1,6.73-.44,9.22.34,1.49,3.63,4.88,4.45,5.17,2.17.75-1.02-7.26-1.03-9.38-.01-2.12,1.17-3.31,2.12-4.67-.1.72-.15,1.25-.13,1.56.15,2.71,1.32,10.17,6.85,15.86,5.53,5.69,7.37,12.22,10.31,11.77,2.93-.46,5.4,1.34,5.4,1.34l-3.54,3.56-.89,13.52s.11,33.84.31,40.36c.07,2.38.46,4.92.95,7.44l-2.8.63-1.19-.35-4.42-2.26Z"/>
            <path class="cls-27" d="M120.33,184.87c2.12-3.88,22.97-35.14,24.05-45.69,1.08-10.54-15.59-32.07-19.43-42.66-3.84-10.59.19-5.76.19-5.76,0,0,18.64,28.86,21.01,35.31,2.37,6.45,4.68,15.92,1.45,23.25-2.89,6.58-16.62,30.95-21.18,40.27l-4.41,1-.25-.07c-.87-2.54-1.43-5.65-1.43-5.65Z"/>
            <path class="cls-27" d="M118.92,126.51s16.27-13.04,16.25-19.85c-.02-6.81.32-7.1.32-7.1,0,0,4.51-.85,3.69,4.66-.82,5.51-8.17,17-11.21,20.87-3.04,3.87-7.75,8.04-9.06,1.42Z"/>
            <path class="cls-27" d="M119.3,172.6c-9.23-8.38-18.51-11.85-18.23-31,.28-19.16,13.15-38.1,13.15-38.1,0,0,5.09-1.04,1.1,4.81-2.06,3.02-10.97,21.66-11.04,28.15-.13,12.58,8.68,24.7,10.79,26.58,2.11,1.88,4.14.51,6.36.49,2.22-.01-2.13,9.07-2.13,9.07Z"/>
            <path class="cls-12" d="M115.78,103.79c.76.48,1.02,1.68-.96,4.58-2.06,3.02-10.97,21.66-11.04,28.15-.13,12.58,8.68,24.7,10.79,26.58,2.11,1.88,4.14.51,6.36.49.55,0,.7.56.6,1.41-3.05,0-7.8-.5-10.38-3.29-4.02-4.33-7.5-8.83-8.1-20.91-.6-12.08,4.38-20.4,5.6-23.36,1.22-2.96,5.3-10.13,7.14-13.66Z"/>
            <path class="cls-27" d="M93.44,91.73c-.97,1.66-10.23,6.7-6.78,24.36,3.45,17.66,14.48,29.08,14.48,29.08l-.07-3.58s1.78-4.43,1.04-4.52c-.74-.08-9.07-5.56-11.33-17.38-2.26-11.83-1.04-17.87.71-21.52,1.76-3.65,5.1-5.11,4.26-6.07-.62-.72-1.57-2.94-2.31-.36Z"/>
            <path class="cls-12" d="M100.6,136.72c-2.36-1.53-8.55-6.99-10.45-16.93-2.26-11.83-1.04-17.87.71-21.52,1.76-3.65,5.1-5.11,4.26-6.08-.12-.13-.24-.32-.38-.52-2.45,2.2-7.59,8.14-6.97,18.75.81,13.87,3.51,18.1,7.73,23.32,4.22,5.23,5.03,5.69,5.03,5.69l.07-2.72Z"/>
            <path class="cls-27" d="M116.15,120.24c2.84-4.55,5.54-10.86,3.83-14.83-1.71-3.97-2.31-4.29-.32-3.78,1.99.51,4.09,10.44,3.38,12.88-.71,2.44-4.15,6.67-4.87,7.33-.72.66-2.03-1.6-2.03-1.6Z"/>
            <path class="cls-27" d="M122.49,146.75c.14-2.62,8.68-9.16,17.41-18.05,8.72-8.89,10.95-23.47,10.4-28.72-.55-5.25-3.92-9.74-3.92-9.74l-.57-4.07s4.14,3.74,7.46,11.02c3.33,7.28,2.42,15.49-1.72,25.72-4.14,10.23-24.13,22.38-26.05,25.7-1.92,3.31-3.47,7.52-3.47,7.52,0,0-.66-7.7.45-9.37Z"/>
            <path class="cls-31" d="M107.49,153.47c-.79-1.86-7.23-6.68-12.21-6.02-4.97.65-5.57,0-5.57,0,0,0,.63,7.21,7.82,8.81,7.18,1.6,11.04-.61,9.96-2.8Z"/>
            <path class="cls-31" d="M119.02,139.53c-7.89-3.72-9.85-9.55-9.98-11.2-.13-1.65-.45-2.1.02-1.86.47.24,4.3.57,7.59,4.58,3.29,4.01,4.28,8.75,2.38,8.49Z"/>
            <path class="cls-31" d="M87.38,106.31c2.31-8.41-.83-13.69-2-14.87-1.17-1.18-1.3-1.71-1.42-1.2-.13.51-2.37,3.63-1.47,8.74.9,5.11,3.85,8.94,4.89,7.33Z"/>
            <path class="cls-31" d="M151.65,95.87c-1.93-5.09-5.46-6.61-6.48-6.77-1.02-.17-1.28-.38-1.16-.08.12.3.14,2.7,2.47,4.95,2.33,2.25,5.24,3.1,5.17,1.9Z"/>
            <path class="cls-12" d="M124.28,190.09c-.47-2.45-.85-4.94-.92-7.26-.2-6.52-.31-40.36-.31-40.36l1.22-11.3s-1.36-4.01-2.47-5.04l-1,16.63s-1.14,1.07-1.13,2.49c.03,7.66.13,32.61.3,38.12.07,2.21.41,4.56.85,6.89l1.18.35,2.26-.51h0ZM105.32,106.44h0c.98-.4-1.82-4.55-1.83-6.49-.01-1.95.62-3.72,1.57-5.08-.1.72-.21.06-.13,1.56.08,1.51,1.32,10.17,6.85,15.86,5.16,5.3,5.47,9.95,7.86,10.18-.09.45-.24,1.2-.41,2.06-.17.01,1.03-.19-.53.06-1.55.24-4.79-7.78-8.58-11.68-3.79-3.9-3.78-4.21-4.8-6.47Z"/>
            <path class="cls-12" d="M122.46,188.83c1.53-.26,19.82-32.35,21.59-36.84,1.77-4.49,3.17-16.11,3.17-16.11l-1.12-5.22.88-.96s1.76,12.29-.44,19.23c-1.84,5.81-16.41,32.4-21.09,40.88l-2.34.53-.65-1.52Z"/>
            <path class="cls-12" d="M121.93,149.19s8.01-7.91,14.42-13.22c6.42-5.31,9.93-8.93,11.84-12.94,1.91-4.02,3.33-6.41,3.83-14.29.5-7.88.08-10.55.08-10.55l-.75-1.85.72.12s2.27,5.04,1.83,8.51c-.45,3.48-.63,12.67-4.93,19.92-4.3,7.25-17.27,17.01-19.96,19.17-2.7,2.16-6.69,7.85-7.16,8.42-.47.58.05-3,.05-3l.02-.29Z"/>
            <path class="cls-12" d="M125.21,125.39c2.31-1.85,8.29-12.05,8.29-12.05l.52.9s-6.08,10.58-7.14,11.64c-1.05,1.06-1.67-.49-1.67-.49Z"/>
            <path class="cls-31" d="M110.12,112.91c2.31-8.41-.83-13.7-2-14.87-1.17-1.18-1.3-1.71-1.42-1.2-.13.51-2.37,3.63-1.47,8.74.9,5.11,3.85,8.95,4.89,7.33Z"/>
            <path class="cls-12" d="M124.97,93.32s14.83,23.96,15.7,25.56c.87,1.6,2.18,4.16,2.68,4.47.49.31,1.01-1.04,1.01-1.04,0,0-16.72-26.71-17.43-27.55-.71-.84-1.77-1.67-1.77-1.67l-.19.24Z"/>
            <path class="cls-31" d="M138.99,116.99c6.37-5.95,6.46-12.1,6.09-13.72-.38-1.61-.21-2.14-.59-1.77-.38.37-3.92,1.85-5.83,6.67-1.91,4.82-1.4,9.64.33,8.81Z"/>
            <path class="cls-31" d="M120.26,118.43c4.93-4.51,5.05-9.22,4.78-10.46-.28-1.24-.14-1.64-.43-1.36s-3.02,1.39-4.52,5.07c-1.5,3.68-1.15,7.37.18,6.75Z"/>
            <path class="cls-31" d="M144,142.19c.79-1.86,7.24-6.67,12.21-6.02,4.97.65,5.57,0,5.57,0,0,0-.63,7.21-7.82,8.81-7.18,1.6-11.04-.61-9.96-2.8Z"/>
            <path class="cls-31" d="M122.57,128.47c.63-1.49,5.81-5.36,9.8-4.83,3.99.52,4.47,0,4.47,0,0,0-.51,5.79-6.28,7.08-5.77,1.29-8.87-.49-8-2.25Z"/>
          </g>
          <polygon class="cls-6" points="54.2 189.84 60.15 194 53.75 200.29 49.52 194.24 54.2 189.84"/>
          <polygon class="cls-23" points="51.53 192.35 56.2 197.88 54.74 199.32 52.28 198.19 49.52 194.24 51.53 192.35"/>
          <polygon class="cls-22" points="50.15 195.15 50.79 194.96 51.15 196.57 50.15 195.15"/>
          <polygon class="cls-13" points="52.01 197.8 55.05 199.02 53.75 200.29 52.01 197.8"/>
          <polygon class="cls-6" points="59.43 193.5 58.5 195.63 60.15 194 59.43 193.5"/>
          <path class="cls-22" d="M59.03,193.22c-.45,1.11-.89,2.21-1.23,3.1l-1.2,1.18c-1-1.36-3.17-4.22-4.37-5.8l1.97-1.86,4.83,3.38Z"/>
          <path class="cls-35" d="M53.01,190.96l4.62,1.28,1.41.98c-.45,1.11-.89,2.21-1.23,3.1l-1.2,1.18c-1-1.36-3.17-4.22-4.37-5.8l.78-.74Z"/>
          <path class="cls-22" d="M59.03,193.22c-.45,1.11-.89,2.21-1.23,3.1l-1.2,1.17c-.56-.76-1.48-1.99-2.4-3.2l4.46-1.34.37.26Z"/>
          <path class="cls-8" d="M57.75,196.36c.36-.91.82-2.03,1.28-3.14l-.8-.56c-.1.17-.16.29-.18.34-.09.29-.48,2.31-.76,3.81l.46-.45Z"/>
          <path class="cls-8" d="M54.55,191.55c-.09.03-1.87.74-1.87.74l-.45-.59.69-.64,1.64.5Z"/>
          <polygon class="cls-8" points="53.11 199.2 53.75 200.29 53.03 199.25 53.11 199.2"/>
          <polygon class="cls-8" points="55.4 198.67 51.61 197.23 52.04 197.85 55.02 199.05 55.4 198.67"/>
          <path class="cls-8" d="M57.06,192.7c.34-.03-1.46,3.37-1.56,3.23-.08-.1-3.63-1.37-5.58-2.06l.65-.61,6.5-.56Z"/>
          <polygon class="cls-33" points="76.61 199.52 72.75 198.21 69.75 199.02 70.02 204.06 75.83 204.68 76.09 204.28 76.75 202.78 76.76 200.41 76.61 199.52"/>
          <polygon class="cls-36" points="70.13 198.92 69.77 199.29 69.86 201.02 76.75 202.04 76.77 200.01 71.72 198.49 70.13 198.92"/>
          <polygon class="cls-32" points="69.77 199.31 70.18 198.91 69.75 199.02 69.77 199.31"/>
          <polygon class="cls-10" points="69.83 200.47 70.61 198.79 70.18 198.91 69.77 199.31 69.83 200.47"/>
          <polygon class="cls-33" points="76.09 204.28 69.86 201.12 69.86 201.02 76.75 202.04 76.75 202.78 76.09 204.28"/>
          <polygon class="cls-34" points="75.81 204.68 76.14 204.16 69.86 201.11 70 203.64 70.79 204.14 75.81 204.68"/>
          <polygon class="cls-33" points="70 203.64 70.79 204.14 70.02 204.06 70 203.64"/>
          <polygon class="cls-5" points="71.71 198.49 74.02 199.18 76.77 200.01 76.77 199.93 76.61 199.52 72.75 198.21 71.71 198.49"/>
          <polygon class="cls-20" points="73.14 198.92 70.72 201.15 69.86 201.02 69.83 200.47 70.61 198.79 71.72 198.49 73.14 198.92"/>
          <polygon class="cls-29" points="71.23 198.62 72.31 199.77 70.72 201.15 69.86 201.02 69.83 200.47 70.61 198.79 71.23 198.62"/>
          <polygon class="cls-36" points="73.03 198.89 73.33 201.53 70.72 201.15 73.03 198.89"/>
          <path class="cls-10" d="M72.67,198.64l-.57-.25h-.01s-.06.32-.06.32c0,0,.13.18.19.22.06.04.31.19.31.19l.15-.48Z"/>
          <path class="cls-36" d="M71.44,202.6s.55-.2.53-.14c-.03.06.15.54.15.54l-.68.21v-.62Z"/>
          <polygon class="cls-29" points="72.43 202.81 73.47 203.2 73.51 204.43 72.16 204.29 72.09 203.34 72.43 202.81"/>
          <path class="cls-29" d="M70.02,204.06h0s0,0,0,0Z"/>
          <polygon class="cls-34" points="75.1 201.79 76.75 202.04 76.77 200.01 74.53 199.34 73.3 200.07 73.31 201.38 75.1 201.79"/>
          <polygon class="cls-29" points="74.38 200.59 74.85 200.48 74.52 201.1 74.03 200.99 74.38 200.59"/>
          <polygon class="cls-29" points="74.21 199.5 75.04 199.67 74.93 200.32 74.2 200.41 74.21 199.5"/>
          <path class="cls-29" d="M73.25,201.52l-.69.9,3.58,1.74s.44-1.07.61-1.58v-.29c-.47-.12-3.51-.77-3.51-.77Z"/>
          <path class="cls-16" d="M75.99,199.64s-2.46-.76-4-1.22l-.41.11c1.54.42,4.54,1.25,4.53,1.29-.02.06-.12-.18-.12-.18Z"/>
          <path class="cls-16" d="M69.99,198.96l-.22.29.02.3.55-.68-.34.09h0ZM69.85,200.94h0l3.31.56s.1-.14,0-.18c-.07-.03-2.1-.37-3.32-.57v.19Z"/>
          <polygon class="cls-16" points="71.24 198.62 73.28 201.04 73.09 201.12 71.05 198.67 71.24 198.62"/>
          <path class="cls-15" d="M72.24,200.26s.14-.05.13-.03c0,.02.04.13.04.13l-.17.05v-.15Z"/>
          <path class="cls-15" d="M72.36,200.55s-.44-.08-.44-.08l-.02.08.5.14-.04-.14Z"/>
          <path class="cls-15" d="M72.29,201.02l-.17-.33-.15.12s0,.13,0,.17c.01.04.07.2.07.2l.24-.16Z"/>
          <polygon class="cls-15" points="71.61 200.5 71.88 200.6 71.89 200.93 71.55 201 71.52 200.64 71.61 200.5"/>
          <path class="cls-29" d="M70.61,202.19s.06.1.04.1c-.01,0-.1.05-.1.05l-.06-.13.12-.02Z"/>
          <path class="cls-29" d="M70.39,202.33s.01-.36.01-.36h-.06s-.05.41-.05.41l.1-.05Z"/>
          <path class="cls-29" d="M70.01,202.33l.24-.18-.12-.1s-.1.01-.13.03l-.08.04v.12s.09.09.09.09Z"/>
          <polygon class="cls-29" points="70.33 201.73 70.29 201.95 70.03 202 69.93 201.75 70.22 201.67 70.33 201.73"/>
          <path class="cls-36" d="M75.65,203.42s.17.31.13.29c-.04-.01-.3.14-.3.14l-.19-.38.36-.06Z"/>
          <path class="cls-36" d="M75.01,203.81c.01-.08.03-1.07.03-1.07l-.18-.02-.15,1.22.31-.13Z"/>
          <path class="cls-36" d="M73.87,203.82l.7-.53-.34-.3s-.3.03-.39.08c-.09.05-.44.24-.44.24l.47.5Z"/>
          <polygon class="cls-36" points="74.84 202.05 74.71 202.7 73.93 202.86 73.66 202.09 74.48 201.89 74.84 202.05"/>
          <path class="cls-36" d="M72.04,201.76s.05.09.04.09c-.01,0-.09.04-.09.04l-.06-.11.11-.02Z"/>
          <path class="cls-36" d="M71.85,201.87s0-.32,0-.32h-.06s-.04.36-.04.36l.09-.04Z"/>
          <path class="cls-36" d="M71.51,201.88l.21-.16-.1-.09s-.09.01-.12.03c-.03.01-.13.07-.13.07l.14.15Z"/>
          <polygon class="cls-36" points="71.8 201.35 71.76 201.54 71.53 201.59 71.45 201.36 71.69 201.3 71.8 201.35"/>
          <polygon class="cls-36" points="69.89 199.08 69.75 199.02 69.97 198.97 69.89 199.08"/>
          <path class="cls-16" d="M75.98,204.16l-6.11-2.96v.14c2.06,1.12,6.05,3.15,6.05,3.15l.21-.33h-.15Z"/>
          <polygon class="cls-11" points="72.1 198.39 76.66 199.86 71.9 198.44 72.1 198.39"/>
          <path class="cls-27" d="M120.83,223.13c10.56,0,19.16-8.61,19.16-19.17s-8.61-19.17-19.16-19.17-19.17,8.61-19.17,19.17,8.61,19.17,19.17,19.17Z"/>
          <path class="cls-12" d="M120.98,219.06c8.41,0,15.27-6.86,15.27-15.27s-6.86-15.27-15.27-15.27-15.27,6.86-15.27,15.27,6.86,15.27,15.27,15.27Z"/>
          <polygon class="cls-6" points="90.8 201.78 96.14 205.51 90.4 211.15 86.6 205.73 90.8 201.78"/>
          <polygon class="cls-23" points="88.41 204.03 92.6 208.99 91.29 210.28 89.08 209.27 86.6 205.73 88.41 204.03"/>
          <polygon class="cls-22" points="87.17 206.54 87.75 206.37 88.07 207.81 87.17 206.54"/>
          <polygon class="cls-13" points="88.84 208.92 91.56 210.01 90.4 211.15 88.84 208.92"/>
          <polygon class="cls-6" points="95.5 205.06 94.65 206.97 96.14 205.51 95.5 205.06"/>
          <path class="cls-22" d="M95.14,204.81c-.4,1-.8,1.98-1.11,2.78l-1.07,1.05c-.9-1.22-2.84-3.79-3.92-5.2l1.77-1.66,4.34,3.03Z"/>
          <path class="cls-35" d="M89.73,202.78l4.14,1.14,1.26.88c-.4,1-.8,1.98-1.11,2.78l-1.07,1.05c-.9-1.22-2.84-3.79-3.92-5.2l.7-.66Z"/>
          <path class="cls-22" d="M95.13,204.81c-.4,1-.8,1.98-1.11,2.78l-1.08,1.05c-.5-.68-1.33-1.78-2.15-2.87l4-1.2.33.23Z"/>
          <path class="cls-8" d="M93.99,207.62c.33-.82.73-1.82,1.14-2.82l-.72-.5c-.09.15-.14.25-.16.31-.08.26-.43,2.07-.68,3.42l.41-.4Z"/>
          <path class="cls-8" d="M91.12,203.31c-.08.03-1.68.66-1.68.66l-.4-.53.62-.58,1.47.45Z"/>
          <polygon class="cls-8" points="89.82 210.17 90.4 211.15 89.75 210.22 89.82 210.17"/>
          <polygon class="cls-8" points="91.88 209.7 88.48 208.4 88.87 208.96 91.54 210.04 91.88 209.7"/>
          <path class="cls-8" d="M93.37,204.34c.31-.03-1.31,3.02-1.4,2.9-.07-.09-3.25-1.22-5.01-1.85l.58-.55,5.83-.5Z"/>
          <polygon class="cls-6" points="187.85 190.42 181.9 194.59 188.3 200.87 192.53 194.83 187.85 190.42"/>
          <polygon class="cls-23" points="190.52 192.94 185.85 198.47 187.31 199.9 189.77 198.78 192.53 194.83 190.52 192.94"/>
          <polygon class="cls-22" points="191.9 195.73 191.26 195.54 190.9 197.15 191.9 195.73"/>
          <polygon class="cls-13" points="190.04 198.39 187 199.6 188.3 200.87 190.04 198.39"/>
          <polygon class="cls-6" points="182.62 194.08 183.56 196.22 181.9 194.59 182.62 194.08"/>
          <path class="cls-22" d="M183.02,193.8c.45,1.11.89,2.21,1.23,3.1l1.2,1.18c1-1.36,3.17-4.22,4.37-5.8l-1.97-1.86-4.83,3.38Z"/>
          <path class="cls-35" d="M189.04,191.54l-4.62,1.28-1.41.98c.45,1.11.89,2.21,1.23,3.1l1.2,1.18c1-1.36,3.17-4.22,4.37-5.8l-.78-.74Z"/>
          <path class="cls-22" d="M183.02,193.8c.45,1.11.89,2.21,1.24,3.1l1.2,1.17c.56-.76,1.48-1.99,2.4-3.2l-4.46-1.34-.37.26Z"/>
          <path class="cls-8" d="M184.3,196.94c-.36-.91-.82-2.03-1.28-3.14l.8-.56c.1.17.16.28.18.34.09.29.48,2.31.76,3.81l-.46-.45Z"/>
          <path class="cls-8" d="M187.5,192.13c.09.03,1.87.74,1.87.74l.45-.59-.69-.64-1.64.5Z"/>
          <polygon class="cls-8" points="188.95 199.78 188.3 200.87 189.02 199.84 188.95 199.78"/>
          <polygon class="cls-8" points="186.65 199.26 190.44 197.81 190.01 198.43 187.03 199.63 186.65 199.26"/>
          <path class="cls-8" d="M184.99,193.29c-.34-.03,1.46,3.37,1.56,3.23.08-.1,3.63-1.37,5.58-2.06l-.65-.61-6.5-.56Z"/>
          <polygon class="cls-33" points="165.44 200.1 169.3 198.8 172.3 199.61 172.03 204.65 166.22 205.27 165.96 204.87 165.3 203.37 165.29 200.99 165.44 200.1"/>
          <polygon class="cls-36" points="171.92 199.51 172.28 199.88 172.19 201.61 165.3 202.62 165.28 200.59 170.33 199.08 171.92 199.51"/>
          <polygon class="cls-32" points="172.28 199.9 171.87 199.49 172.3 199.61 172.28 199.9"/>
          <polygon class="cls-10" points="172.22 201.06 171.44 199.38 171.87 199.49 172.28 199.9 172.22 201.06"/>
          <polygon class="cls-33" points="165.96 204.87 172.19 201.71 172.19 201.61 165.3 202.62 165.3 203.37 165.96 204.87"/>
          <polygon class="cls-34" points="166.24 205.26 165.91 204.74 172.19 201.7 172.05 204.22 171.26 204.73 166.24 205.26"/>
          <polygon class="cls-33" points="172.05 204.22 171.26 204.73 172.03 204.65 172.05 204.22"/>
          <polygon class="cls-5" points="170.34 199.08 168.03 199.77 165.28 200.59 165.28 200.51 165.44 200.1 169.3 198.8 170.34 199.08"/>
          <polygon class="cls-20" points="168.91 199.51 171.33 201.73 172.19 201.61 172.22 201.06 171.45 199.38 170.33 199.08 168.91 199.51"/>
          <polygon class="cls-29" points="170.82 199.21 169.74 200.36 171.33 201.73 172.19 201.61 172.22 201.06 171.44 199.38 170.82 199.21"/>
          <polygon class="cls-36" points="169.02 199.47 168.72 202.12 171.33 201.73 169.02 199.47"/>
          <path class="cls-10" d="M169.38,199.22l.57-.25h.01s.06.32.06.32c0,0-.13.18-.19.22-.06.04-.31.19-.31.19l-.15-.48Z"/>
          <path class="cls-36" d="M170.61,203.18s-.55-.2-.53-.14c.03.06-.15.54-.15.54l.68.21v-.62Z"/>
          <polygon class="cls-29" points="169.62 203.39 168.58 203.78 168.54 205.02 169.89 204.87 169.96 203.92 169.62 203.39"/>
          <polygon class="cls-34" points="166.95 202.38 165.3 202.62 165.28 200.59 167.52 199.92 168.75 200.66 168.74 201.96 166.95 202.38"/>
          <polygon class="cls-29" points="167.67 201.18 167.2 201.07 167.53 201.68 168.02 201.58 167.67 201.18"/>
          <polygon class="cls-29" points="167.84 200.08 167.01 200.26 167.12 200.91 167.85 200.99 167.84 200.08"/>
          <path class="cls-29" d="M168.8,202.11l.69.9-3.58,1.74s-.44-1.07-.61-1.58v-.29c.47-.12,3.51-.77,3.51-.77Z"/>
          <path class="cls-16" d="M166.06,200.22s2.46-.76,4-1.22l.41.11c-1.54.42-4.54,1.25-4.53,1.29.02.06.12-.18.12-.18Z"/>
          <path class="cls-16" d="M172.06,199.54l.22.29-.02.3-.55-.68.34.09h0ZM172.2,201.52h0l-3.31.56s-.1-.14,0-.18c.07-.03,2.1-.37,3.32-.57v.19Z"/>
          <polygon class="cls-16" points="170.81 199.21 168.77 201.63 168.96 201.7 171 199.26 170.81 199.21"/>
          <path class="cls-15" d="M169.81,200.84s-.14-.05-.13-.03c0,.02-.04.14-.04.14l.17.05v-.16Z"/>
          <path class="cls-15" d="M169.69,201.14s.44-.09.44-.09l.02.08-.5.15.04-.14Z"/>
          <path class="cls-15" d="M169.76,201.61l.17-.33.15.12s0,.13,0,.17c-.01.04-.07.2-.07.2l-.24-.16Z"/>
          <polygon class="cls-15" points="170.44 201.09 170.17 201.19 170.16 201.52 170.5 201.58 170.53 201.22 170.44 201.09"/>
          <path class="cls-29" d="M171.44,202.78s-.06.1-.04.1c.01,0,.1.05.1.05l.06-.13-.12-.02Z"/>
          <path class="cls-29" d="M171.66,202.91s-.01-.36-.01-.36h.06s.05.41.05.41l-.1-.04Z"/>
          <path class="cls-29" d="M172.04,202.92l-.24-.18.11-.1s.1.01.13.03l.08.04v.12s-.09.09-.09.09Z"/>
          <polygon class="cls-29" points="171.71 202.31 171.76 202.54 172.02 202.59 172.12 202.33 171.83 202.26 171.71 202.31"/>
          <path class="cls-36" d="M166.4,204s-.17.3-.13.29c.04-.01.3.14.3.14l.19-.38-.36-.06Z"/>
          <path class="cls-36" d="M167.04,204.4c-.01-.08-.03-1.07-.03-1.07h.19s.15,1.21.15,1.21l-.31-.14Z"/>
          <path class="cls-36" d="M168.18,204.41l-.7-.53.34-.3s.3.03.39.08c.09.05.43.24.43.24l-.47.5Z"/>
          <polygon class="cls-36" points="167.21 202.63 167.35 203.29 168.12 203.44 168.39 202.68 167.57 202.48 167.21 202.63"/>
          <path class="cls-36" d="M170.01,202.34s-.05.09-.04.09c.01,0,.09.04.09.04l.06-.11-.11-.02Z"/>
          <path class="cls-36" d="M170.2,202.46s0-.32,0-.32h.06s.04.36.04.36l-.09-.04Z"/>
          <path class="cls-36" d="M170.54,202.46l-.21-.16.1-.09s.09.01.12.03c.03.01.13.07.13.07l-.14.15Z"/>
          <polygon class="cls-36" points="170.25 201.93 170.29 202.13 170.52 202.17 170.6 201.95 170.36 201.89 170.25 201.93"/>
          <polygon class="cls-36" points="172.16 199.66 172.3 199.61 172.08 199.55 172.16 199.66"/>
          <path class="cls-16" d="M166.07,204.74l6.11-2.96v.14c-2.06,1.12-6.05,3.15-6.05,3.15l-.21-.33h.15Z"/>
          <polygon class="cls-11" points="169.95 198.97 165.39 200.45 170.15 199.03 169.95 198.97"/>
          <polygon class="cls-6" points="151.25 202.36 145.91 206.09 151.65 211.73 155.45 206.31 151.25 202.36"/>
          <polygon class="cls-23" points="153.65 204.62 149.45 209.58 150.76 210.86 152.97 209.85 155.45 206.31 153.65 204.62"/>
          <polygon class="cls-22" points="154.88 207.12 154.3 206.95 153.98 208.4 154.88 207.12"/>
          <polygon class="cls-13" points="153.21 209.5 150.49 210.59 151.65 211.73 153.21 209.5"/>
          <polygon class="cls-6" points="146.55 205.64 147.4 207.56 145.91 206.09 146.55 205.64"/>
          <path class="cls-22" d="M146.92,205.39c.4,1,.8,1.98,1.1,2.78l1.08,1.05c.9-1.22,2.84-3.79,3.92-5.2l-1.77-1.66-4.33,3.03Z"/>
          <path class="cls-35" d="M152.32,203.37l-4.14,1.14-1.26.88c.4,1,.8,1.98,1.1,2.78l1.08,1.05c.9-1.22,2.84-3.79,3.92-5.2l-.7-.66Z"/>
          <path class="cls-22" d="M146.92,205.39c.4,1,.8,1.98,1.11,2.78l1.07,1.05c.5-.68,1.33-1.78,2.15-2.87l-4-1.2-.33.23Z"/>
          <path class="cls-8" d="M148.06,208.21c-.33-.82-.73-1.82-1.14-2.82l.72-.5c.09.15.14.26.16.31.08.26.43,2.07.68,3.41l-.41-.4Z"/>
          <path class="cls-8" d="M150.93,203.9c.08.03,1.68.66,1.68.66l.4-.53-.61-.58-1.47.45Z"/>
          <polygon class="cls-8" points="152.23 210.75 151.65 211.73 152.3 210.81 152.23 210.75"/>
          <polygon class="cls-8" points="150.17 210.29 153.57 208.99 153.18 209.54 150.51 210.62 150.17 210.29"/>
          <path class="cls-8" d="M148.68,204.93c-.31-.03,1.31,3.02,1.4,2.9.07-.09,3.25-1.23,5.01-1.85l-.58-.55-5.83-.5Z"/>
          <path class="cls-31" d="M99.5,173.82c-.62-1.62.49-8.45,3.96-11.01,3.47-2.56,3.45-3.32,3.45-3.32,0,0,3.91,4.84.42,10.12-3.49,5.28-7.2,6.21-7.83,4.21Z"/>
          <path class="cls-31" d="M134.6,163.89c.62-1.62-.49-8.45-3.96-11.01-3.47-2.56-3.45-3.32-3.45-3.32,0,0-3.91,4.84-.42,10.12,3.49,5.28,7.2,6.21,7.83,4.21Z"/>
          <path class="cls-3" d="M110.5,210.6c.8,1.94,5.58,5.1,10.27,5.42,11.37.79,19.05-11.81,9-22.83-2.96-3.24-7.54-3.19-10.93-2.34-2.98.75-5.32,2.89-6.64,4.78-8.3,11.9,7.54,20.24,13.24,10.46,2.5-4.29-1.6-8.24-3.3-8.49-.75-.11-2.84,0-4.07,1.05-1.54,1.3-2.05,3.65-.56,4.19,2.69.98,2.3-1.39,2.3-1.39,0,0-1.37.49-1.2.3.17-.19,1.56-3.07,2.96-.85.77,1.22.98,3.82-.03,4.98-1.63,1.89-5.14.33-6.41-1.18-1.22-1.45-2.15-3.44-1.71-4.76.8-2.36,4.25-5.22,7.34-5.66,5-.72,8.27,4.67,8.98,8.4,1.05,5.48-3.86,10.67-11.72,10.46-2.59-.07-6.29-.98-7.53-2.54Z"/>
          <path class="cls-31" d="M68.06,129.35c-4.69-2.71-9.54-7.92-9.22-10.51.35-2.79.35-3.58.35-3.58,0,0,5.05.2,6.97,3.52,1.31,2.25,2.57,7.4,3.01,9.92.35,2.01.34,1.49-1.11.65Z"/>
          <path class="cls-31" d="M173.1,129.7c4.69-2.71,9.54-7.92,9.22-10.51-.35-2.79-.35-3.58-.35-3.58,0,0-5.05.2-6.97,3.52-1.31,2.25-2.58,7.4-3.01,9.92-.35,2-.34,1.49,1.11.65Z"/>
        </g>
      </g>
    </g>
  </g>
</svg>