<?xml version="1.0" encoding="UTF-8"?>
<svg xmlns="http://www.w3.org/2000/svg" viewBox="0 0 166.71 39.65">
  <defs>
    <style>
      .cls-1 {
        fill: #fff;
      }

      .cls-2 {
        fill: #baaa9b;
      }

      .cls-3 {
        mix-blend-mode: overlay;
        opacity: .15;
      }

      .cls-4 {
        isolation: isolate;
      }

      .cls-5 {
        fill: #875f3a;
      }
    </style>
  </defs>
  <g class="cls-4">
    <g id="_Ñëîé_1" data-name="Ñëîé 1">
      <path class="cls-2" d="M9.87,37.69h145.76l.45-.66c1.63-2.4,3.67-4.44,6.07-6.07l.65-.44V7.52l-.64-.45c-2.3-1.61-4.26-3.6-5.84-5.92l-.45-.66H9.6l-.45.66c-1.57,2.3-3.53,4.28-5.81,5.88l-.64.45v23.04l.66.45c2.4,1.63,4.44,3.67,6.07,6.07l.44.65Z"/>
      <g>
        <path class="cls-5" d="M155.9,38.19H9.61l-.6-.88c-1.59-2.34-3.59-4.34-5.94-5.93l-.88-.59V7.22l.85-.6c2.24-1.56,4.15-3.5,5.69-5.75L9.34,0h146.81l.6.88c1.54,2.27,3.46,4.22,5.71,5.79l.85.6v23.53l-.88.59c-2.34,1.59-4.34,3.59-5.94,5.93l-.6.88ZM11.7,34.19h142.11c1.55-2.1,3.4-3.94,5.5-5.5V9.32c-2-1.52-3.76-3.3-5.25-5.32H11.42c-1.49,2-3.24,3.77-5.22,5.28v19.42c2.1,1.55,3.94,3.4,5.5,5.5Z"/>
        <g>
          <path class="cls-1" d="M59.75,16.3v8.67c0,.2-.17.36-.36.36s-.36-.17-.36-.36v-9.72c-.05-.15,0-.3.14-.41.17-.11.41-.08.51.09l6.42,8.9v-8.63c0-.2.17-.36.36-.36.21,0,.38.17.38.36v9.76c0,.2-.17.36-.38.36-.12,0-.21-.04-.29-.14-.02-.01-.05-.03-.06-.06l-6.36-8.84Z"/>
          <path class="cls-1" d="M76.71,18.28v6.69c0,.2-.17.36-.36.36s-.36-.17-.36-.36v-1.11c-.64.88-1.65,1.47-2.79,1.47-1.95,0-3.51-1.68-3.51-3.71s1.56-3.71,3.51-3.71c1.14,0,2.15.58,2.79,1.45v-1.09c0-.21.17-.36.36-.36s.36.15.36.36ZM75.98,21.62c0-1.66-1.26-3-2.79-3s-2.79,1.33-2.79,3,1.27,2.98,2.79,2.98,2.79-1.32,2.79-2.98Z"/>
          <path class="cls-1" d="M90.47,20.94c-.03-1.26-1.03-2.3-2.3-2.3s-2.29,1.04-2.29,2.3v4.04c-.05.2-.12.26-.2.3-.06.03-.12.04-.18.04-.14-.02-.17-.04-.2-.06-.02,0-.03-.02-.05-.03l-.05-.05c-.06-.11-.06-.12-.08-.14v-4.12c0-1.26-1.01-2.3-2.29-2.3s-2.29,1.04-2.29,2.3v4.04c0,.12-.06.23-.17.29-.02.02-.06.04-.09.04-.02.02-.03.02-.06.02-.23-.02-.35-.14-.39-.27v-6.78c0-.2.17-.35.35-.35.21,0,.36.15.36.35v.71c.55-.65,1.36-1.06,2.29-1.06,1.15,0,2.13.64,2.65,1.57.53-.94,1.53-1.57,2.66-1.57,1.66,0,3.01,1.35,3.01,3.01v4.04c0,.18-.15.35-.36.35-.2,0-.35-.17-.35-.35v-4.04Z"/>
          <path class="cls-1" d="M93.73,21.64c0-2.06,1.6-3.72,3.6-3.72s3.42,1.51,3.57,3.45c0,.26-.17.39-.36.39h-6.08c.08,1.62,1.35,2.85,2.88,2.85.98,0,1.89-.51,2.39-1.35.11-.18.33-.21.48-.12.17.12.23.33.12.52-.64,1.01-1.74,1.68-3,1.68-2,0-3.6-1.67-3.6-3.69ZM94.5,21.05h5.62c-.24-1.39-1.42-2.41-2.79-2.41s-2.56,1-2.83,2.41Z"/>
        </g>
        <g class="cls-3">
          <path class="cls-1" d="M41.88,4c1.1-1.32,2.18-2.66,3.24-4h-15.5c-1.17,1.35-2.36,2.68-3.56,4h15.82Z"/>
          <path class="cls-1" d="M148.09,38.19c1.29-1.32,2.57-2.66,3.85-4h-16.58c-1.34,1.34-2.68,2.67-4.04,4h16.77Z"/>
          <path class="cls-1" d="M11.42,4h3.92C18.22,2.74,21.06,1.4,23.87,0h-14.54l-.6.87c-1.54,2.25-3.45,4.19-5.69,5.75l-.85.6v1.96c2.37-.83,4.73-1.71,7.06-2.64.77-.8,1.49-1.64,2.16-2.54Z"/>
          <path class="cls-1" d="M6.2,28.7v-6.42c-1.31.98-2.64,1.92-4,2.84v5.67l.88.59c1.75,1.19,3.31,2.61,4.65,4.22,1.11-.73,2.21-1.48,3.3-2.25-1.41-1.75-3.02-3.32-4.83-4.66Z"/>
          <path class="cls-1" d="M159.3,9.32v16.99c1.35-1.48,2.68-2.98,4-4.48V7.26l-.85-.6c-.37-.26-.72-.54-1.07-.82-.85,1.03-1.71,2.05-2.58,3.07.17.14.33.28.5.41Z"/>
          <path class="cls-1" d="M94.14,4h12.01c-.21-1.34-.46-2.67-.74-4h-12.12c.32,1.33.6,2.66.85,4Z"/>
          <path class="cls-1" d="M102.08,34.19h-13.78c-.96,1.38-1.99,2.71-3.09,4h14.64c.8-1.3,1.54-2.63,2.22-4Z"/>
        </g>
      </g>
    </g>
  </g>
</svg>