<?xml version="1.0" encoding="UTF-8"?>
<svg id="Layer_1" data-name="Layer 1" xmlns="http://www.w3.org/2000/svg" xmlns:xlink="http://www.w3.org/1999/xlink" viewBox="0 0 242.56 343.05">
  <defs>
    <style>
      .cls-1 {
        fill: #35393b;
      }

      .cls-2 {
        fill: #525e61;
      }

      .cls-3 {
        fill: #fecf3d;
      }

      .cls-4 {
        fill: url(#linear-gradient-2);
      }

      .cls-5 {
        fill: #292f33;
      }

      .cls-6 {
        fill: #414e54;
      }

      .cls-7 {
        fill: #62130e;
      }

      .cls-8 {
        fill: #5f6d70;
      }

      .cls-9 {
        fill: #914c1f;
      }

      .cls-10 {
        fill: #40100c;
      }

      .cls-11 {
        fill: none;
      }

      .cls-12 {
        fill: url(#linear-gradient-4);
      }

      .cls-13 {
        fill: #748187;
      }

      .cls-14 {
        fill: #aabbc5;
      }

      .cls-15 {
        fill: #21303b;
      }

      .cls-16 {
        fill: url(#linear-gradient-3);
      }

      .cls-17 {
        fill: url(#linear-gradient-5);
      }

      .cls-18 {
        fill: #33414d;
      }

      .cls-19 {
        fill: #212426;
      }

      .cls-20 {
        fill: #2c3942;
      }

      .cls-21 {
        fill: #576f7a;
      }

      .cls-22 {
        fill: #33100d;
      }

      .cls-23 {
        fill: #374447;
      }

      .cls-24 {
        fill: #361b24;
      }

      .cls-25 {
        fill: #25343f;
      }

      .cls-26 {
        fill: #b9c6c9;
      }

      .cls-27 {
        fill: #1b1f20;
      }

      .cls-28 {
        fill: #c9dbe4;
      }

      .cls-29 {
        fill: #a9a9a9;
      }

      .cls-30 {
        fill: #703c19;
      }

      .cls-31 {
        fill: #737d80;
      }

      .cls-32 {
        fill: #f08419;
      }

      .cls-33 {
        fill: url(#linear-gradient);
      }

      .cls-34 {
        fill: #61737a;
      }

      .cls-35 {
        fill: #e31e24;
      }
    </style>
    <linearGradient id="linear-gradient" x1="7251.64" y1="-15322.41" x2="13454.74" y2="-15322.41" gradientTransform="translate(-172.93 -240.32) scale(.03 -.03)" gradientUnits="userSpaceOnUse">
      <stop offset="0" stop-color="#aabbc5"/>
      <stop offset="1" stop-color="#56676f"/>
    </linearGradient>
    <linearGradient id="linear-gradient-2" x1="10470.04" y1="-14768.58" x2="12981.41" y2="-16322.84" gradientTransform="translate(-172.93 -240.32) scale(.03 -.03)" gradientUnits="userSpaceOnUse">
      <stop offset="0" stop-color="#435159"/>
      <stop offset=".18" stop-color="#566772"/>
      <stop offset="1" stop-color="#19252d"/>
    </linearGradient>
    <linearGradient id="linear-gradient-3" x1="9175.54" y1="-13731.37" x2="11759.6" y2="-15674.2" gradientTransform="translate(-172.93 -240.32) scale(.03 -.03)" gradientUnits="userSpaceOnUse">
      <stop offset="0" stop-color="#435159"/>
      <stop offset=".18" stop-color="#566772"/>
      <stop offset="1" stop-color="#19252d"/>
    </linearGradient>
    <linearGradient id="linear-gradient-4" x1="8535.89" y1="-10989.53" x2="10432.07" y2="-10989.53" gradientTransform="translate(-172.93 -240.32) scale(.03 -.03)" gradientUnits="userSpaceOnUse">
      <stop offset="0" stop-color="#aabbc5"/>
      <stop offset="1" stop-color="#56676f"/>
    </linearGradient>
    <linearGradient id="linear-gradient-5" x1="10382.54" y1="-10163.08" x2="11392.26" y2="-12189.26" gradientTransform="translate(-172.93 -240.32) scale(.03 -.03)" gradientUnits="userSpaceOnUse">
      <stop offset="0" stop-color="#435159"/>
      <stop offset=".18" stop-color="#566772"/>
      <stop offset="1" stop-color="#19252d"/>
    </linearGradient>
  </defs>
  <g id="Layer_1-2" data-name="Layer_1">
    <rect class="cls-29" x="-305.38" y="-114.91" width="850.39" height="566.93"/>
    <g id="_1766331888" data-name=" 1766331888">
      <g>
        <rect class="cls-3" x="0" y="0" width="242.56" height="343.05"/>
        <g>
          <polygon class="cls-32" points="121.32 171.53 212.66 181.73 228.74 184.21 212.59 182.89 121.32 171.53"/>
          <polygon class="cls-32" points="121.32 171.53 211.64 192.65 227.52 196.8 211.54 193.37 121.32 171.53"/>
          <polygon class="cls-32" points="121.32 171.54 209.98 202.99 225.5 209.2 209.76 204.11 121.32 171.54"/>
          <polygon class="cls-32" points="121.32 171.54 207.56 213.5 222.67 221.31 207.37 214.19 121.32 171.54"/>
          <polygon class="cls-32" points="121.32 171.55 204.58 223.29 219.06 233.04 204.21 224.34 121.32 171.55"/>
          <polygon class="cls-32" points="121.31 171.55 200.83 233.07 214.7 244.3 200.56 233.7 121.31 171.55"/>
          <polygon class="cls-32" points="121.31 171.56 196.64 242.01 209.64 255 196.15 242.96 121.31 171.56"/>
          <polygon class="cls-32" points="121.31 171.56 191.7 250.76 203.91 265.07 191.35 251.33 121.31 171.56"/>
          <polygon class="cls-32" points="121.31 171.56 186.42 258.59 197.56 274.44 185.81 259.42 121.31 171.56"/>
          <polygon class="cls-32" points="121.31 171.57 180.43 266.06 190.62 283.01 180.01 266.53 121.31 171.57"/>
          <polygon class="cls-32" points="121.3 171.57 174.23 272.53 183.15 290.74 173.52 273.2 121.3 171.57"/>
          <polygon class="cls-32" points="121.3 171.57 167.37 278.49 175.22 297.57 166.9 278.85 121.3 171.57"/>
          <polygon class="cls-32" points="121.3 171.57 160.43 283.42 166.88 303.45 159.65 283.91 121.3 171.57"/>
          <polygon class="cls-32" points="121.29 171.58 152.9 287.68 158.18 308.32 152.39 287.93 121.29 171.58"/>
          <polygon class="cls-32" points="121.29 171.58 145.43 290.9 149.21 312.13 144.6 291.2 121.29 171.58"/>
          <polygon class="cls-32" points="121.29 171.58 137.47 293.3 140.01 314.86 136.94 293.43 121.29 171.58"/>
          <polygon class="cls-32" points="121.28 171.58 129.7 294.71 130.68 316.5 128.84 294.81 121.28 171.58"/>
          <polygon class="cls-32" points="121.28 171.58 121.55 295.24 121.28 317.07 121.01 295.24 121.28 171.58"/>
          <polygon class="cls-32" points="121.28 171.58 113.72 294.81 111.88 316.5 112.86 294.71 121.28 171.58"/>
          <polygon class="cls-32" points="121.27 171.58 105.62 293.43 102.55 314.86 105.09 293.3 121.27 171.58"/>
          <polygon class="cls-32" points="121.27 171.58 97.96 291.2 93.36 312.13 97.13 290.9 121.27 171.58"/>
          <polygon class="cls-32" points="121.27 171.58 90.17 287.93 84.38 308.32 89.66 287.68 121.27 171.58"/>
          <polygon class="cls-32" points="121.26 171.57 82.91 283.91 75.69 303.45 82.13 283.42 121.26 171.57"/>
          <polygon class="cls-32" points="121.26 171.57 75.66 278.85 67.34 297.57 75.19 278.49 121.26 171.57"/>
          <polygon class="cls-32" points="121.26 171.57 69.04 273.2 59.41 290.74 68.33 272.53 121.26 171.57"/>
          <polygon class="cls-32" points="121.25 171.57 62.55 266.53 51.94 283.01 62.13 266.06 121.25 171.57"/>
          <polygon class="cls-32" points="121.25 171.56 56.75 259.42 45 274.44 56.14 258.59 121.25 171.56"/>
          <polygon class="cls-32" points="121.25 171.56 51.21 251.33 38.65 265.07 50.86 250.76 121.25 171.56"/>
          <polygon class="cls-32" points="121.25 171.56 46.42 242.96 32.92 255 45.92 242.01 121.25 171.56"/>
          <polygon class="cls-32" points="121.25 171.55 42 233.7 27.86 244.3 41.73 233.07 121.25 171.55"/>
          <polygon class="cls-32" points="121.24 171.55 38.35 224.34 23.5 233.04 37.98 223.29 121.24 171.55"/>
          <polygon class="cls-32" points="121.24 171.54 35.19 214.19 19.89 221.31 35 213.5 121.24 171.54"/>
          <polygon class="cls-32" points="121.24 171.54 32.8 204.11 17.06 209.2 32.58 202.99 121.24 171.54"/>
          <polygon class="cls-32" points="121.24 171.53 31.02 193.37 15.04 196.8 30.92 192.65 121.24 171.53"/>
          <polygon class="cls-32" points="121.24 171.53 29.98 182.89 13.83 184.21 29.9 181.73 121.24 171.53"/>
          <polygon class="cls-32" points="121.24 171.52 29.58 171.89 13.41 171.52 29.58 171.16 121.24 171.52"/>
          <polygon class="cls-32" points="121.24 171.52 29.9 161.32 13.83 158.84 29.98 160.16 121.24 171.52"/>
          <polygon class="cls-32" points="121.24 171.51 30.92 150.4 15.04 146.25 31.02 149.68 121.24 171.51"/>
          <polygon class="cls-32" points="121.24 171.51 32.58 140.06 17.06 133.85 32.8 138.93 121.24 171.51"/>
          <polygon class="cls-32" points="121.24 171.51 35 129.55 19.89 121.74 35.19 128.86 121.24 171.51"/>
          <polygon class="cls-32" points="121.24 171.5 37.98 119.76 23.5 110.01 38.35 118.7 121.24 171.5"/>
          <polygon class="cls-32" points="121.25 171.5 41.73 109.98 27.86 98.75 42 109.35 121.25 171.5"/>
          <polygon class="cls-32" points="121.25 171.49 45.92 101.04 32.92 88.05 46.42 100.09 121.25 171.49"/>
          <polygon class="cls-32" points="121.25 171.49 50.86 92.28 38.65 77.98 51.21 91.72 121.25 171.49"/>
          <polygon class="cls-32" points="121.25 171.49 56.14 84.45 45 68.61 56.75 83.63 121.25 171.49"/>
          <polygon class="cls-32" points="121.25 171.48 62.13 76.99 51.94 60.04 62.55 76.52 121.25 171.48"/>
          <polygon class="cls-32" points="121.26 171.48 68.33 70.52 59.41 52.31 69.04 69.85 121.26 171.48"/>
          <polygon class="cls-32" points="121.26 171.48 75.19 64.56 67.34 45.48 75.66 64.19 121.26 171.48"/>
          <polygon class="cls-32" points="121.26 171.47 82.13 59.63 75.69 39.6 82.91 59.14 121.26 171.47"/>
          <polygon class="cls-32" points="121.27 171.47 89.66 55.37 84.38 34.73 90.17 55.12 121.27 171.47"/>
          <polygon class="cls-32" points="121.27 171.47 97.13 52.15 93.36 30.92 97.96 51.85 121.27 171.47"/>
          <polygon class="cls-32" points="121.27 171.47 105.09 49.74 102.55 28.19 105.62 49.62 121.27 171.47"/>
          <polygon class="cls-32" points="121.28 171.47 112.86 48.34 111.88 26.55 113.72 48.23 121.28 171.47"/>
          <polygon class="cls-32" points="121.28 171.47 121.01 47.81 121.28 25.98 121.55 47.81 121.28 171.47"/>
          <polygon class="cls-32" points="121.28 171.47 128.84 48.23 130.68 26.55 129.7 48.34 121.28 171.47"/>
          <polygon class="cls-32" points="121.29 171.47 136.94 49.62 140.01 28.19 137.47 49.74 121.29 171.47"/>
          <polygon class="cls-32" points="121.29 171.47 144.6 51.85 149.21 30.92 145.43 52.15 121.29 171.47"/>
          <polygon class="cls-32" points="121.29 171.47 152.39 55.12 158.18 34.73 152.9 55.37 121.29 171.47"/>
          <polygon class="cls-32" points="121.3 171.47 159.65 59.14 166.88 39.6 160.43 59.63 121.3 171.47"/>
          <polygon class="cls-32" points="121.3 171.48 166.9 64.19 175.22 45.48 167.37 64.56 121.3 171.48"/>
          <polygon class="cls-32" points="121.3 171.48 173.52 69.85 183.15 52.31 174.23 70.52 121.3 171.48"/>
          <polygon class="cls-32" points="121.31 171.48 180.01 76.52 190.62 60.04 180.43 76.99 121.31 171.48"/>
          <polygon class="cls-32" points="121.31 171.49 185.81 83.63 197.56 68.61 186.42 84.45 121.31 171.49"/>
          <polygon class="cls-32" points="121.31 171.49 191.35 91.72 203.91 77.98 191.7 92.28 121.31 171.49"/>
          <polygon class="cls-32" points="121.31 171.49 196.15 100.09 209.64 88.05 196.64 101.04 121.31 171.49"/>
          <polygon class="cls-32" points="121.31 171.5 200.56 109.35 214.7 98.75 200.83 109.98 121.31 171.5"/>
          <polygon class="cls-32" points="121.32 171.5 204.21 118.7 219.06 110.01 204.58 119.76 121.32 171.5"/>
          <polygon class="cls-32" points="121.32 171.51 207.37 128.86 222.67 121.74 207.56 129.55 121.32 171.51"/>
          <polygon class="cls-32" points="121.32 171.51 209.76 138.93 225.5 133.85 209.98 140.06 121.32 171.51"/>
          <polygon class="cls-32" points="121.32 171.51 211.54 149.68 227.52 146.25 211.64 150.4 121.32 171.51"/>
          <polygon class="cls-32" points="121.32 171.52 212.59 160.16 228.74 158.84 212.66 161.32 121.32 171.52"/>
          <polygon class="cls-32" points="121.32 171.52 212.98 171.16 229.15 171.52 212.98 171.89 121.32 171.52"/>
        </g>
        <path class="cls-24" d="M0,0h242.56v343.05H0V0ZM38.93,12.64c0,15.24-12.47,27.7-27.7,27.7v264.91c15.24,0,27.7,12.47,27.7,27.7h163.91c0-15.24,12.47-27.7,27.7-27.7V40.34c-15.24,0-27.7-12.47-27.7-27.7H38.93Z"/>
        <path class="cls-24" d="M42.39,17.09h157.57v.58c0,7.14,2.92,13.63,7.63,18.33,4.7,4.71,11.19,7.62,18.33,7.62h.58v258.34h-.58c-7.14,0-13.63,2.92-18.33,7.63-4.71,4.71-7.63,11.19-7.63,18.33v.58H41.81v-.58c0-7.14-2.92-13.63-7.63-18.33-4.71-4.71-11.19-7.63-18.33-7.63h-.58V43.62h.58c7.14,0,13.63-2.92,18.33-7.62,4.71-4.71,7.63-11.2,7.63-18.33v-.58h.58ZM198.82,18.24H42.96c-.15,7.23-3.17,13.79-7.96,18.57-4.79,4.79-11.34,7.8-18.57,7.96v256.05c7.23.15,13.78,3.17,18.57,7.96,4.79,4.79,7.8,11.34,7.96,18.57h155.86c.15-7.23,3.17-13.79,7.96-18.57,4.79-4.79,11.34-7.8,18.57-7.96V44.77c-7.23-.15-13.78-3.17-18.57-7.96-4.79-4.79-7.8-11.34-7.96-18.57h0Z"/>
        <path class="cls-35" d="M40.85,8.92v1.69h-2.55c-.03.89-.09,1.8-.2,2.68l-1.68-.21c.14-1.07.2-2.2.2-3.28h.85s0-.88,0-.88h3.39ZM36.17,14.7c-.2,1.08-.46,2.14-.79,3.18l1.61.52c.35-1.1.63-2.25.84-3.39l-1.66-.31ZM34.84,19.44c-.38,1.02-.85,2.03-1.35,2.99l1.5.79c.54-1.02,1.03-2.1,1.44-3.18l-1.58-.6h0ZM32.68,23.86c-.57.94-1.19,1.84-1.87,2.7l1.33,1.05c.72-.92,1.38-1.87,1.98-2.87l-1.45-.88h0ZM29.76,27.83c-.72.82-1.5,1.6-2.32,2.33l1.12,1.27c.87-.78,1.69-1.6,2.46-2.47l-1.27-1.12h0ZM26.19,31.21c-.86.68-1.76,1.31-2.69,1.88l.88,1.45c.99-.61,1.95-1.27,2.86-2l-1.05-1.33ZM22.07,33.91c-.97.51-1.96.97-2.98,1.37l.6,1.58c1.08-.41,2.15-.91,3.17-1.46l-.79-1.5h0ZM17.54,35.83c-1.05.33-2.09.6-3.18.81l.31,1.66c1.16-.22,2.26-.51,3.38-.86l-.52-1.61ZM12.74,36.9c-1.1.14-2.17.21-3.28.22v1.69c1.18-.01,2.32-.09,3.49-.23l-.2-1.68h0ZM8.42,39.46h1.69v3.39h-1.69v-3.39ZM8.42,44.54h1.69v3.39h-1.69v-3.39ZM8.42,49.62h1.69v3.39h-1.69v-3.39ZM8.42,54.7h1.69v3.39h-1.69v-3.39ZM8.42,59.78h1.69v3.39h-1.69v-3.39ZM8.42,64.86h1.69v3.39h-1.69v-3.39ZM8.42,69.95h1.69v3.39h-1.69v-3.39ZM8.42,75.03h1.69v3.39h-1.69v-3.39ZM8.42,80.11h1.69v3.39h-1.69v-3.39ZM8.42,85.19h1.69v3.39h-1.69v-3.39ZM8.42,90.27h1.69v3.39h-1.69v-3.39ZM8.42,95.35h1.69v3.39h-1.69v-3.39ZM8.42,100.43h1.69v3.39h-1.69v-3.39ZM8.42,105.51h1.69v3.39h-1.69v-3.39ZM8.42,110.59h1.69v3.39h-1.69v-3.39ZM8.42,115.67h1.69v3.39h-1.69v-3.39ZM8.42,120.75h1.69v3.39h-1.69v-3.39ZM8.42,125.84h1.69v3.39h-1.69v-3.39ZM8.42,130.92h1.69v3.39h-1.69v-3.39ZM8.42,136h1.69v3.39h-1.69v-3.39ZM8.42,141.08h1.69v3.39h-1.69v-3.39ZM8.42,146.16h1.69v3.39h-1.69v-3.39ZM8.42,151.24h1.69v3.39h-1.69v-3.39ZM8.42,156.32h1.69v3.39h-1.69v-3.39ZM8.42,161.4h1.69v3.39h-1.69v-3.39ZM8.42,166.48h1.69v3.39h-1.69v-3.39ZM8.42,171.56h1.69v3.39h-1.69v-3.39ZM8.42,176.64h1.69v3.39h-1.69v-3.39ZM8.42,181.72h1.69v3.39h-1.69v-3.39ZM8.42,186.81h1.69v3.39h-1.69v-3.39ZM8.42,191.89h1.69v3.39h-1.69v-3.39ZM8.42,196.97h1.69v3.39h-1.69v-3.39ZM8.42,202.05h1.69v3.39h-1.69v-3.39ZM8.42,207.13h1.69v3.39h-1.69v-3.39ZM8.42,212.21h1.69v3.39h-1.69v-3.39ZM8.42,217.29h1.69v3.39h-1.69v-3.39ZM8.42,222.37h1.69v3.39h-1.69v-3.39ZM8.42,227.45h1.69v3.39h-1.69v-3.39ZM8.42,232.53h1.69v3.39h-1.69v-3.39ZM8.42,237.61h1.69v3.39h-1.69v-3.39ZM8.42,242.69h1.69v3.39h-1.69v-3.39ZM8.42,247.78h1.69v3.39h-1.69v-3.39ZM8.42,252.86h1.69v3.39h-1.69v-3.39ZM8.42,257.94h1.69v3.39h-1.69v-3.39ZM8.42,263.02h1.69v3.39h-1.69v-3.39ZM8.42,268.1h1.69v3.39h-1.69v-3.39ZM8.42,273.18h1.69v3.39h-1.69v-3.39ZM8.42,278.26h1.69v3.39h-1.69v-3.39ZM8.42,283.34h1.69v3.39h-1.69v-3.39ZM8.42,288.42h1.69v3.39h-1.69v-3.39ZM8.42,293.5h1.69v3.39h-1.69v-3.39ZM8.42,298.58h1.69v3.39h-1.69v-3.39ZM8.42,303.67h1.69v3.39h-1.69v-3.39ZM10.35,308.49c1.09.04,2.19.15,3.27.33l.28-1.67c-1.15-.19-2.31-.3-3.47-.35l-.08,1.69h0ZM15.24,309.13c1.05.23,2.14.55,3.15.91l.58-1.59c-1.09-.39-2.23-.72-3.35-.97l-.37,1.65ZM19.91,310.64c.94.4,2.08.93,2.94,1.47l.86-1.46c-.99-.58-2.06-1.11-3.12-1.56l-.67,1.56h0ZM24.25,312.97c.92.61,1.79,1.26,2.63,1.97l1.09-1.29c-.9-.75-1.81-1.44-2.79-2.09l-.94,1.41h0ZM28.1,316.04c.79.75,1.54,1.57,2.24,2.4l1.31-1.08c-.74-.89-1.53-1.76-2.38-2.55l-1.17,1.23h0ZM31.35,319.74c.65.89,1.24,1.8,1.78,2.76l1.48-.83c-.57-1.02-1.2-1.99-1.89-2.93l-1.37,1ZM33.89,323.95c.48.98.9,2,1.25,3.03l1.6-.54c-.38-1.1-.82-2.18-1.33-3.23l-1.53.74h0ZM35.63,328.55c.29,1.06.52,2.12.68,3.21l1.68-.25c-.17-1.15-.42-2.28-.73-3.41l-1.63.45h0ZM36.51,333.39c.1,1.11.11,2.15.11,3.27h1.74v-1.69h-.05c-.02-.57-.05-1.15-.1-1.72l-1.69.14ZM40.04,336.67v-1.69h3.39v1.69h-3.39ZM45.13,336.67v-1.69h3.39v1.69h-3.39ZM50.21,336.67v-1.69h3.39v1.69h-3.39ZM55.29,336.67v-1.69h3.39v1.69h-3.39ZM60.37,336.67v-1.69h3.39v1.69h-3.39ZM65.45,336.67v-1.69h3.39v1.69h-3.39ZM70.53,336.67v-1.69h3.39v1.69h-3.39ZM75.61,336.67v-1.69h3.39v1.69h-3.39ZM80.69,336.67v-1.69h3.39v1.69h-3.39ZM85.77,336.67v-1.69h3.39v1.69h-3.39ZM90.85,336.67v-1.69h3.39v1.69h-3.39ZM95.93,336.67v-1.69h3.39v1.69h-3.39ZM101.02,336.67v-1.69h3.39v1.69h-3.39ZM106.1,336.67v-1.69h3.39v1.69h-3.39ZM111.18,336.67v-1.69h3.39v1.69h-3.39ZM116.26,336.67v-1.69h3.39v1.69h-3.39ZM121.34,336.67v-1.69h3.39v1.69h-3.39ZM126.42,336.67v-1.69h3.39v1.69h-3.39ZM131.5,336.67v-1.69h3.39v1.69h-3.39ZM136.58,336.67v-1.69h3.39v1.69h-3.39ZM141.66,336.67v-1.69h3.39v1.69h-3.39ZM146.74,336.67v-1.69h3.39v1.69h-3.39ZM151.82,336.67v-1.69h3.39v1.69h-3.39ZM156.91,336.67v-1.69h3.39v1.69h-3.39ZM161.99,336.67v-1.69h3.39v1.69h-3.39ZM167.07,336.67v-1.69h3.39v1.69h-3.39ZM172.15,336.67v-1.69h3.39v1.69h-3.39ZM177.23,336.67v-1.69h3.39v1.69h-3.39ZM182.31,336.67v-1.69h3.39v1.69h-3.39ZM187.39,336.67v-1.69h3.39v1.69h-3.39ZM192.47,336.67v-1.69h3.39v1.69h-3.39ZM197.55,336.67v-1.69h3.39v1.69h-3.39ZM202.63,336.67v-1.69h.84c0-.31.02-.61.04-.92l1.69.11c-.05.84-.05,1.66-.05,2.51h-2.52ZM205.35,332.52c.1-1.03.34-2.22.59-3.22l-1.64-.41c-.27,1.08-.52,2.33-.63,3.43l1.68.2h0ZM206.39,327.71c.31-1.03.73-2.09,1.17-3.07l-1.54-.7c-.47,1.04-.91,2.17-1.24,3.26l1.62.51ZM208.27,323.17c.51-.97,1.08-1.91,1.7-2.81l-1.39-.97c-.66.96-1.27,1.96-1.81,2.98l1.5.79h0ZM210.95,319.04c.68-.86,1.4-1.69,2.17-2.46l-1.2-1.2c-.82.82-1.59,1.7-2.31,2.61l1.33,1.05h0ZM214.31,315.44c.82-.73,1.68-1.41,2.57-2.04l-.97-1.39c-.95.67-1.86,1.39-2.73,2.17l1.12,1.27ZM218.26,312.5c.93-.57,1.9-1.1,2.89-1.55l-.7-1.54c-1.05.48-2.09,1.04-3.08,1.64l.88,1.45h0ZM222.66,310.31c1.03-.4,2.06-.73,3.13-1l-.41-1.64c-1.13.29-2.23.64-3.32,1.06l.6,1.58ZM227.39,308.95c1.08-.2,2.16-.35,3.26-.42l-.11-1.69c-1.17.08-2.31.23-3.46.45l.31,1.67ZM232.29,308.47c.35,0,.71,0,1.06,0v-4.01h-1.69v3.17l.63.63v.22s0,0,0,0ZM233.35,302.76h-1.69v-3.39h1.69v3.39ZM233.35,297.68h-1.69v-3.39h1.69v3.39ZM233.35,292.6h-1.69v-3.39h1.69v3.39ZM233.35,287.51h-1.69v-3.39h1.69v3.39ZM233.35,282.43h-1.69v-3.39h1.69v3.39ZM233.35,277.35h-1.69v-3.39h1.69v3.39ZM233.35,272.27h-1.69v-3.39h1.69v3.39ZM233.35,267.19h-1.69v-3.39h1.69v3.39ZM233.35,262.11h-1.69v-3.39h1.69v3.39ZM233.35,257.03h-1.69v-3.39h1.69v3.39ZM233.35,251.95h-1.69v-3.39h1.69v3.39ZM233.35,246.87h-1.69v-3.39h1.69v3.39ZM233.35,241.79h-1.69v-3.39h1.69v3.39ZM233.35,236.71h-1.69v-3.39h1.69v3.39ZM233.35,231.63h-1.69v-3.39h1.69v3.39ZM233.35,226.54h-1.69v-3.39h1.69v3.39ZM233.35,221.46h-1.69v-3.39h1.69v3.39ZM233.35,216.38h-1.69v-3.39h1.69v3.39ZM233.35,211.3h-1.69v-3.39h1.69v3.39ZM233.35,206.22h-1.69v-3.39h1.69v3.39ZM233.35,201.14h-1.69v-3.39h1.69v3.39ZM233.35,196.06h-1.69v-3.39h1.69v3.39ZM233.35,190.98h-1.69v-3.39h1.69v3.39ZM233.35,185.9h-1.69v-3.39h1.69v3.39ZM233.35,180.82h-1.69v-3.39h1.69v3.39ZM233.35,175.74h-1.69v-3.39h1.69v3.39ZM233.35,170.65h-1.69v-3.39h1.69v3.39ZM233.35,165.57h-1.69v-3.39h1.69v3.39ZM233.35,160.49h-1.69v-3.39h1.69v3.39ZM233.35,155.41h-1.69v-3.39h1.69v3.39ZM233.35,150.33h-1.69v-3.39h1.69v3.39ZM233.35,145.25h-1.69v-3.39h1.69v3.39ZM233.35,140.17h-1.69v-3.39h1.69v3.39ZM233.35,135.09h-1.69v-3.39h1.69v3.39ZM233.35,130.01h-1.69v-3.39h1.69v3.39ZM233.35,124.93h-1.69v-3.39h1.69v3.39ZM233.35,119.85h-1.69v-3.39h1.69v3.39ZM233.35,114.76h-1.69v-3.39h1.69v3.39ZM233.35,109.68h-1.69v-3.39h1.69v3.39ZM233.35,104.6h-1.69v-3.39h1.69v3.39ZM233.35,99.52h-1.69v-3.39h1.69v3.39ZM233.35,94.44h-1.69v-3.39h1.69v3.39ZM233.35,89.36h-1.69v-3.39h1.69v3.39ZM233.35,84.28h-1.69v-3.39h1.69v3.39ZM233.35,79.2h-1.69v-3.39h1.69v3.39ZM233.35,74.12h-1.69v-3.39h1.69v3.39ZM233.35,69.04h-1.69v-3.39h1.69v3.39ZM233.35,63.96h-1.69v-3.39h1.69v3.39ZM233.35,58.88h-1.69v-3.39h1.69v3.39ZM233.35,53.79h-1.69v-3.39h1.69v3.39ZM233.35,48.71h-1.69v-3.39h1.69v3.39ZM233.35,43.63h-1.69v-3.39h1.69v3.39ZM233.35,38.55h-1.11l.26.26c-.96,0-1.92-.05-2.88-.14l.17-1.68c1.21.12,2.34.13,3.56.13v1.43h0ZM228.17,36.77c-1.08-.18-2.15-.41-3.21-.72l-.47,1.63c1.12.32,2.25.57,3.4.76l.28-1.67h0ZM223.4,35.55c-1.04-.37-2.04-.8-3.02-1.29h0s-.77,1.51-.77,1.51c1.06.52,2.1.97,3.21,1.37l.57-1.59h0ZM218.93,33.49c-.95-.54-1.87-1.15-2.74-1.81l-1.01,1.36c.93.69,1.9,1.34,2.91,1.92l.85-1.47h0ZM214.9,30.66c-.84-.71-1.63-1.46-2.38-2.26l-1.24,1.15c.79.85,1.63,1.65,2.52,2.4l1.09-1.29ZM211.44,27.16c-.7-.84-1.35-1.73-1.94-2.65l-1.42.92c.63.98,1.32,1.92,2.06,2.81l1.31-1.08h0ZM208.65,23.1c-.54-.95-1.02-1.94-1.44-2.95l-1.57.64c.44,1.07.95,2.12,1.53,3.14l1.48-.83h0ZM206.63,18.62c-.36-1.04-.65-2.09-.88-3.16l-1.66.35c.25,1.14.55,2.25.93,3.36l1.6-.55ZM205.46,13.84c-.16-1.08-.26-2.17-.29-3.27l-1.69.04c.04,1.17.14,2.32.31,3.47l1.67-.25h0ZM203.44,8.92v1.69h-3.39v-1.69h3.39ZM198.36,8.92v1.69h-3.39v-1.69h3.39ZM193.28,8.92v1.69h-3.39v-1.69h3.39ZM188.2,8.92v1.69h-3.39v-1.69h3.39ZM183.12,8.92v1.69h-3.39v-1.69h3.39ZM178.03,8.92v1.69h-3.39v-1.69h3.39ZM172.95,8.92v1.69h-3.39v-1.69h3.39ZM167.87,8.92v1.69h-3.39v-1.69h3.39ZM162.79,8.92v1.69h-3.39v-1.69h3.39ZM157.71,8.92v1.69h-3.39v-1.69h3.39ZM152.63,8.92v1.69h-3.39v-1.69h3.39ZM147.55,8.92v1.69h-3.39v-1.69h3.39ZM142.47,8.92v1.69h-3.39v-1.69h3.39ZM137.39,8.92v1.69h-3.39v-1.69h3.39ZM132.31,8.92v1.69h-3.39v-1.69h3.39ZM127.23,8.92v1.69h-3.39v-1.69h3.39ZM122.14,8.92v1.69h-3.39v-1.69h3.39ZM117.06,8.92v1.69h-3.39v-1.69h3.39ZM111.98,8.92v1.69h-3.39v-1.69h3.39ZM106.9,8.92v1.69h-3.39v-1.69h3.39ZM101.82,8.92v1.69h-3.39v-1.69h3.39ZM96.74,8.92v1.69h-3.39v-1.69h3.39ZM91.66,8.92v1.69h-3.39v-1.69h3.39ZM86.58,8.92v1.69h-3.39v-1.69h3.39ZM81.5,8.92v1.69h-3.39v-1.69h3.39ZM76.42,8.92v1.69h-3.39v-1.69h3.39ZM71.34,8.92v1.69h-3.39v-1.69h3.39ZM66.25,8.92v1.69h-3.39v-1.69h3.39ZM61.17,8.92v1.69h-3.39v-1.69h3.39ZM56.09,8.92v1.69h-3.39v-1.69h3.39ZM51.01,8.92v1.69h-3.39v-1.69h3.39ZM45.93,8.92v1.69h-3.39v-1.69h3.39Z"/>
        <g>
          <path class="cls-27" d="M148.29,219.24l20.99,1.63-2.63-11.42s-23.82,4.65-18.36,9.79h0Z"/>
          <path class="cls-27" d="M95.25,229.93c-.98,0-10.58.89-10.58.89l1.09-8.48,14.39-1.39-4.89,8.97h0Z"/>
          <path class="cls-5" d="M84.73,166.57c.31,6.63-8.37,14.5-18.86,20.65h-32.74v10.07c1.83,0,4.11.45,6.52,1.15,1.21-1.85,2.08-3.11,2.08-3.11l.48,3.93c1.12.39,2.25.83,3.35,1.28l2.37-5.05,1.38,6.74c1.97.96,3.71,1.92,5.01,2.77,2.71,1.77,5.21,3.63,7.57,5.53l.25-3.45,11.47,13.95.11-6.61,2.57,9.13c2.73,2.54,5.47,5,8.38,7.27l1.09-8.47,14.39-1.39-8.75,5.18-.87,8.79c7.4,4.59,16.28,7.82,28.69,8.44,7.74.38,15.05-1.31,22-4.26-2.29-1.34-4.02-2.32-4.02-2.32l7.4.77c6.2-3.03,12.1-6.98,17.74-11.24l-1.93-7.03-8.7-2.89,8.65-2.77,6.67.5,2.25,6.76c3.01-2.43,5.94-4.88,8.81-7.23-1.58-1.64-2.55-2.64-2.55-2.64l3.7,1.7c1.61-1.31,3.2-2.59,4.77-3.82l-.3-1.14,2.77-5.55,3.88,1.98c2.04-1.41,4.04-2.68,6.02-3.76l1.36-5.23,3.13,3.08c2.95-1.18,5.84-1.86,8.68-1.86v-10.07l-31.42.9c-6.95-4.94-9.34-11.2-20.66-20.06l-72.73-.59h0Z"/>
          <path class="cls-33" d="M84.53,155.38c.67,14.15-38.56,33.84-51.5,31.54,0,0,11.05,1.9,20.27,7.92,13.37,8.73,21.66,19.44,32.47,27.5l14.38-1.39-8.75,5.17c7.42,4.42,16.31,7.5,28.54,8.11,15.92.79,28.54-6.04,40.47-14.96l-8.7-2.89,8.65-2.77,6.67.5c13.12-10.6,25.98-22.52,42.16-28.03-37.25-6.57-29.83-14.33-49.98-30.1l-74.68-.6h0Z"/>
          <path class="cls-4" d="M172.74,209.43c11.22-9.25,22.62-18.64,36.46-23.35-23.81-4.2-29.37-8.88-35.54-15.84-30.23,7.15-61.58,19.93-58.98,41.14,1.14,1.3,6.45,11.18,6.45,11.18,0,0,37.67-11.56,51.62-13.12h0Z"/>
          <path class="cls-14" d="M39.4,186.74c-2.48.4-4.66.49-6.38.19,0,0,11.05,1.9,20.27,7.92,13.36,8.73,21.66,19.44,32.47,27.5l14.38-1.39-8.75,5.17c1.47.87,2.99,1.69,4.59,2.45l6.6-8.07-9.63,1.13-7.5-3.25,3.26-3.43-10.93-1.47-.98-5.71-4.57,1.47-5.87-8.49,2.45-4.41-5.38,2.77-5.14-2.94-1.06-3.26-3.92-.08s.98-2.28,1.22-2.77c.25-.49-8.57,0-8.57,0,0,0-4.02-2.14-6.57-3.35h0ZM95.99,228.59c6.48,3.08,14.14,5.16,23.95,5.65,15.92.79,28.54-6.04,40.47-14.96l-8.7-2.89,8.65-2.77,6.67.5c12.93-10.45,25.6-22.17,41.46-27.79-.13-.15-.27-.3-.39-.44-1.79-.32-3.47-.65-5.06-.98l-8.9,4.45-6.53,5.3-13.05,4.08,3.18,3.26h-7.91l4.98,3.1-15.42-.41,13.05,3.18-4.24,3.59-4.81.41-13.95,3.92,8.63,4.21s-4.14,2.96-4.88,3.13c-.73.16-11.5,1.71-11.5,1.71l3.75,2.2-13.63.08s6.69,2.53,3.75,3.43c-2.94.9-10.69,2.2-10.69,2.2l-3.02-6.45-2.28,6.45-2.94-6.04-1.79,5.87-2.45-3.59-1.31,2.28-15.09-2.7h0Z"/>
          <path class="cls-16" d="M84.53,155.38c.29,6.17-7,13.39-16.39,19.38h0s3.36,3.06,9.72,7.96c6.36,4.9,19.84,20.98,19.84,20.98l49.27-2.22s19.14-17.83,20.44-19.3c.73-.83,5.59-4.9,9.7-8.31-3.39-3.18-6.03-6.87-10.48-11.32-11.58-2.08-27.9-4.8-44.56-6.86l-37.55-.3h0Z"/>
          <path class="cls-30" d="M146.69,202.04l-11.36-9.12-3.97,2.21c2.39,7.96,9.36,8.2,15.33,6.91h0Z"/>
          <path class="cls-15" d="M123.68,199.7v-1.02c11.67-4.35,39.95-22.21,41.89-33.41.56-3.24.56-61.39.56-61.39l-44.48,5.87-43.25-4.87s0,58.15.55,61.39c1.48,8.5,18.14,20.37,31.19,27.48,4.13,2.25,7.9,4.03,10.71,5.08v.72c.34-.07.73-.17,1.17-.31.64.21,1.2.37,1.66.46h0Z"/>
          <polygon class="cls-27" points="79.64 116.28 80.96 116.61 80.96 134.01 79.64 133.68 79.64 116.28"/>
          <polygon class="cls-27" points="83.7 117.29 85.02 117.62 85.02 135.02 83.7 134.69 83.7 117.29"/>
          <polygon class="cls-27" points="87.69 118.29 89.01 118.61 89.01 136.01 87.69 135.68 87.69 118.29"/>
          <polygon class="cls-27" points="91.68 119.28 93 119.61 93 137.01 91.68 136.68 91.68 119.28"/>
          <polygon class="cls-27" points="95.67 120.27 96.99 120.6 96.99 138 95.67 137.67 95.67 120.27"/>
          <polygon class="cls-27" points="99.66 121.27 100.98 121.6 100.98 138.99 99.66 138.67 99.66 121.27"/>
          <polygon class="cls-27" points="103.65 122.26 104.96 122.59 104.96 139.99 103.65 139.66 103.65 122.26"/>
          <polygon class="cls-27" points="107.63 123.25 108.95 123.58 108.95 140.98 107.63 140.65 107.63 123.25"/>
          <polygon class="cls-27" points="111.55 124.23 112.87 124.56 112.87 141.96 111.55 141.63 111.55 124.23"/>
          <polygon class="cls-27" points="115.76 125.28 117.08 125.61 117.08 143.01 115.76 142.68 115.76 125.28"/>
          <polygon class="cls-27" points="119.97 126.33 121.29 126.66 121.29 144.06 119.97 143.73 119.97 126.33"/>
          <polygon class="cls-20" points="78.53 112.96 79.85 113.29 79.85 130.69 78.53 130.36 78.53 112.96"/>
          <polygon class="cls-20" points="82.59 113.97 83.91 114.3 83.91 131.7 82.59 131.37 82.59 113.97"/>
          <polygon class="cls-20" points="86.57 114.97 87.89 115.3 87.89 132.69 86.57 132.36 86.57 114.97"/>
          <polygon class="cls-20" points="90.56 115.96 91.88 116.29 91.88 133.69 90.56 133.36 90.56 115.96"/>
          <polygon class="cls-20" points="94.55 116.96 95.87 117.28 95.87 134.68 94.55 134.35 94.55 116.96"/>
          <polygon class="cls-20" points="98.54 117.95 99.86 118.28 99.86 135.67 98.54 135.35 98.54 117.95"/>
          <polygon class="cls-20" points="102.53 118.94 103.85 119.27 103.85 136.67 102.53 136.34 102.53 118.94"/>
          <polygon class="cls-20" points="106.52 119.94 107.84 120.26 107.84 137.66 106.52 137.33 106.52 119.94"/>
          <polygon class="cls-20" points="110.43 120.91 111.75 121.24 111.75 138.64 110.43 138.31 110.43 120.91"/>
          <polygon class="cls-20" points="114.64 121.96 115.96 122.29 115.96 139.69 114.64 139.36 114.64 121.96"/>
          <polygon class="cls-20" points="118.86 123.01 120.18 123.34 120.18 140.74 118.86 140.41 118.86 123.01"/>
          <polygon class="cls-20" points="164.62 115.82 163.3 116.14 163.3 133.54 164.62 133.21 164.62 115.82"/>
          <polygon class="cls-20" points="160.56 116.83 159.24 117.16 159.24 134.55 160.56 134.22 160.56 116.83"/>
          <polygon class="cls-20" points="156.57 117.82 155.25 118.15 155.25 135.55 156.57 135.22 156.57 117.82"/>
          <polygon class="cls-20" points="152.58 118.81 151.26 119.14 151.26 136.54 152.58 136.21 152.58 118.81"/>
          <polygon class="cls-20" points="148.59 119.81 147.27 120.14 147.27 137.53 148.59 137.21 148.59 119.81"/>
          <polygon class="cls-20" points="144.6 120.8 143.28 121.13 143.28 138.53 144.6 138.2 144.6 120.8"/>
          <polygon class="cls-20" points="140.61 121.8 139.29 122.12 139.29 139.52 140.61 139.19 140.61 121.8"/>
          <polygon class="cls-20" points="136.62 122.79 135.3 123.12 135.3 140.52 136.62 140.19 136.62 122.79"/>
          <polygon class="cls-20" points="132.71 123.76 131.39 124.09 131.39 141.49 132.71 141.16 132.71 123.76"/>
          <polygon class="cls-20" points="128.5 124.81 127.18 125.14 127.18 142.54 128.5 142.21 128.5 124.81"/>
          <polygon class="cls-20" points="124.28 125.86 122.96 126.19 122.96 143.59 124.28 143.26 124.28 125.86"/>
          <polygon class="cls-27" points="165.73 112.5 164.41 112.83 164.41 130.22 165.73 129.89 165.73 112.5"/>
          <polygon class="cls-27" points="161.67 113.51 160.35 113.84 160.35 131.23 161.67 130.9 161.67 113.51"/>
          <polygon class="cls-27" points="157.68 114.5 156.36 114.83 156.36 132.23 157.68 131.9 157.68 114.5"/>
          <polygon class="cls-27" points="153.69 115.5 152.37 115.82 152.37 133.22 153.69 132.89 153.69 115.5"/>
          <polygon class="cls-27" points="149.7 116.49 148.38 116.82 148.38 134.22 149.7 133.89 149.7 116.49"/>
          <polygon class="cls-27" points="145.72 117.48 144.4 117.81 144.4 135.21 145.72 134.88 145.72 117.48"/>
          <polygon class="cls-27" points="141.73 118.48 140.41 118.81 140.41 136.2 141.73 135.87 141.73 118.48"/>
          <polygon class="cls-27" points="137.74 119.47 136.42 119.8 136.42 137.2 137.74 136.87 137.74 119.47"/>
          <polygon class="cls-27" points="133.83 120.45 132.51 120.77 132.51 138.17 133.83 137.84 133.83 120.45"/>
          <polygon class="cls-27" points="129.61 121.5 128.29 121.82 128.29 139.22 129.61 138.89 129.61 121.5"/>
          <polygon class="cls-27" points="125.4 122.55 124.08 122.87 124.08 140.27 125.4 139.94 125.4 122.55"/>
          <path class="cls-30" d="M176.09,128.18c-.36-.68-5.35-1.89-10-2.62l-.17,2.2-43.94,12.02-43.42-11.93-.13-1.57c-4.64.73-9.01,1.62-9.36,2.3,10.61,2.75,39.07,11.47,51.3,15.12l.71.14c17.49-5.28,37.38-11.09,55.01-15.66h0Z"/>
          <path class="cls-25" d="M72.66,101.57c.56-2.6,9.93-15.56,17.11-22.46,7.18-6.9,32.39-27.46,32.39-27.46l.1,5.32.1-5.48s25.21,20.56,32.39,27.46c7.18,6.9,16.55,19.85,17.11,22.46l-48.65,6.3v.4s-1.54-.2-1.54-.2l-.36.05v-.09s-48.64-6.3-48.64-6.3h0Z"/>
          <path class="cls-22" d="M85.95,176.74c-3.6-3.56-4.79-15.63-4.82-20.58-.02-3.73.68-9.66,2.93-13.89,1.84-3.47,4.73-5.78,9.11-4.78,4.93,1.13,19.22,5.56,22.88,12.32,3.66,6.76,2.74,43.5,1.61,46.18-3.76,8.93-8.73,4.74-14.88,9.55-1,.79,3.7,1.92,7.83,5.77,5.3,4.93,10.5,12.58,10.51,11.19l.18-78.45-45.47-13.66-3.03,23.24,3.72,26.36s.91,3.49,2.62,3.3l6.8-6.55h0Z"/>
          <path class="cls-30" d="M157.94,176.53c5.54-4.7,11.56-42.57-10.28-37.58-4.93,1.13-17.14,4.22-20.8,10.98-3.66,6.76-1.13,43.23,0,45.91,3.76,8.93,8.73,4.74,14.88,9.55,2.29,1.8-21,19.41-20.99,16.93l.34-78.58,47.61-13.5,3.69,27.9-4.39,21.71s-1.75,3.67-3.05,2.58l-7.01-5.89h0Z"/>
          <path class="cls-7" d="M79.04,183.3s-2.66-5.25-3.94-13.37c-1-6.35-1.6-15.91.64-23.13,1.68-5.44,3.82-8.97,9.72-7.63,2.62.6,11.92,3.06,17.14,5.33,17.79,7.71,13.33,36.89,8.51,48.32-3.76,8.93-7.64,8.66-13.71,9.6-.81.12.68,1.95,3.24,4.45,1.08-.3,2.03-.54,2.03-.54l-.09,2.38c.77.71,1.59,1.45,2.44,2.2l.83-.55.14,1.41c.91.79,1.84,1.59,2.78,2.37l1.32-2.63s-.17,1.52-.37,3.42c2.5,2.06,4.96,3.97,6.91,5.37.46-.74.8-1.22.8-1.04,0,.2.39,1.09.88,2.18,1.49.96,2.43,1.36,2.43.89l.34-78.58-52.01-15.37-1.52,1.84.47,44.45s9.76,8.66,11.01,8.63h0Z"/>
          <path class="cls-22" d="M165.85,182.15s1.06-4.66,2.33-12.78c1-6.35,1.6-15.9-.64-23.13-1.68-5.44-3.82-8.97-9.72-7.63-2.62.6-11.92,3.06-17.14,5.33-17.79,7.71-13.33,36.89-8.51,48.32,3.76,8.93,8.72,8.28,14.8,9.22,2.88.45-26.29,23.48-26.29,21l-.04-78.59,55.26-15.94,1.52,1.84-.47,44.45s-9.84,7.93-11.09,7.91h0Z"/>
          <path class="cls-9" d="M67.55,130.22h0s1.52-1.85,1.52-1.85l51.56,15.41,55.03-15.92,1.75,1.93-.45.28c-18.57,5.69-37.19,11.25-55.79,16.84-17.93-5.39-35.73-11.21-53.62-16.69h0Z"/>
          <path class="cls-13" d="M63.57,103.31s.14,12.25.77,13.38c.63,1.13,9.15,2.89,9.15,2.89l47.63,12.78.85.23,1.42-.38,47.63-12.78s8.52-1.76,9.15-2.89c.63-1.13.77-13.38.77-13.38,0-1.4.83-4.25-1.43-4.01-12.99,1.33-48.96,7.53-57.79,8.76-10.34-1.52-44.2-7.32-56.72-8.61-2.26-.23-1.43,2.62-1.43,4.01h0Z"/>
          <path class="cls-20" d="M64.09,115.49c.08.6.16,1.03.26,1.2.63,1.13,9.15,2.89,9.15,2.89l.61.16-2.11-2.35-1.92-.82s-1.51,1.14-1.92,1.39c-.41.24-.73-.69-.73-.69l-.98-.69s-.96-.3-2.36-1.09h0ZM74.11,119.74l29.74,7.98-2.87-3.03h-5.31l-4.01-1.79-1.55.25-4.41-1.35-2-2.04-1.92.98s-.08-.82-.2-1.18c-.12-.37-3.18-.04-3.18-.04l-1.43-1.43-2.87,1.66h0ZM103.85,127.72l12.37,3.32c-.23-.45-.46-.76-.46-.76l-6.81-1.6,1.48-1.88-6.58.91h0Z"/>
          <path class="cls-21" d="M121.66,132.59l1.42-.38,4.07-1.09,43.87-11.7s8.52-1.76,9.15-2.89c.63-1.13.77-13.38.77-13.38,0-1.4.82-4.25-1.44-4.01-12.99,1.33-48.75,7.53-57.57,8.76l-.55-.08.27,24.76h0Z"/>
          <path class="cls-7" d="M68.84,107.63s.08,5.63.56,6.49c.49.86,7,2.21,7,2.21l44.53,12.12.83.22,1.39-.38,44.96-12.12s6.51-1.34,7-2.21c.48-.86.56-6.49.56-6.49,0-1.07.63-3.25-1.1-3.07-10.1,1.04-40.15,6.96-46.29,7.78l-6.95,8.04-6.81-7.88c-6.14-.82-34.49-6.75-44.59-7.78-1.73-.18-1.1,2-1.1,3.07h0Z"/>
          <path class="cls-10" d="M153.26,120.18l10.89-2.94,7.34-12.67c-.18-.13-.44-.2-.8-.16-3.16.32-4.38,1.12-10.1,2.1l-7.33,13.67h0Z"/>
          <path class="cls-10" d="M139.67,123.84l3.4-.92,7.27-14.61c-1.41.25-2.82.51-4.19.75-2.02,4.56-4.55,10.35-6.48,14.78h0Z"/>
          <path class="cls-10" d="M123.24,128.27l6.74-1.82c3.8-6.94,8.98-16.09,8.98-16.09-2.75.5-5.19.93-7.13,1.26l-8.59,16.64h0Z"/>
          <path class="cls-9" d="M98.53,122.35l2.28.62,9.14-11.39c-.68-.12-1.41-.26-2.18-.4l-9.24,11.16h0Z"/>
          <path class="cls-9" d="M84.51,118.53l3.27.89,9.76-10.17c-1.52-.29-3.07-.58-4.63-.87l-8.4,10.15h0Z"/>
          <path class="cls-9" d="M69.3,113.84c.03.12.07.21.1.28.35.61,3.75,1.47,5.68,1.92,2.53-3.21,5.4-6.86,7.52-9.54-2.74-.48-5.33-.91-7.59-1.26-2.34,3.33-4.22,6.21-5.71,8.6h0Z"/>
          <polygon class="cls-30" points="81.39 110.32 81.25 113.98 116.56 121.84 113.68 116.95 81.39 110.32"/>
          <polygon class="cls-30" points="163.13 110.17 163.27 113.83 127.96 121.68 130.84 116.8 163.13 110.17"/>
          <polygon class="cls-27" points="115.71 120.57 113.59 116.79 82.37 110.52 82.27 113.07 115.71 120.57"/>
          <polygon class="cls-27" points="128.81 120.41 130.93 116.63 162.15 110.37 162.25 112.92 128.81 120.41"/>
          <polygon class="cls-9" points="116.85 111.03 72.39 103.01 69.26 104.55 114.43 112.36 120.26 119.1 121.24 120.23 122.34 118.96 128.17 112.21 175.25 104.39 172.13 102.86 125.76 110.88 121.24 116.59 116.85 111.03"/>
          <path class="cls-5" d="M88.2,145.58h0c.7.2,1.28.98,1.28,1.74v9.12c0,.76-.58,1.22-1.28,1.02h0c-.7-.2-1.28-.98-1.28-1.75v-9.12c0-.76.58-1.22,1.28-1.02Z"/>
          <path class="cls-5" d="M87.72,159.64h0c.7.2,1.28.98,1.28,1.74v9.12c0,.76-.58,1.22-1.28,1.02h0c-.7-.2-1.28-.98-1.28-1.75v-9.12c0-.76.58-1.22,1.28-1.02Z"/>
          <path class="cls-5" d="M93.12,152.24h0c.7.2,1.28.98,1.28,1.74v9.12c0,.76-.58,1.22-1.28,1.02h0c-.7-.2-1.28-.98-1.28-1.75v-9.12c0-.76.58-1.22,1.28-1.02h0Z"/>
          <path class="cls-5" d="M92.63,166.3h0c.7.2,1.28.99,1.28,1.75v9.12c0,.76-.58,1.22-1.28,1.02h0c-.7-.2-1.28-.98-1.28-1.74v-9.12c0-.76.58-1.22,1.28-1.02Z"/>
          <path class="cls-5" d="M98.65,149.22h0c.7.2,1.28.98,1.28,1.74v9.12c0,.76-.58,1.22-1.28,1.02h0c-.7-.2-1.28-.98-1.28-1.75v-9.12c0-.76.58-1.22,1.28-1.02Z"/>
          <path class="cls-5" d="M98.17,163.28h0c.7.2,1.28.98,1.28,1.75v9.12c0,.76-.58,1.22-1.28,1.02h0c-.7-.2-1.28-.98-1.28-1.74v-9.12c0-.76.58-1.22,1.28-1.02h0Z"/>
          <path class="cls-5" d="M103.89,156.44h0c.7.2,1.28.98,1.28,1.74v9.12c0,.76-.58,1.22-1.28,1.02h0c-.7-.2-1.28-.98-1.28-1.75v-9.12c0-.76.58-1.22,1.28-1.02Z"/>
          <path class="cls-5" d="M103.4,170.5h0c.7.2,1.28.99,1.28,1.75v9.12c0,.76-.58,1.22-1.28,1.02h0c-.7-.2-1.28-.99-1.28-1.75v-9.12c0-.76.58-1.22,1.28-1.02Z"/>
          <path class="cls-5" d="M108.95,153.14h0c.7.2,1.28.98,1.28,1.74v9.12c0,.76-.58,1.22-1.28,1.02h0c-.7-.2-1.28-.98-1.28-1.75v-9.12c0-.76.58-1.22,1.28-1.02Z"/>
          <path class="cls-5" d="M108.46,167.2h0c.7.2,1.28.98,1.28,1.74v9.12c0,.76-.58,1.22-1.28,1.02h0c-.7-.2-1.28-.99-1.28-1.75v-9.12c0-.76.58-1.22,1.28-1.02h0Z"/>
          <path class="cls-6" d="M156.21,145.43h0c-.7.2-1.28.98-1.28,1.75v9.12c0,.76.58,1.22,1.28,1.02h0c.7-.2,1.28-.98,1.28-1.74v-9.12c0-.76-.58-1.22-1.28-1.02Z"/>
          <path class="cls-6" d="M156.7,159.49h0c-.7.2-1.28.98-1.28,1.75v9.12c0,.76.58,1.22,1.28,1.02h0c.7-.2,1.28-.98,1.28-1.74v-9.12c0-.76-.58-1.22-1.28-1.02Z"/>
          <path class="cls-6" d="M151.3,152.09h0c-.7.2-1.28.98-1.28,1.74v9.12c0,.76.58,1.22,1.28,1.02h0c.7-.2,1.28-.98,1.28-1.75v-9.12c0-.76-.58-1.22-1.28-1.02h0Z"/>
          <path class="cls-6" d="M151.78,166.15h0c-.7.2-1.28.99-1.28,1.75v9.12c0,.76.58,1.22,1.28,1.02h0c.7-.2,1.28-.99,1.28-1.75v-9.12c0-.76-.58-1.22-1.28-1.02Z"/>
          <path class="cls-6" d="M145.76,149.07h0c-.7.2-1.28.98-1.28,1.74v9.12c0,.76.58,1.22,1.28,1.02h0c.7-.2,1.28-.98,1.28-1.75v-9.12c0-.76-.58-1.22-1.28-1.02Z"/>
          <path class="cls-6" d="M146.25,163.13h0c-.7.2-1.28.98-1.28,1.74v9.12c0,.76.58,1.22,1.28,1.02h0c.7-.2,1.28-.98,1.28-1.75v-9.12c0-.76-.58-1.22-1.28-1.02Z"/>
          <path class="cls-6" d="M140.52,156.29h0c-.7.2-1.28.98-1.28,1.74v9.12c0,.76.58,1.22,1.28,1.02h0c.7-.2,1.28-.98,1.28-1.74v-9.12c0-.76-.58-1.22-1.28-1.02h0Z"/>
          <path class="cls-6" d="M141.01,170.34h0c-.7.2-1.28.98-1.28,1.74v9.12c0,.76.58,1.22,1.28,1.02h0c.7-.2,1.28-.98,1.28-1.75v-9.12c0-.76-.58-1.22-1.28-1.02Z"/>
          <path class="cls-6" d="M135.46,152.99h0c-.7.2-1.28.98-1.28,1.75v9.12c0,.76.58,1.22,1.28,1.02h0c.7-.2,1.28-.98,1.28-1.75v-9.12c0-.76-.58-1.22-1.28-1.02Z"/>
          <path class="cls-6" d="M135.95,167.04h0c-.7.2-1.28.98-1.28,1.74v9.12c0,.76.58,1.22,1.28,1.02h0c.7-.2,1.28-.99,1.28-1.75v-9.12c0-.76-.58-1.22-1.28-1.02Z"/>
          <path class="cls-34" d="M89.15,145.96c.39.35.66.88.66,1.39v9.12c0,.76-.58,1.22-1.28,1.02h0s-.08-.03-.12-.04c-.39-.35-.66-.88-.66-1.39v-9.12c0-.76.58-1.22,1.28-1.02h0s.08.03.12.04Z"/>
          <path class="cls-34" d="M88.66,160.02c.39.35.66.88.66,1.39v9.12c0,.76-.57,1.22-1.28,1.02h0s-.08-.03-.12-.04c-.39-.35-.66-.88-.66-1.39v-9.12c0-.76.58-1.22,1.28-1.02h0s.08.03.12.04h0Z"/>
          <path class="cls-34" d="M94.06,152.62c.39.35.66.88.66,1.39v9.12c0,.76-.58,1.22-1.28,1.02h0s-.08-.03-.12-.04c-.39-.35-.66-.88-.66-1.39v-9.12c0-.76.58-1.22,1.28-1.02h0s.08.03.12.04Z"/>
          <path class="cls-34" d="M93.58,166.68c.39.35.66.88.66,1.39v9.12c0,.76-.58,1.22-1.28,1.02h0s-.08-.03-.12-.04c-.39-.35-.66-.88-.66-1.39v-9.12c0-.76.58-1.22,1.28-1.02h0s.08.03.12.04Z"/>
          <path class="cls-34" d="M99.6,149.6c.39.35.66.88.66,1.39v9.12c0,.76-.58,1.22-1.28,1.02h0s-.08-.03-.12-.04c-.39-.35-.66-.88-.66-1.39v-9.12c0-.76.58-1.22,1.28-1.02h0s.08.03.12.04h0Z"/>
          <path class="cls-34" d="M99.11,163.66c.39.35.66.88.66,1.39v9.12c0,.76-.58,1.22-1.28,1.02h0s-.08-.03-.12-.04c-.39-.35-.66-.88-.66-1.39v-9.12c0-.76.58-1.22,1.28-1.02h0s.08.03.12.04Z"/>
          <path class="cls-34" d="M104.84,156.82c.39.35.66.88.66,1.39v9.12c0,.76-.58,1.22-1.28,1.02h0s-.08-.03-.12-.04c-.39-.35-.66-.88-.66-1.39v-9.12c0-.76.58-1.22,1.28-1.02h0s.08.03.12.04Z"/>
          <path class="cls-34" d="M104.35,170.88c.39.35.66.88.66,1.39v9.12c0,.76-.58,1.22-1.28,1.02h0s-.08-.03-.12-.04c-.39-.35-.66-.88-.66-1.39v-9.12c0-.76.58-1.22,1.28-1.02h0s.08.03.12.04Z"/>
          <path class="cls-34" d="M109.9,153.52c.39.35.66.88.66,1.39v9.12c0,.76-.58,1.22-1.28,1.02h0s-.08-.03-.12-.04c-.39-.35-.66-.88-.66-1.39v-9.12c0-.76.58-1.22,1.28-1.02h0s.08.03.12.04Z"/>
          <path class="cls-34" d="M109.41,167.58c.39.35.66.88.66,1.39v9.12c0,.76-.58,1.22-1.28,1.02h0s-.08-.03-.12-.04c-.39-.35-.66-.88-.66-1.39v-9.12c0-.76.58-1.22,1.28-1.02h0s.08.03.12.04Z"/>
          <path class="cls-27" d="M88.83,145.93c.39.35.66.88.66,1.39v9.12c0,.76-.58,1.22-1.28,1.02h0s-.08-.03-.12-.04c-.39-.35-.66-.88-.66-1.39v-9.12c0-.76.58-1.22,1.28-1.02h0s.08.03.12.04Z"/>
          <path class="cls-27" d="M88.34,159.99c.39.35.66.88.66,1.39v9.12c0,.76-.58,1.22-1.28,1.02h0s-.08-.03-.12-.04c-.39-.35-.66-.88-.66-1.39v-9.12c0-.76.58-1.22,1.28-1.02h0s.08.03.12.04Z"/>
          <path class="cls-27" d="M93.74,152.59c.39.35.66.88.66,1.39v9.12c0,.76-.58,1.22-1.28,1.02h0s-.08-.03-.12-.04c-.39-.35-.66-.88-.66-1.39v-9.12c0-.76.58-1.22,1.28-1.02h0s.08.03.12.04h0Z"/>
          <path class="cls-27" d="M93.25,166.65c.39.35.66.88.66,1.39v9.12c0,.76-.58,1.22-1.28,1.02h0s-.08-.03-.12-.04c-.39-.35-.66-.88-.66-1.39v-9.12c0-.76.58-1.22,1.28-1.02h0s.08.03.12.04h0Z"/>
          <path class="cls-27" d="M99.27,149.57c.39.35.66.88.66,1.39v9.12c0,.76-.58,1.22-1.28,1.02h0s-.08-.03-.12-.04c-.39-.35-.66-.88-.66-1.39v-9.12c0-.76.58-1.22,1.28-1.02h0s.08.03.12.04h0Z"/>
          <path class="cls-27" d="M98.79,163.63c.39.35.66.88.66,1.39v9.12c0,.76-.58,1.22-1.28,1.02h0s-.08-.02-.12-.04c-.39-.35-.66-.88-.66-1.39v-9.12c0-.76.58-1.22,1.28-1.02h0s.08.03.12.04h0Z"/>
          <path class="cls-27" d="M104.51,156.79c.39.35.66.88.66,1.39v9.12c0,.76-.58,1.22-1.28,1.02h0s-.08-.03-.12-.04c-.39-.35-.66-.88-.66-1.39v-9.12c0-.76.58-1.22,1.28-1.02h0s.08.03.12.04h0Z"/>
          <path class="cls-27" d="M104.02,170.85c.39.35.66.88.66,1.39v9.12c0,.76-.58,1.22-1.28,1.02h0s-.08-.03-.12-.04c-.39-.35-.66-.88-.66-1.39v-9.12c0-.76.58-1.22,1.28-1.02h0s.08.03.12.04Z"/>
          <path class="cls-27" d="M109.57,153.49c.39.35.66.88.66,1.39v9.12c0,.76-.58,1.22-1.28,1.02h0s-.08-.03-.12-.04c-.39-.35-.66-.88-.66-1.39v-9.12c0-.76.58-1.22,1.28-1.02h0s.08.03.12.04h0Z"/>
          <path class="cls-27" d="M109.09,167.55c.39.35.66.88.66,1.39v9.12c0,.76-.58,1.22-1.28,1.02h0s-.08-.03-.12-.04c-.39-.35-.66-.88-.66-1.39v-9.12c0-.76.58-1.22,1.28-1.02h0s.08.03.12.04Z"/>
          <path class="cls-5" d="M155.31,145.77c-.39.35-.66.88-.66,1.39v9.12c0,.76.58,1.22,1.28,1.02h0s.08-.03.12-.04c.39-.35.66-.88.66-1.39v-9.12c0-.76-.58-1.22-1.28-1.02h0s-.08.02-.12.04Z"/>
          <path class="cls-5" d="M155.8,159.83c-.39.35-.66.88-.66,1.39v9.12c0,.76.58,1.22,1.28,1.02h0s.08-.03.12-.04c.39-.35.66-.88.66-1.39v-9.12c0-.76-.58-1.22-1.28-1.02h0s-.08.03-.12.04h0Z"/>
          <path class="cls-5" d="M150.4,152.43c-.39.35-.66.88-.66,1.39v9.12c0,.76.58,1.22,1.28,1.02h0s.08-.03.12-.04c.39-.35.66-.88.66-1.39v-9.12c0-.76-.58-1.22-1.28-1.02h0s-.08.03-.12.04h0Z"/>
          <path class="cls-5" d="M150.89,166.49c-.39.35-.66.88-.66,1.39v9.12c0,.76.58,1.22,1.28,1.02h0s.08-.03.12-.04c.39-.35.66-.88.66-1.39v-9.12c0-.76-.58-1.22-1.28-1.02h0s-.08.03-.12.04Z"/>
          <path class="cls-5" d="M144.86,149.42c-.39.35-.66.88-.66,1.39v9.12c0,.76.58,1.22,1.28,1.02h0s.08-.02.12-.04c.39-.35.66-.88.66-1.39v-9.12c0-.76-.58-1.22-1.28-1.02h0s-.08.02-.12.04h0Z"/>
          <path class="cls-5" d="M145.35,163.47c-.39.35-.66.88-.66,1.39v9.12c0,.76.58,1.22,1.28,1.02h0s.08-.03.12-.04c.39-.35.66-.88.66-1.39v-9.12c0-.76-.58-1.22-1.28-1.02h0s-.08.03-.12.04Z"/>
          <path class="cls-5" d="M139.63,156.63c-.39.35-.66.88-.66,1.39v9.12c0,.76.58,1.22,1.28,1.02h0s.08-.03.12-.04c.39-.35.66-.88.66-1.39v-9.12c0-.76-.58-1.22-1.28-1.02h0s-.08.03-.12.04h0Z"/>
          <path class="cls-5" d="M140.11,170.69c-.39.35-.66.88-.66,1.39v9.12c0,.76.58,1.22,1.28,1.02h0s.08-.03.12-.04c.39-.35.66-.88.66-1.39v-9.12c0-.76-.58-1.22-1.28-1.02h0s-.08.03-.12.04h0Z"/>
          <path class="cls-5" d="M134.56,153.33c-.39.35-.66.88-.66,1.39v9.12c0,.76.58,1.22,1.28,1.02h0s.08-.02.12-.04c.39-.35.66-.88.66-1.39v-9.12c0-.76-.58-1.22-1.28-1.02h0s-.08.03-.12.04Z"/>
          <path class="cls-5" d="M135.05,167.39c-.39.35-.66.88-.66,1.39v9.12c0,.76.58,1.22,1.28,1.02h0s.08-.03.12-.04c.39-.35.66-.88.66-1.39v-9.12c0-.76-.58-1.22-1.28-1.02h0s-.08.03-.12.04Z"/>
          <path class="cls-27" d="M155.69,145.78c-.39.35-.66.88-.66,1.39v9.12c0,.76.58,1.22,1.28,1.02h0s.08-.03.12-.04c.39-.35.66-.88.66-1.39v-9.12c0-.76-.58-1.22-1.28-1.02h0s-.08.03-.12.04Z"/>
          <path class="cls-27" d="M156.18,159.84c-.39.35-.66.88-.66,1.39v9.12c0,.76.58,1.22,1.28,1.02h0s.08-.03.12-.04c.39-.35.66-.88.66-1.39v-9.12c0-.76-.58-1.22-1.28-1.02h0s-.08.03-.12.04h0Z"/>
          <path class="cls-27" d="M150.78,152.44c-.39.35-.66.88-.66,1.39v9.12c0,.76.58,1.22,1.28,1.02h0s.08-.03.12-.04c.39-.35.66-.88.66-1.39v-9.12c0-.76-.58-1.22-1.28-1.02h0s-.08.03-.12.04h0Z"/>
          <path class="cls-27" d="M151.27,166.5c-.39.35-.66.88-.66,1.39v9.12c0,.76.58,1.22,1.28,1.02h0s.08-.03.12-.04c.39-.35.66-.88.66-1.39v-9.12c0-.76-.58-1.22-1.28-1.02h0s-.08.03-.12.04h0Z"/>
          <path class="cls-27" d="M145.24,149.42c-.39.35-.66.88-.66,1.39v9.12c0,.76.58,1.22,1.28,1.02h0s.08-.03.12-.04c.39-.35.66-.88.66-1.39v-9.12c0-.76-.58-1.22-1.28-1.02h0s-.08.03-.12.04h0Z"/>
          <path class="cls-27" d="M145.73,163.48c-.39.35-.66.88-.66,1.39v9.12c0,.76.58,1.22,1.28,1.02h0s.08-.03.12-.04c.39-.35.66-.88.66-1.39v-9.12c0-.76-.58-1.22-1.28-1.02h0s-.08.03-.12.04h0Z"/>
          <path class="cls-27" d="M140.01,156.64c-.39.35-.66.88-.66,1.39v9.12c0,.76.58,1.22,1.28,1.02h0s.08-.03.12-.04c.39-.35.66-.88.66-1.39v-9.12c0-.76-.58-1.22-1.28-1.02h0s-.08.03-.12.04h0Z"/>
          <path class="cls-27" d="M140.49,170.69c-.39.35-.66.88-.66,1.39v9.12c0,.76.58,1.22,1.28,1.02h0s.08-.03.12-.04c.39-.35.66-.88.66-1.39v-9.12c0-.76-.58-1.22-1.28-1.02h0s-.08.03-.12.04h0Z"/>
          <path class="cls-27" d="M134.95,153.34c-.39.35-.66.88-.66,1.39v9.12c0,.76.58,1.22,1.28,1.02h0s.08-.03.12-.04c.39-.35.66-.88.66-1.39v-9.12c0-.76-.58-1.22-1.28-1.02h0s-.08.03-.12.04h0Z"/>
          <path class="cls-27" d="M135.43,167.39c-.39.35-.66.88-.66,1.39v9.12c0,.76.58,1.22,1.28,1.02h0s.08-.03.12-.04c.39-.35.66-.88.66-1.39v-9.12c0-.76-.58-1.22-1.28-1.02h0s-.08.03-.12.04Z"/>
          <path class="cls-30" d="M97.39,202.42l11.36-9.44,1.73.96c-2.39,7.96-7.11,9.77-13.09,8.48h0Z"/>
          <path class="cls-27" d="M89.03,90.26c-.33.57-.96.92-1.66.85-.95-.09-1.64-.93-1.55-1.88.08-.89.83-1.56,1.71-1.56-.61.16-1.08.69-1.14,1.35-.08.85.54,1.61,1.4,1.69.48.04.93-.13,1.25-.45h0Z"/>
          <path class="cls-27" d="M92.24,86.24c-.33.57-.96.92-1.66.85-.95-.09-1.64-.93-1.55-1.88.08-.89.83-1.56,1.71-1.56-.61.16-1.08.69-1.14,1.35-.08.85.54,1.61,1.4,1.69.48.05.93-.13,1.25-.45h0Z"/>
          <path class="cls-27" d="M95.74,82.39c-.33.57-.96.92-1.66.85-.95-.09-1.64-.93-1.55-1.88.08-.89.83-1.56,1.71-1.56-.61.16-1.08.69-1.14,1.35-.08.85.54,1.61,1.4,1.69.48.04.93-.13,1.25-.45h0Z"/>
          <path class="cls-27" d="M99.24,78.54c-.33.57-.96.92-1.66.86-.95-.09-1.64-.93-1.55-1.88.08-.89.83-1.56,1.71-1.56-.61.16-1.08.69-1.14,1.35-.08.85.54,1.61,1.4,1.69.48.05.93-.13,1.25-.45h0Z"/>
          <path class="cls-27" d="M102.74,74.69c-.33.57-.96.92-1.66.85-.95-.09-1.64-.93-1.55-1.88.08-.89.83-1.56,1.71-1.56-.61.16-1.08.69-1.14,1.35-.08.85.54,1.61,1.4,1.69.48.05.93-.13,1.25-.45h0Z"/>
          <path class="cls-27" d="M106.24,70.84c-.33.57-.96.92-1.66.85-.95-.09-1.64-.93-1.55-1.88.08-.89.83-1.56,1.71-1.56-.61.16-1.08.69-1.14,1.35-.08.85.54,1.61,1.4,1.69.48.05.93-.13,1.25-.45h0Z"/>
          <path class="cls-27" d="M94.39,91.06c-.33.57-.96.92-1.66.85-.95-.09-1.64-.93-1.55-1.88.08-.89.83-1.56,1.71-1.56-.61.16-1.08.69-1.14,1.35-.08.85.54,1.61,1.4,1.69.48.04.93-.13,1.25-.45h0Z"/>
          <path class="cls-27" d="M97.59,87.03c-.33.57-.96.92-1.66.85-.95-.09-1.64-.93-1.55-1.88.08-.89.83-1.56,1.71-1.56-.61.16-1.08.69-1.14,1.35-.08.85.54,1.61,1.4,1.69.48.05.93-.13,1.25-.45h0Z"/>
          <path class="cls-27" d="M101.09,83.18c-.33.57-.96.92-1.66.85-.95-.09-1.64-.93-1.55-1.88.08-.89.83-1.56,1.71-1.56-.61.16-1.08.69-1.14,1.35-.08.85.54,1.61,1.4,1.69.48.05.93-.13,1.25-.45h0Z"/>
          <path class="cls-27" d="M104.59,79.33c-.33.57-.96.92-1.66.85-.95-.09-1.64-.93-1.55-1.88.08-.89.83-1.56,1.71-1.56-.61.16-1.08.69-1.14,1.35-.08.85.54,1.61,1.4,1.69.48.05.93-.13,1.25-.45h0Z"/>
          <path class="cls-27" d="M108.1,75.48c-.33.57-.96.92-1.66.85-.95-.09-1.64-.93-1.55-1.88.08-.89.83-1.56,1.71-1.56-.61.16-1.08.69-1.14,1.35-.08.85.54,1.61,1.4,1.69.48.05.93-.13,1.25-.45h0Z"/>
          <path class="cls-27" d="M111.6,71.64c-.33.57-.96.92-1.66.86-.95-.09-1.64-.93-1.55-1.88.08-.89.83-1.56,1.71-1.56-.61.16-1.08.69-1.14,1.35-.08.85.54,1.61,1.4,1.69.48.05.93-.13,1.25-.45h0Z"/>
          <path class="cls-27" d="M99.74,91.85c-.33.57-.96.92-1.66.85-.95-.09-1.64-.93-1.55-1.88.08-.89.83-1.56,1.71-1.56-.61.16-1.08.69-1.14,1.35-.08.85.54,1.61,1.4,1.69.48.05.93-.13,1.25-.45h0Z"/>
          <path class="cls-27" d="M102.95,87.82c-.33.57-.96.92-1.66.85-.95-.09-1.64-.93-1.55-1.88.08-.89.83-1.56,1.71-1.56-.61.16-1.08.69-1.14,1.35-.08.85.54,1.61,1.4,1.69.48.05.93-.13,1.25-.45h0Z"/>
          <path class="cls-27" d="M106.45,83.97c-.33.57-.96.92-1.66.85-.95-.09-1.64-.93-1.55-1.88.08-.89.83-1.56,1.71-1.56-.61.16-1.08.69-1.14,1.35-.08.85.54,1.61,1.4,1.69.48.05.93-.13,1.25-.45h0Z"/>
          <path class="cls-27" d="M109.95,80.12c-.33.57-.96.92-1.66.85-.95-.09-1.64-.93-1.55-1.88.08-.89.83-1.56,1.71-1.56-.61.16-1.08.69-1.14,1.35-.08.85.54,1.61,1.4,1.69.48.05.93-.13,1.25-.45h0Z"/>
          <path class="cls-27" d="M105.1,92.64c-.33.57-.96.92-1.66.85-.95-.09-1.64-.93-1.55-1.88.08-.89.83-1.56,1.71-1.56-.61.16-1.08.69-1.14,1.35-.08.85.54,1.61,1.4,1.69.48.05.93-.13,1.25-.45h0Z"/>
          <path class="cls-27" d="M108.3,88.61c-.33.57-.96.92-1.66.85-.95-.09-1.64-.93-1.55-1.88.08-.89.83-1.56,1.71-1.56-.61.16-1.08.69-1.14,1.35-.08.85.54,1.61,1.4,1.69.48.05.93-.13,1.25-.45h0Z"/>
          <path class="cls-27" d="M111.81,84.76c-.33.57-.96.92-1.66.85-.95-.09-1.64-.93-1.55-1.88.08-.89.83-1.56,1.71-1.56-.61.16-1.08.69-1.14,1.35-.08.85.54,1.61,1.4,1.69.48.04.93-.13,1.25-.45h0Z"/>
          <path class="cls-27" d="M110.46,93.43c-.33.57-.96.92-1.66.85-.95-.09-1.64-.93-1.55-1.88.08-.89.83-1.56,1.71-1.56-.61.16-1.08.69-1.14,1.35-.08.85.54,1.61,1.4,1.69.48.04.93-.13,1.25-.45h0Z"/>
          <path class="cls-27" d="M111.03,66.95c-.33.57-.96.92-1.66.85-.95-.09-1.64-.93-1.55-1.88.08-.89.83-1.56,1.71-1.56-.61.16-1.08.69-1.14,1.35-.08.85.54,1.61,1.4,1.69.48.05.93-.13,1.25-.45h0Z"/>
          <path class="cls-18" d="M155.05,89.81c.33.57.96.92,1.66.86.95-.09,1.64-.93,1.55-1.88-.08-.89-.83-1.56-1.71-1.56.61.16,1.08.69,1.14,1.35.08.85-.54,1.61-1.4,1.69-.48.05-.93-.13-1.25-.45h0Z"/>
          <path class="cls-18" d="M151.84,85.78c.33.57.96.92,1.66.85.95-.09,1.64-.93,1.55-1.88-.08-.89-.83-1.56-1.71-1.56.61.16,1.08.69,1.14,1.35.08.85-.54,1.61-1.4,1.69-.48.05-.93-.13-1.25-.45h0Z"/>
          <path class="cls-18" d="M148.34,81.93c.33.57.96.92,1.66.85.95-.09,1.64-.93,1.55-1.88-.08-.89-.83-1.56-1.71-1.56.61.16,1.08.69,1.14,1.35.08.85-.54,1.61-1.4,1.69-.48.05-.93-.13-1.25-.45h0Z"/>
          <path class="cls-18" d="M144.84,78.08c.33.57.96.92,1.66.85.95-.09,1.64-.93,1.55-1.88-.08-.89-.83-1.56-1.71-1.56.61.16,1.08.69,1.14,1.35.08.85-.54,1.61-1.4,1.69-.48.05-.93-.13-1.25-.45h0Z"/>
          <path class="cls-18" d="M141.34,74.23c.33.57.96.92,1.66.85.95-.09,1.64-.93,1.55-1.88-.08-.89-.83-1.56-1.71-1.56.61.16,1.08.69,1.14,1.35.08.85-.54,1.61-1.4,1.69-.48.04-.93-.13-1.25-.45h0Z"/>
          <path class="cls-18" d="M137.84,70.39c.33.57.96.92,1.66.85.95-.09,1.64-.93,1.55-1.88-.08-.89-.83-1.56-1.71-1.56.61.16,1.08.69,1.14,1.35.08.85-.54,1.61-1.4,1.69-.48.04-.93-.13-1.25-.45h0Z"/>
          <path class="cls-18" d="M149.69,90.6c.33.57.96.92,1.66.85.95-.09,1.64-.93,1.55-1.88-.08-.89-.83-1.56-1.71-1.56.61.16,1.08.69,1.14,1.35.08.85-.54,1.61-1.4,1.69-.48.05-.93-.13-1.25-.45h0Z"/>
          <path class="cls-18" d="M146.49,86.57c.33.57.96.92,1.66.85.95-.09,1.64-.93,1.55-1.88-.08-.89-.83-1.56-1.71-1.56.61.16,1.08.69,1.14,1.35.08.85-.54,1.61-1.4,1.69-.48.04-.93-.13-1.25-.45h0Z"/>
          <path class="cls-18" d="M142.99,82.72c.33.57.96.92,1.66.85.95-.09,1.64-.93,1.55-1.88-.08-.89-.83-1.56-1.71-1.56.61.16,1.08.69,1.14,1.35.08.85-.54,1.61-1.4,1.69-.48.04-.93-.13-1.25-.45h0Z"/>
          <path class="cls-18" d="M139.48,78.87c.33.57.96.92,1.66.85.95-.09,1.64-.93,1.55-1.88-.08-.89-.83-1.56-1.71-1.56.61.16,1.08.69,1.14,1.35.08.85-.54,1.61-1.4,1.69-.48.05-.93-.13-1.25-.45h0Z"/>
          <path class="cls-18" d="M135.98,75.03c.33.57.96.92,1.66.85.95-.09,1.64-.93,1.55-1.88-.08-.89-.83-1.56-1.71-1.56.61.16,1.08.69,1.14,1.35.08.85-.54,1.61-1.4,1.69-.48.05-.93-.13-1.25-.45h0Z"/>
          <path class="cls-18" d="M132.48,71.18c.33.57.96.92,1.66.85.95-.09,1.64-.93,1.55-1.88-.08-.89-.83-1.56-1.71-1.56.61.16,1.08.69,1.14,1.35.08.85-.54,1.61-1.4,1.69-.48.05-.93-.13-1.25-.45h0Z"/>
          <path class="cls-18" d="M144.34,91.39c.33.57.96.92,1.66.85.95-.09,1.64-.93,1.55-1.88-.08-.89-.83-1.56-1.71-1.56.61.16,1.08.69,1.14,1.35.08.85-.54,1.61-1.4,1.69-.48.05-.93-.13-1.25-.45h0Z"/>
          <path class="cls-18" d="M141.13,87.36c.33.57.96.92,1.66.85.95-.09,1.64-.93,1.55-1.88-.08-.89-.83-1.56-1.71-1.56.61.16,1.08.69,1.14,1.35.08.85-.54,1.61-1.4,1.69-.48.05-.93-.13-1.25-.45h0Z"/>
          <path class="cls-18" d="M137.63,83.51c.33.57.96.92,1.66.85.95-.09,1.64-.93,1.55-1.88-.08-.89-.83-1.56-1.71-1.56.61.16,1.08.69,1.14,1.35.08.85-.54,1.61-1.4,1.69-.48.05-.93-.13-1.25-.45h0Z"/>
          <path class="cls-18" d="M134.13,79.67c.33.57.96.92,1.66.85.95-.09,1.64-.93,1.55-1.88-.08-.89-.83-1.56-1.71-1.56.61.16,1.08.69,1.14,1.35.08.85-.54,1.61-1.4,1.69-.48.05-.93-.13-1.25-.45h0Z"/>
          <path class="cls-18" d="M138.98,92.18c.33.57.96.92,1.66.86.95-.09,1.64-.93,1.55-1.88-.09-.89-.84-1.56-1.71-1.56.61.16,1.08.69,1.14,1.35.08.85-.54,1.61-1.4,1.69-.48.05-.93-.13-1.25-.45h0Z"/>
          <path class="cls-18" d="M135.78,88.15c.33.57.96.92,1.66.85.95-.09,1.64-.93,1.55-1.88-.08-.89-.83-1.56-1.71-1.56.61.16,1.08.69,1.14,1.35.08.85-.54,1.61-1.4,1.69-.48.05-.93-.13-1.25-.45h0Z"/>
          <path class="cls-18" d="M132.27,84.3c.33.57.96.92,1.66.86.95-.09,1.64-.93,1.55-1.88-.08-.89-.83-1.56-1.71-1.56.61.16,1.08.69,1.14,1.35.08.85-.54,1.61-1.4,1.69-.48.05-.93-.13-1.25-.45h0Z"/>
          <path class="cls-18" d="M133.62,92.97c.33.57.96.92,1.66.86.95-.09,1.64-.93,1.55-1.88-.08-.89-.83-1.56-1.71-1.56.61.16,1.08.69,1.14,1.35.08.85-.54,1.61-1.4,1.69-.48.05-.93-.13-1.25-.45h0Z"/>
          <path class="cls-18" d="M133.05,66.49c.33.57.96.92,1.66.85.95-.09,1.64-.93,1.55-1.88-.08-.89-.83-1.56-1.71-1.56.61.16,1.08.69,1.14,1.35.08.85-.54,1.61-1.4,1.69-.48.04-.93-.13-1.25-.45h0Z"/>
          <path class="cls-27" d="M113.23,76.5c-.33.57-.96.92-1.66.85-.95-.09-1.64-.93-1.55-1.88.08-.89.83-1.56,1.71-1.56-.61.16-1.08.69-1.14,1.35-.08.85.54,1.61,1.4,1.69.48.05.93-.13,1.25-.45h0Z"/>
          <path class="cls-12" d="M69.49,97.3s10.79-15.88,13.93-17.17l9.02-3.69c.93-.38-13.27,13.43-7.53,16.3,1.97.99,22.51,3.08,24.63,3.36,2.11.28,2.96.14,2.96.14,0,0,.91-33.51.84-34.71-.02-.37.02-.09-.15-1.24-.18-1.25-2.36.97-4.77,3-2.49,2.1-6.39,5.04-6.39,5.04l1.58-8.35,18.8-21.97-.13,11.55,1.05,55.97-53.85-8.25h0Z"/>
          <polygon class="cls-28" points="120.66 38.73 120.98 38.36 120.02 101.67 92.74 97.28 117.94 99.46 119.74 49.92 120.66 38.73"/>
          <polygon class="cls-25" points="123.09 39.89 122.77 39.52 123.73 102.83 151.01 98.44 125.8 100.62 124 51.08 123.09 39.89"/>
          <polygon class="cls-14" points="70.76 96.8 64.21 99.38 121.3 108.28 163.77 101.76 180.31 99.22 173.76 96.65 121.19 104.51 102.63 101.67 70.76 96.8"/>
          <path class="cls-17" d="M175.02,97.14s-10.79-15.87-13.93-17.17l-9.34-3.87c-1.81-.75,13.58,13.61,7.84,16.48-1.97.99-22.52,3.08-24.63,3.37-2.11.28-2.96.14-2.96.14,0,0-.92-33.51-.84-34.71.02-.37-.03-.1.14-1.24.19-1.25,2.36.97,4.77,3,2.48,2.1,6.39,5.04,6.39,5.04l-1.58-8.34-18.8-21.97.13,11.55-1.03,55.09,53.84-7.37h0Z"/>
          <path class="cls-28" d="M73.38,94.14c.56-.91,7.93-10.42,8.91-11.2.99-.77,3.17-1.55,3.17-1.55l-8.69,13.26-3.39-.51Z"/>
          <path class="cls-25" d="M171.54,95.3c-.56-.92-7.93-10.43-8.91-11.2-.99-.77-3.17-1.55-3.17-1.55l8.69,13.26,3.39-.51Z"/>
          <path class="cls-28" d="M104.78,61.54c-.35-1.34,14.68-17.74,14.68-17.74l-12.07,18.02-2.61-.28h0Z"/>
          <path class="cls-25" d="M140.13,62.7c.35-1.34-14.68-17.74-14.68-17.74l12.07,18.02,2.61-.28Z"/>
          <polygon class="cls-28" points="66.98 99.2 120.58 107.73 121.69 108.47 65.78 99.65 66.98 99.2"/>
          <path class="cls-14" d="M64.4,100.97s.39,14.01.49,14.43c.11.42.99,1.13.99,1.13l-.46-15.49-1.02-.07h0Z"/>
          <path class="cls-9" d="M104.8,204.52c1.91-.36,3.66-1.64,5.23-3.61,1.62,1.8,4.45,4.96,4.02,4.52-.29-.29-1.93-3.3-3.19-5.65.19-.28.37-.56.56-.86l5.32,5.12-2.32-11.6c.17-.48.34-.98.5-1.48.95,1.11,2.19,2.53,1.98,2.22-.19-.28-.65-3.22-1-5.66.27-1.08.52-2.19.75-3.31h4.02s-3.03-6.58-3.03-6.58c.05-.5.1-1,.14-1.5l2.14,2.45-1.98-4.64c.18-3.28.14-6.54-.14-9.64.77.16,1.55.29,1.55.29l-1.97-3.66c-.21-1.32-.47-2.6-.79-3.81l2.56,1.27s-1.8-2.35-3.51-4.29c-.74-1.96-1.65-3.7-2.76-5.11l8.16,3.45-.28,65.9s-12.09-7.78-15.96-13.82h0Z"/>
          <path class="cls-30" d="M136.86,204.52c-.85-.16-1.67-.51-2.46-1.02-2.55,1.35-5.46,2.37-5.46,2.37,0,0,1.7-2.37,3.12-4.44-.23-.27-.46-.55-.68-.84-3.15,1.99-7.76,3.37-8.15,3.57-.33.16,2.98-5.19,5.2-8.72-.23-.52-.46-1.05-.67-1.61l-2.16,1.19,1.39-3.29c-.32-.96-.63-1.95-.91-2.97l-5.21,2.42,4.62-4.69c-3.09-13.15-2.68-29.91,3.27-37.51l-8.16,3.45.28,65.9s12.09-7.78,15.96-13.82h0Z"/>
          <path class="cls-22" d="M71.2,135.61l-.07,10.91c1.91-5.1,4.46-8.1,9.22-8.1l-9.15-2.82h0Z"/>
          <path class="cls-27" d="M174.38,134.03l.07,10.91c-1.91-5.1-4.46-8.1-9.22-8.1l9.15-2.82Z"/>
          <path class="cls-22" d="M71.52,174.9l5.32,5.1c-2.86-4.96-4.53-7.01-5.7-13.98l.39,8.87h0Z"/>
          <path class="cls-27" d="M174.06,173.31l-5.32,5.1c2.86-4.96,4.53-7.01,5.7-13.98l-.39,8.87h0Z"/>
          <polygon class="cls-9" points="69.32 174.11 68.72 134.53 68.98 133.69 69.72 135.78 69.68 175.04 69.32 174.11"/>
          <path class="cls-7" d="M107.35,142.53v.43s13.39,4.14,13.39,4.14l.15-.04.19-18.97-4.08-.91c-1.62,4.4-4.99,12.14-9.65,15.36h0Z"/>
          <path class="cls-22" d="M134.32,142.77v.42s-13.39,4.14-13.39,4.14l-.15-.04-.19-18.97,4.08-.91c1.62,4.4,4.99,12.14,9.64,15.36h0Z"/>
          <path class="cls-9" d="M111.55,141.35c3.5-2.41,5.53-9.26,5.53-9.26l1.78.51-.06,10.58-7.25-1.83h0Z"/>
          <path class="cls-30" d="M129.78,141.35c-3.5-2.41-5.53-9.26-5.53-9.26l-1.78.51.06,10.58,7.25-1.83h0Z"/>
          <polygon class="cls-13" points="123.03 38.37 122.71 38 123.67 101.31 150.95 96.92 125.75 99.1 123.95 49.56 123.03 38.37"/>
          <path class="cls-5" d="M71.06,189.05s3.23.23,2.88.2c-.35-.04-11.46,5.23-11.46,5.23l13.78-4.28-2.41-.07,2.12-1.21s-2.32-.25-1.86-.37c.46-.11,2.81-1.11,2.81-1.11l-5.86,1.6h0Z"/>
          <path class="cls-27" d="M72.04,103.87c-.41.29-1.23.94-1.23.94l.78,1.67,2.23-1.15-.23,2.09,2.99-1.94s8.27.88,7.9,1.21c-.37.33-1.67,1.47-1.67,1.47l3-.75,5.36,1.16-.04,1.1,1.59-1.06.08,2.45,3.67-1.31,6.45.57-.94,1.14,4.02-.56,6.59,2.4,1.47-1-27.01-5.81-15.01-2.61h0Z"/>
          <path class="cls-27" d="M84.85,112.2c.12-.33,1.26-2.04,1.26-2.04l1.06,2.28,1.92-2.61,8.04,3.72,2.53-.46,1.35,2,8.32,3.06,2.45-3.18,1.9,1.98-1.09,2.02-27.74-6.77h0Z"/>
          <polygon class="cls-27" points="92.71 120.44 91.88 117.68 92.58 118.07 92.54 116.5 96.34 115.38 98.77 116.77 95.21 117.12 94.77 118.81 93.85 118.15 92.67 120.33 92.71 120.44"/>
          <polygon class="cls-27" points="144.4 122.78 146.85 118.57 147.99 119.02 148.88 117.03 150.84 116.6 150.19 115.62 152.6 112 154.24 111.72 154.03 107.91 156.81 107.45 154.04 105.99 156.29 105.6 158.24 105.26 160.41 106.86 157.38 108.95 157.5 111.3 152.81 114.45 152.37 117.84 149.7 117.84 149.09 120.08 144.4 122.78"/>
          <path class="cls-5" d="M84.52,85.72c-1.19.56-3.3,3.11-2.96,2.88.34-.23,2.12-1.5,2.12-1.5l.85-1.38Z"/>
          <path class="cls-5" d="M79.1,91.18c-.17.25-2.77,4.77-2.77,4.77,0,0,1.41-.87,1.75-1.24.34-.37,1.02-3.53,1.02-3.53h0Z"/>
          <path class="cls-5" d="M82.88,89.94s-1.24,1.95-1.07,1.83c.17-.11,1.81-1.1,1.81-1.1l-.73-.73h0Z"/>
          <path class="cls-5" d="M117.91,78.1c-1.87,1.26-4.81,6.09-4.29,5.63.52-.47,3.21-3.07,3.21-3.07l1.08-2.56Z"/>
          <path class="cls-5" d="M89.17,95.06c-.37-.04-6.67-.36-6.67-.36,0,0,1.72,1.04,2.3,1.2.58.16,4.37-.85,4.37-.85Z"/>
          <path class="cls-5" d="M90.53,97.95s-1.28-.12-1.18-.07c.1.06,1,.62,1,.62l.18-.55h0Z"/>
          <path class="cls-5" d="M116.93,62.49s-1.28-.12-1.18-.07c.1.06,1,.62,1,.62l.18-.55h0Z"/>
          <path class="cls-5" d="M69.22,97.48c.16-.86,2.41-1.59,2.77-1.47.37.12.94-.86.94-.86l4.04,2.59,2.36-1,1.47.98s3.18,1.02,3.79.82c.61-.2,5.38-2.53,5.06-2.33-.33.2-.45,2.69-.45,2.69l8.85.61,6.53.82,16.6,4.17-51.97-7.03h0Z"/>
          <path class="cls-28" d="M66.58,99.47l-1.72.87,3.06.49s-1.51,2.94-1.18,2.77c.33-.16,4.81-2.53,4.81-2.53l.49,1.02,3.14-.53.16,1.14,3.96-.97,3.88,1.67,1.32-.8,2.14.34,2.18.72s-.78,1.62-.41,1.45c.37-.16,3.38-1.07,3.38-1.07l3.06,1.6,1.47-1.01,1.06,1.42,1.88-.29.78,1.55,3.79-1.71,4.16,2.36,4.55-1.23s-4.6-1.05-4.92-1.17c-.33-.12-3.02-1.88-3.02-1.88l-5.67.61-13.09-2.45.33-.61-3.49.46,3.99-1.77s-10.06.36-10.09.58c-.03.21,1.06-.94,1.06-.94,0,0-8.05.41-8.49.29-.43-.12-2.56-.38-2.56-.38h0Z"/>
          <path class="cls-13" d="M120.24,108.12l1.32-1.54,2.73.65,4.12-.9s3.06-.53,2.53-.77c-.53-.25-2.16-.61-2.16-.61l7.91.12,6.54-.57,5.12-2.49,4.39.98-1.13-1.31-.78-1.23,4.25-.58,2.39,2.37,4.89-.75.15,1.13,3.7-2.33s-2.86-.65-2.37-.65,7.21,1,7.21,1l1.93.96-1.35-2.49,5.14,1.18-.69,3.67-7.45-2.14-4.63,1.04-4.61.65-1.71-.49-6.36,1.47-2.9,1.47-1.39-1.02-4.26,2.01-1.82-1.03-4.86,2.04-2.24-1.1-4.37,1.92-9.28-.67h0Z"/>
          <path class="cls-28" d="M68.61,177.85c-3.18,1.71-10.36,3.92-8.57,3.75,1.79-.16,6.85-1.14,6.28-.98-.57.16-19.83,5.63-19.17,5.63s12.16-1.06,11.5-.9c-.65.16-14.44,2.69-13.95,2.86.49.16,20.23-.99,20.23-.99,0,0,10.93-3.09,10.36-3.09s-15.01-.73-13.62-.73,11.38-3.51,11.14-3.51-4.2-2.04-4.2-2.04h0Z"/>
          <path class="cls-20" d="M129.61,128.45l-1.11,1.24,1.11.33-2.43,1.18,4.87-1.37,45.63-12.08-2.78-.39-2.61,1.22-3.22-.49s-2.94,1.26-4.28,1.84c-1.35.57-7.83,2.45-8.73,2.45s-3.59-.65-4-.45c-.41.2-5.22,2.2-5.67,2.45-.45.25-1.59-.61-1.59-.61,0,0-3.83,1.43-4.2,1.67-.37.25-.36-1.96-1.3-.78-.94,1.18-1.27,2.53-1.27,2.53,0,0-2.24-1.75-2.49-1.75s-1.55.98-2.69,1.79c-1.14.82-2.86,1.26-2.86,1.26l-.37-.04h0Z"/>
          <path class="cls-5" d="M130.88,218.24c1.7,1.26,6.9,2.35,6.32,2.04-.58-.31-3.72-1.88-3.72-1.88l-2.6-.16h0Z"/>
          <path class="cls-5" d="M142.72,221.82c.49.05,8.86.33,8.86.33,0,0-2.31-1.35-3.08-1.55-.78-.2-5.78,1.22-5.78,1.22h0Z"/>
          <path class="cls-5" d="M138.11,217.38s3.7.3,3.41.14c-.29-.16-2.92-1.74-2.92-1.74l-.49,1.59h0Z"/>
          <path class="cls-5" d="M93.18,202l-2.07,3.05-2.99,5.82,3.43-3.81s-5.11,7.34-3.43,6.25c1.69-1.09,7.34-10.77,7.34-10.77,0,0-2.94,2.5-2.77,2.18.16-.33.49-2.72.49-2.72h0Z"/>
        </g>
        <g>
          <polygon class="cls-19" points="45.31 257.68 70.96 257.68 81.35 260.36 84.48 257.68 99.1 257.68 100.27 259.98 101.57 257.68 191.71 257.68 191.71 290.7 155.36 290.7 153.5 293.04 152.13 290.7 45.31 290.7 45.31 257.68"/>
          <polygon class="cls-1" points="191.5 263.34 191.71 290.7 155.36 290.7 153.5 293.04 152.13 290.7 64.7 294.19 49.2 290.7 50.93 280.22 49.53 277.05 49 263.34 77.02 263.34 87.42 266.02 90.54 263.34 105.17 263.34 106.34 265.64 107.63 263.34 126.31 263.34 131.97 265.21 136.17 263.34 159.62 263.34 164.41 265.34 170.28 263.34 191.5 263.34"/>
          <g>
            <path class="cls-11" d="M43.65,294.19v-11.32l1.37,1.21-1.37-3.83v-16.04l.62-.11s-.26-.25-.62-.62v-6.09c.48-.68.95-1.33,1.29-1.8h2.98v3.29l-2.09,1.3,2.09.81v4.88l-1.15,5.95,1.15,7.82v10.52h14l2.4,1.58,9.22-1.58h12.86l.2,1.46,1.59-1.46h9.7l.54,2.64,4.25-2.64h15.36l.3,1.77,1.25-1.77h32.94l.97,2.89,1.99-2.89h36.21v-6.68l1.79-.11-1.79-2.54v-16.93l2.44-3.16-2.44-1.49v-3.66h4.83l-1.03,5.09,1.5,3.51v12.78l-3.74,1.27,3.74.55v15.41h-16.07l-1.48-.9-11.83-.37-1.65,1.27h-22.69l-.93-.65-4.98-2.49-19.29,3.14h-9.13l-1.82-1.9-3.37,1.9h-15.68l-1.37-1.4-2.74,1.4h-26.32l-3.18-2.77-.42,2.77h-10.41,0Z"/>
            <path class="cls-2" d="M42.65,294.89v-12.89l2.37,2.08-2.37-6.63v-13.07l1.62-.28s-.86-.84-1.62-1.69v-3.57c.75-1.12,1.71-2.46,2.29-3.25h2.98v3.29l-2.09,1.3,2.09.81v4.88l-1.15,5.95,1.15,7.82v10.52h14l2.4,1.58,9.22-1.58h12.86l.2,1.46,1.59-1.46h9.7l.54,2.64,4.25-2.64h15.36l.3,1.77,1.25-1.77h32.94l.97,2.89,1.99-2.89h36.21v-6.68l1.79-.11-1.79-2.54v-16.93l2.44-3.15-2.44-1.49v-3.66h4.83l-1.03,5.09,2.49,5.85v10.1l-4.73,1.6,4.73.7v15.96h-15.92l-2.63-1.6-11.83-.37-2.56,1.97h-20.78l-1.93-1.35-4.98-.75-19.29,1.4-8.46.7-2.49-1.94-4.61,1.94h-13.91l-.53-.7-1.37-1.4-4.11,2.09h-24.15l-3.98-3.46-.53,3.46h-11.3Z"/>
            <path class="cls-8" d="M189.67,290.16l.71.77,2.64,1.84-.73-4.71,1.19-4.68-1.79.11v6.68h-2.03ZM193.49,283.37l-1.13-4.47.87-4.36-.68-3.61.06-4.04,1.49-1.18-1.68-.56s-.35-.42-.72-.91v16.59l1.79,2.54h0ZM191.71,259.25l1.47-1.88-.34-1.77h-1.13v3.66h0Z"/>
            <path class="cls-26" d="M47.26,290.51l6.38.62,6.66-.19,2.21.87,13.97-.5,8.03-.25,3.73,1.37,8.46-1.43h1.36s-.18-.85-.18-.85h-9.7l-1.59,1.45-.2-1.45h-12.86l-9.22,1.58-2.4-1.58h-14v-.2l-.66.55h0ZM101.23,291.05l7.18.08,9.93.79-.3-1.77h-15.36l-1.45.9h0ZM118.34,291.92l19.04-.87,14.25-.48,1.14.29-.24-.71h-32.94l-1.25,1.77h0ZM154.67,291.35l2.63.68,7.88-1.11,12.94.55,12.27-.55,1.32-.77h-36.21l-.82,1.2h0Z"/>
            <path class="cls-23" d="M47.92,255.59v3.29l-.71.45-.08-3.74h.79ZM49.09,290.16l-3.17,1.6,1.12-4.17.12-7.97-1.18-10.02,1.31-6.04-.06-2.84.69.27v4.88l-1.15,5.95,1.15,7.82v10.52h1.17Z"/>
            <path class="cls-23" d="M196.54,255.59l-.85,4.19v-4.19h.85ZM195.69,261.11l2.31,5.42v10.1l-2.31.78v-16.31h0ZM195.69,278.59l2.31.34v15.96h-2.31v-16.3Z"/>
            <path class="cls-8" d="M42.65,294.89v-12.89l2.17,1.92v10.98h-2.17ZM44.83,283.55l-2.17-6.1v-13.06l1.62-.28s-.86-.84-1.62-1.69v-3.57c.71-1.06,1.59-2.29,2.17-3.09v27.8h0Z"/>
            <path class="cls-8" d="M42.65,294.89v-1.91h11.59l-.29,1.91h-11.3ZM198,292.98v1.91h-15.92l-2.63-1.6-10-.32h14.96l5.98-2.05,2.64,1.84,4.97.21h0ZM167.55,292.98l-2.48,1.91h-20.78l-1.93-1.35-1.13-.57,11.63-1.85.65,1.91.78-1.13,1.74,1.07h6.85l2.3-2.05,2.37,2.05h0ZM125.55,292.98l-7.47,1.21-8.46.7-1.84-1.91,8.16-2.61-.37,2.61h9.98ZM105.92,292.98l-3.4,1.91h-13.91l-.53-.7-1.19-1.21h6.9l4.33-1.67.3,1.49,1.89-1.17,5.61,1.36ZM86.36,292.98l-3.75,1.91h-24.15l-2.2-1.91,15.5-.75,3.3-1.8,11.3,2.55h0Z"/>
            <path class="cls-26" d="M43.65,291.93c.31.19,1.18,1.37,1.18,1.37,0,0,1.06-4.54,1.06-4.79s-.59-3.76-.59-3.76l-1.65,7.19h0Z"/>
            <path class="cls-26" d="M44.08,279.52s.53,1.37.74.93c.21-.44,1.12-3.21,1-3.55-.12-.34-.71-1.81-.71-1.81l.4-6.35-.69-1.93-1.18,5.13.5,2.86-.06,4.7h0Z"/>
            <polygon class="cls-26" points="62.85 292.66 67.01 293.77 67.89 293.08 76.07 293.12 73.55 291.42 67.96 292.41 62.85 292.66"/>
            <polygon class="cls-26" points="90.34 292.98 94.71 293.71 96.35 291.99 94.42 291.39 90.34 292.98"/>
            <path class="cls-26" d="M115.25,292.79l1.25.51,3.77-.09s4.11-1.06,3.89-1.09c-.22-.03-7.53,0-7.53,0l-1.37.67h0Z"/>
            <polygon class="cls-26" points="147.15 292.79 151.6 293.33 151.64 291.32 147.15 292.79"/>
            <polygon class="cls-26" points="157.17 292.98 159.5 293.55 162.88 292.98 162.08 291.59 157.07 292.79 157.17 292.98"/>
            <path class="cls-26" d="M187.85,292.79l2.27,1.01,2.21-.28,2.3.19v-4.26s-.34-1.34-.53-1.18c-.19.16-1.7,4.07-1.7,4.07l-4.56.46h0Z"/>
            <path class="cls-26" d="M193.76,276.56l-1.31-2.02,1.56-7.47s.75,4.82.71,5.01c-.03.19-.96,4.48-.96,4.48h0Z"/>
            <path class="cls-26" d="M193.64,257.73l-.98-2.14h1.08c-.06,1.23-.1,2.14-.1,2.14Z"/>
            <path class="cls-26" d="M44.17,259.11c.02.11.37,1.7.37,1.7l.96-3.61-.51-.86-.82,2.77h0Z"/>
          </g>
          <g>
            <path class="cls-11" d="M43.7,269.04v-.32l1.37.1-1.37-3.56v-8.97h9.51l1.62,1.33,4.47-1.33h11.1l.35,1.2,10.58,2.86,4.51-4.07h12.62l1.79,3.69,2.07-3.69h18.42l2.04,1.45,10.95-1.45h18.47l.08,1.82,4.26-1.82h31.31l2.52,1.95-.13-1.95h6.79v9.73l-2.24,2.86.29.16h-3.35v-7.75h-14.29l-1.57-1.87-1.71,1.87h-26.39l-.84-3.11-.42,3.11h-31.11l-3.29-3.61.28,2.68.32.94h-38.03l-2.31-1.81-.38,1.81h-15.46c-.62-.82-1.44-1.94-1.59-2.24-.14-.29-.54,1.06-.85,2.24h-6.15v7.75h-4.27Z"/>
            <path class="cls-2" d="M42.71,269.04v-.4l2.36.18-2.36-6.16v-7.07h9.66l2.48,2.03,6.83-2.03h8.54l.56,1.9,10.58,2.86,5.29-4.76h3.55v.7l1.1-.7h6.86l2.12,4.39,2.47-4.39h17.05l3.01,2.15,10.95-1.45.17-.7h18.26l.11,2.52,5.89-2.52h28.78l3.42,2.65-.18-2.65h7.84v9.18l-1,1.25-2.24,2.86.29.16h-3.35v-7.75h-14.29l-1.57-1.87-1.71,1.87h-26.39l-.84-3.12-.42,3.12h-31.11l-3.29-3.61.28,2.68.32.94h-38.03l-2.3-1.81-.38,1.81h-15.46c-.62-.82-1.44-1.94-1.59-2.24-.14-.29-.54,1.06-.85,2.24h-6.15v7.75h-5.27Z"/>
            <polygon class="cls-8" points="192.69 269.04 191.76 269.04 191.76 261.91 192.86 261.15 192.69 269.04"/>
            <path class="cls-31" d="M191.7,261.3l.63-.67-8.71-1.06-3.3.75-2.99-1.18-14.56.99-11.58.5-3.5.27.11.4h26.39l1.71-1.87,1.57,1.87h14.23,0ZM146.58,260.99h0l-1.99-.89s-10.02-1.03-10.89-1.03-18.27,2.23-18.27,2.23h31.11l.04-.31h0ZM112.42,260.33l-1.99-.64-10.08,1.6h12.4l-.32-.94v-.03h0ZM100.34,261.29l-11.08-1.79-2.3-.12-.44,1.31-11.82.61h25.64ZM72.4,259.49l-9.59,1.2-4.67-1.06-3.21-.61s.03.02.04.04c.15.3.97,1.42,1.59,2.24h15.46l.38-1.81h0ZM54.92,259.02l-8.1.49,1.16,1.78h6.15c.27-1.05.62-2.23.79-2.28h0Z"/>
            <polygon class="cls-23" points="46.22 269.04 46.5 262.31 46.82 259.51 48.04 261.05 47.99 269.04 46.22 269.04"/>
            <polygon class="cls-23" points="195.74 255.59 198.06 255.59 198.06 264.78 197.06 266.02 195.74 267.7 195.74 255.59"/>
            <path class="cls-31" d="M42.71,257.68v-2.09h9.66l2.48,2.03,6.83-2.03h8.54l.56,1.9.7.19h-28.76ZM84.32,257.68l2.32-2.09h3.55v.7l1.1-.7h6.86l1.01,2.09h-14.84,0ZM101.57,257.68l1.17-2.09h17.05l2.93,2.09h-21.15ZM123.25,257.68l10.5-1.39.17-.7h18.26l.09,2.09h-29.03ZM153.31,257.68l4.88-2.09h28.78l2.7,2.09h-36.36ZM190.36,257.68l-.14-2.09h7.84v2.09h-7.7Z"/>
            <path class="cls-8" d="M44.88,269.04h-2.17v-.4l2.17.16v.23h0ZM44.88,268.33l-2.17-5.67v-7.07h2.17v12.74Z"/>
            <path class="cls-26" d="M193.02,269.04c.09-.37.14-.65.12-.71-.09-.19-.59-3.42-.59-3.42l.29-2.8h.76s-.15,6.93-.15,6.93h-.43Z"/>
            <polygon class="cls-26" points="159.62 258.93 164.35 260.74 168.89 260.86 168.81 259.71 159.62 258.93"/>
            <polygon class="cls-26" points="129.12 260.05 133.35 260.55 139.58 259.18 137.03 258.05 129.12 260.05"/>
            <polygon class="cls-26" points="116.92 258.81 118.98 260.05 122.65 259.62 118.6 257.98 116.92 258.81"/>
            <polygon class="cls-26" points="92.15 260.67 94.39 260.86 97.13 259.27 90.13 258.68 92.15 260.67"/>
            <polygon class="cls-26" points="185.2 260.18 188.37 260.46 188.9 258.62 185.73 258.25 185.2 260.18"/>
            <path class="cls-26" d="M58,260.25l1.2.47.56-.42,4.73.26s-1.42-1.68-1.62-1.65c-.2.03-4.87,1.34-4.87,1.34h0Z"/>
            <polygon class="cls-26" points="67.86 259.8 69.37 260.58 71.18 259.43 69.48 258.68 67.86 259.8"/>
            <path class="cls-26" d="M44.12,258.99c.19.06,4.37,2.3,4.37,2.3l-2.97-4.23-1.4,1.93h0Z"/>
          </g>
        </g>
        <polygon class="cls-3" points="58.26 266.37 59.45 283.88 65.4 284.08 68.04 275.82 71.31 284.2 76.68 283.68 77.78 265.99 72.53 265.85 72.12 275.68 69.8 268.31 66.09 268.43 64.03 276.02 63.8 265.99 58.26 266.37"/>
        <path id="_1" data-name="1" class="cls-3" d="M95.4,272.84l-4.26-6.87-5.1.2-3.68,7.51-.7,10.38,4.99.09.14-3.1,4.15-.35.29,3.6,5.22-.23-1.04-11.22h0ZM86.99,276.69l.2-2.61,1.57-3.28,1.62,3.33.17,2.35-3.57.2Z"/>
        <path id="_2" data-name="2" class="cls-3" d="M110.38,284.67l5.19-2.32-3.57-5.09,1.94-.99-.44-9.7-4.38-.75-8.7.52.2,17.86,5.65-.09-.26-5.6.96-.2,3.39,6.35h0ZM105.51,270.4l3.04-.06-.03,3.8-2.96.23-.06-3.97Z"/>
        <path id="_3" data-name="3" class="cls-3" d="M128.94,284.67l5.19-2.32-3.57-5.09,1.94-.99-.44-9.7-4.38-.75-8.7.52.2,17.86,5.65-.09-.26-5.6.96-.2,3.39,6.35h0ZM124.06,270.4l3.05-.06-.03,3.8-2.96.23-.06-3.97Z"/>
        <polygon id="_4" data-name="4" class="cls-3" points="137.57 266.17 137.77 284.17 143.54 283.79 143.43 265.93 137.57 266.17"/>
        <path id="_5" data-name="5" class="cls-3" d="M161.46,266.02l-12.47.2-.44,17.19,5.1.58,8.55-.35.61-3.28-1.36-14.34h0ZM153.57,279.04l.15-8.06,3.22.17.38,7.74-3.74.15h0Z"/>
        <path id="_6" data-name="6" class="cls-3" d="M177.25,284.67l5.19-2.32-3.57-5.09,1.94-.99-.43-9.7-4.38-.75-8.7.52.2,17.86,5.65-.09-.26-5.6.96-.2,3.39,6.35h0ZM172.38,270.4l3.04-.06-.03,3.8-2.96.23-.06-3.97h0Z"/>
        <g>
          <path class="cls-3" d="M20.82,25.33l2.61.3.28-2.7-9.32-11.46,1.3-1.06c.11-.09.07-.58-.18-.92-.3-.41-.85-.65-1.03-.51l-1.94,1.58-2.46-3.02c-.1-.12-.62-.12-1,.17-.43.33-.71.96-.55,1.15l2.43,2.99-1.9,1.54c-.47.54.8,1.75,1.15,1.48l1.23-1,9.38,11.47h0Z"/>
          <path class="cls-3" d="M21.12,317.72l2.61-.3.28,2.7-9.32,11.46,1.3,1.06c.11.09.07.59-.18.92-.3.41-.85.65-1.03.51l-1.94-1.58-2.46,3.02c-.1.12-.62.12-1-.17-.43-.33-.71-.96-.55-1.15l2.43-2.99-1.9-1.54c-.47-.54.8-1.75,1.15-1.48l1.23,1,9.38-11.47h0Z"/>
          <path class="cls-3" d="M221.44,25.33l-2.61.3-.27-2.7,9.32-11.46-1.3-1.06c-.11-.09-.07-.58.18-.92.3-.41.85-.65,1.03-.51l1.94,1.58,2.46-3.02c.1-.12.62-.12,1,.17.43.33.71.96.55,1.15l-2.43,2.99,1.9,1.54c.47.54-.8,1.75-1.15,1.48l-1.23-1-9.38,11.47h0Z"/>
          <path class="cls-3" d="M221.74,317.71l-2.61-.3-.28,2.7,9.32,11.46-1.3,1.06c-.11.09-.07.58.18.92.3.41.85.65,1.03.51l1.94-1.58,2.46,3.02c.1.12.62.12,1-.17.43-.33.71-.96.55-1.15l-2.43-2.99,1.9-1.54c.47-.54-.8-1.75-1.15-1.48l-1.23,1-9.38-11.47h0Z"/>
        </g>
      </g>
    </g>
  </g>
</svg>